<?xml version="1.0" encoding="UTF-8" standalone="no"?><!DOCTYPE svg PUBLIC "-//W3C//DTD SVG 1.1//EN" "http://www.w3.org/Graphics/SVG/1.1/DTD/svg11.dtd"><svg width="14" height="4" viewBox="0 0 14 4" version="1.1" xmlns="http://www.w3.org/2000/svg" xmlns:xlink="http://www.w3.org/1999/xlink" xml:space="preserve" style="fill-rule:evenodd;clip-rule:evenodd;stroke-linejoin:round;stroke-miterlimit:1.41421;"><g><path d="M0.002,3.072c-0.005,0.013 0,0.022 0.013,0.026l0.04,0.013c0.014,0.004 0.018,-0.004 0.023,-0.013l0.402,-0.899l1.831,0l0.398,0.899c0.004,0.009 0.009,0.017 0.022,0.013l0.04,-0.013c0.014,-0.004 0.018,-0.013 0.014,-0.026l-1.351,-3.055c-0.005,-0.008 -0.014,-0.017 -0.023,-0.017l-0.009,0c-0.009,0 -0.018,0.009 -0.022,0.017l-1.378,3.055Zm0.514,-0.946l0.891,-1.971l0.868,1.971l-1.759,0Z" style="fill:#f3f5f5;fill-rule:nonzero;"/><path d="M4.374,3.072c0,0.017 0.013,0.03 0.031,0.03l0.017,0c0.018,0 0.032,-0.013 0.032,-0.03l0,-2.883l2.313,2.965c0.018,0.026 0.058,0.013 0.058,-0.017l0,-3.016c0,-0.018 -0.013,-0.031 -0.031,-0.031l-0.018,0c-0.018,0 -0.031,0.013 -0.031,0.031l0,2.874l-2.314,-2.965c-0.017,-0.026 -0.057,-0.013 -0.057,0.017l0,3.025Z" style="fill:#f3f5f5;fill-rule:nonzero;"/><path d="M7.792,3.072c0,0.017 0.013,0.03 0.031,0.03l1.821,0c0.018,0 0.031,-0.013 0.031,-0.03l0,-0.017c0,-0.017 -0.013,-0.03 -0.031,-0.03l-1.772,0l0,-1.45l1.557,0c0.018,0 0.031,-0.013 0.031,-0.03l0,-0.017c0,-0.018 -0.013,-0.03 -0.031,-0.03l-1.557,0l0,-1.331l1.772,0c0.018,0 0.031,-0.013 0.031,-0.03l0,-0.017c0,-0.017 -0.013,-0.03 -0.031,-0.03l-1.821,0c-0.018,0 -0.031,0.013 -0.031,0.03l0,2.952Z" style="fill:#f3f5f5;fill-rule:nonzero;"/><path d="M10.978,3.154c0.009,0.03 0.053,0.03 0.062,0l0.824,-2.909l0.863,2.909c0.009,0.03 0.054,0.03 0.063,0l0.881,-3.034c0.005,-0.013 0,-0.021 -0.013,-0.026l-0.036,-0.013c-0.013,-0.004 -0.022,0 -0.027,0.013l-0.837,2.871l-0.863,-2.909c-0.009,-0.03 -0.054,-0.03 -0.063,0l-0.823,2.913l-0.868,-2.875c-0.005,-0.013 -0.014,-0.017 -0.027,-0.013l-0.036,0.013c-0.013,0.005 -0.018,0.013 -0.013,0.026l0.913,3.034Z" style="fill:#f3f5f5;fill-rule:nonzero;"/></g></svg>
