<?xml version="1.0" encoding="utf-8"?>
<!-- Generator: Adobe Illustrator 23.0.1, SVG Export Plug-In . SVG Version: 6.00 Build 0)  -->
<svg version="1.1" id="Layer_1" xmlns="http://www.w3.org/2000/svg" xmlns:xlink="http://www.w3.org/1999/xlink" x="0px" y="0px"
	 viewBox="0 0 1159.5 167.8" style="enable-background:new 0 0 1159.5 167.8;" xml:space="preserve">
<style type="text/css">
	.st0{enable-background:new    ;}
	.st1{fill:#FFFFFF;}
</style>
<title>citizen-science</title>
<g>
	<g id="Layer_1-2">
		<g class="st0">
			<path class="st1" d="M57.2,20c14.3,0,24.9,4.4,34.6,13.3c1.3,1.1,1.3,2.9,0.1,4L80.8,48.9c-1,1-2.6,1-3.6,0
				c-5.9-5.1-12.3-7.3-19.3-7.3c-16.2,0-28,13.4-28,29.5c0,15.9,12,29,28.2,29c7.9,0,14-2.4,19.2-6.9c1-0.9,2.9-0.9,3.7,0.1
				l11.2,11.9c1,1,0.9,2.9-0.1,3.9c-9.7,9.4-22,13.9-34.8,13.9c-28.6,0-51.6-22.7-51.6-51.4C5.6,43.1,28.6,20,57.2,20z"/>
			<path class="st1" d="M108.4,24.2c0-1.4,1.3-2.7,2.7-2.7h17.2c1.4,0,2.7,1.3,2.7,2.7v94.7c0,1.4-1.3,2.7-2.7,2.7h-17.2
				c-1.4,0-2.7-1.3-2.7-2.7V24.2z"/>
			<path class="st1" d="M169.2,42.5h-20.5c-1.6,0-2.7-1.3-2.7-2.7V24.2c0-1.4,1.1-2.7,2.7-2.7h63.5c1.6,0,2.7,1.3,2.7,2.7v15.6
				c0,1.4-1.1,2.7-2.7,2.7h-20.5v76.4c0,1.4-1.3,2.7-2.7,2.7h-17.2c-1.4,0-2.7-1.3-2.7-2.7V42.5z"/>
			<path class="st1" d="M230,24.2c0-1.4,1.3-2.7,2.7-2.7h17.2c1.4,0,2.7,1.3,2.7,2.7v94.7c0,1.4-1.3,2.7-2.7,2.7h-17.2
				c-1.4,0-2.7-1.3-2.7-2.7V24.2z"/>
			<path class="st1" d="M267.2,117.9c0-1.3,0.1-2.1,0.9-3.4l37.2-71.7v-0.3h-31.2c-1.4,0-2.7-1.3-2.7-2.7V24.2
				c0-1.4,1.3-2.7,2.7-2.7h60.8c1.4,0,2.7,1,2.7,2.4V25c0,0.9-0.1,1.3-0.9,2.7l-35.9,72.5v0.3H332c1.6,0,2.7,1.3,2.7,2.7v15.6
				c0,1.4-1.1,2.7-2.7,2.7h-62.1c-1.4,0-2.7-1.3-2.7-2.7V117.9z"/>
			<path class="st1" d="M352.7,24.2c0-1.4,1.1-2.7,2.7-2.7h59.2c1.6,0,2.7,1.3,2.7,2.7v15.6c0,1.4-1.1,2.7-2.7,2.7H375v17.7h32.6
				c1.4,0,2.7,1.3,2.7,2.7v15.6c0,1.6-1.3,2.7-2.7,2.7H375v19.3h39.6c1.6,0,2.7,1.3,2.7,2.7v15.6c0,1.4-1.1,2.7-2.7,2.7h-59.2
				c-1.6,0-2.7-1.3-2.7-2.7V24.2z"/>
			<path class="st1" d="M435.3,22.6c0-1.4,1.3-2.6,2.7-2.6h2.1c1.4,0,2.4,1,3.6,2.1L498.6,75h0.1V24.2c0-1.4,1.1-2.7,2.7-2.7h17.2
				c1.4,0,2.7,1.3,2.7,2.7v96.3c0,1.7-1.3,2.6-2.7,2.6h-1.4c-1.4,0-2.4-0.4-3.6-1.6L458,65.5h-0.1v53.4c0,1.4-1.1,2.7-2.7,2.7h-17
				c-1.4,0-2.7-1.3-2.7-2.7L435.3,22.6z"/>
			<path class="st1" d="M574.6,112c-1.1-1.1-1.6-2.4-0.6-4.3l6.6-11.6c1.1-1.9,3.4-1.9,4.9-0.9c4,2.7,11.3,7.9,20.3,7.9
				c5.7,0,9.9-3.6,9.9-8.6c0-6-5.3-9.9-14.7-14.4c-13.9-6.7-27.7-14.4-27.7-31.6c0-14.2,11-28.5,33-28.5c14.9,0,26.3,7.6,30.6,10.7
				c1.7,1,1.4,3.6,0.9,4.6l-7.3,11c-1,1.6-3.4,2.7-6.3,1c-3.3-2.3-11.7-7.7-19.3-7.7c-6,0-8.7,3.7-8.7,7.9c0,4.7,5.6,8.4,15.6,13.3
				c12.6,6.2,28.9,13.2,28.9,32.6c0,14.7-12.7,29.6-33.8,29.6C588.2,123,577.9,115.3,574.6,112z"/>
			<path class="st1" d="M703.3,20c14.3,0,24.9,4.4,34.6,13.3c1.3,1.1,1.3,2.9,0.1,4l-11.2,11.6c-1,1-2.6,1-3.6,0
				c-5.9-5.1-12.3-7.3-19.3-7.3c-16.2,0-28,13.4-28,29.5c0,15.9,12,29,28.2,29c7.9,0,14-2.4,19.2-6.9c1-0.9,2.9-0.9,3.7,0.1
				l11.2,11.9c1,1,0.9,2.9-0.1,3.9c-9.7,9.4-22,13.9-34.8,13.9c-28.6,0-51.6-22.7-51.6-51.4C651.7,43.1,674.7,20,703.3,20z"/>
			<path class="st1" d="M754.5,24.2c0-1.4,1.3-2.7,2.7-2.7h17.2c1.4,0,2.7,1.3,2.7,2.7v94.7c0,1.4-1.3,2.7-2.7,2.7h-17.2
				c-1.4,0-2.7-1.3-2.7-2.7V24.2z"/>
			<path class="st1" d="M799.7,24.2c0-1.4,1.1-2.7,2.7-2.7h59.2c1.6,0,2.7,1.3,2.7,2.7v15.6c0,1.4-1.1,2.7-2.7,2.7H822v17.7h32.6
				c1.4,0,2.7,1.3,2.7,2.7v15.6c0,1.6-1.3,2.7-2.7,2.7H822v19.3h39.6c1.6,0,2.7,1.3,2.7,2.7v15.6c0,1.4-1.1,2.7-2.7,2.7h-59.2
				c-1.6,0-2.7-1.3-2.7-2.7V24.2z"/>
			<path class="st1" d="M882.3,22.6c0-1.4,1.3-2.6,2.7-2.6h2.1c1.4,0,2.4,1,3.6,2.1L945.6,75h0.1V24.2c0-1.4,1.1-2.7,2.7-2.7h17.2
				c1.4,0,2.7,1.3,2.7,2.7v96.3c0,1.7-1.3,2.6-2.7,2.6h-1.4c-1.4,0-2.4-0.4-3.6-1.6L905,65.5h-0.1v53.4c0,1.4-1.1,2.7-2.7,2.7h-17
				c-1.4,0-2.7-1.3-2.7-2.7L882.3,22.6z"/>
			<path class="st1" d="M1036.9,20c14.3,0,24.9,4.4,34.6,13.3c1.3,1.1,1.3,2.9,0.1,4l-11.2,11.6c-1,1-2.6,1-3.6,0
				c-5.9-5.1-12.3-7.3-19.3-7.3c-16.2,0-28,13.4-28,29.5c0,15.9,12,29,28.2,29c7.9,0,14-2.4,19.2-6.9c1-0.9,2.9-0.9,3.7,0.1
				l11.2,11.9c1,1,0.9,2.9-0.1,3.9c-9.7,9.4-22,13.9-34.8,13.9c-28.6,0-51.6-22.7-51.6-51.4C985.2,43.1,1008.3,20,1036.9,20z"/>
			<path class="st1" d="M1088.1,24.2c0-1.4,1.1-2.7,2.7-2.7h59.2c1.6,0,2.7,1.3,2.7,2.7v15.6c0,1.4-1.1,2.7-2.7,2.7h-39.6v17.7h32.6
				c1.4,0,2.7,1.3,2.7,2.7v15.6c0,1.6-1.3,2.7-2.7,2.7h-32.6v19.3h39.6c1.6,0,2.7,1.3,2.7,2.7v15.6c0,1.4-1.1,2.7-2.7,2.7h-59.2
				c-1.6,0-2.7-1.3-2.7-2.7V24.2z"/>
		</g>
	</g>
</g>
</svg>
