<?xml version="1.0" encoding="UTF-8" standalone="no"?><!DOCTYPE svg PUBLIC "-//W3C//DTD SVG 1.1//EN" "http://www.w3.org/Graphics/SVG/1.1/DTD/svg11.dtd"><svg width="682" height="84" viewBox="0 0 682 84" version="1.1" xmlns="http://www.w3.org/2000/svg" xmlns:xlink="http://www.w3.org/1999/xlink" xml:space="preserve" style="fill-rule:evenodd;clip-rule:evenodd;stroke-linejoin:round;stroke-miterlimit:1.41421;"><rect id="Artboard1" x="0" y="0" width="681.482" height="83.913" style="fill:none;"/><path d="M5.06,63.271c0,0.9 0.717,1.708 1.632,1.708l22.076,0c17.483,0 31.778,-14.188 31.778,-31.763c0,-17.392 -14.295,-31.595 -31.778,-31.595l-22.076,0c-0.915,0 -1.632,0.824 -1.632,1.724l0,59.926Zm14.112,-11.671l0,-36.676l9.504,0c10.237,0 16.858,8.055 16.858,18.292c0,10.329 -6.621,18.384 -16.858,18.384l-9.504,0l0,0Z" style="fill:#f3f5f5;fill-rule:nonzero;"/><path d="M71.332,63.271c0,0.9 0.717,1.708 1.709,1.708l37.468,0c1.007,0 1.724,-0.808 1.724,-1.708l0,-9.856c0,-0.915 -0.717,-1.724 -1.724,-1.724l-25.065,0l0,-12.235l20.641,0c0.9,0 1.709,-0.717 1.709,-1.724l0,-9.855c0,-0.9 -0.809,-1.724 -1.709,-1.724l-20.641,0l0,-11.229l25.065,0c1.007,0 1.724,-0.808 1.724,-1.724l0,-9.855c0,-0.9 -0.717,-1.724 -1.724,-1.724l-37.468,0c-0.992,0 -1.709,0.824 -1.709,1.724l0,59.926Z" style="fill:#f3f5f5;fill-rule:nonzero;"/><path d="M141.662,65.895c13.303,0 21.358,-9.413 21.358,-18.735c0,-12.311 -10.313,-16.751 -18.276,-20.641c-6.347,-3.082 -9.871,-5.431 -9.871,-8.421c0,-2.624 1.724,-4.989 5.523,-4.989c4.805,0 10.145,3.448 12.22,4.897c1.815,1.083 3.356,0.366 3.982,-0.641l4.622,-6.972c0.351,-0.625 0.534,-2.258 -0.549,-2.883c-2.716,-1.999 -9.947,-6.789 -19.375,-6.789c-13.929,0 -20.901,9.047 -20.901,18.002c0,10.878 8.772,15.759 17.56,20.016c5.98,2.899 9.321,5.339 9.321,9.153c0,3.158 -2.624,5.432 -6.239,5.432c-5.721,0 -10.329,-3.265 -12.861,-4.989c-0.9,-0.626 -2.35,-0.626 -3.082,0.549l-4.15,7.323c-0.64,1.175 -0.366,1.999 0.351,2.716c2.09,2.09 8.605,6.972 20.367,6.972l0,0Z" style="fill:#f3f5f5;fill-rule:nonzero;"/><path d="M173.715,63.271c0,0.9 0.824,1.708 1.724,1.708l10.847,0c0.915,0 1.724,-0.808 1.724,-1.708l0,-59.926c0,-0.9 -0.809,-1.724 -1.724,-1.724l-10.847,0c-0.9,0 -1.724,0.824 -1.724,1.724l0,59.926Z" style="fill:#f3f5f5;fill-rule:nonzero;"/><path d="M198.704,33.399c0,18.109 14.478,32.404 32.495,32.404c13.121,0 22.442,-5.889 22.442,-5.889c0.366,-0.259 0.732,-0.625 0.732,-1.434l-0.091,-24.348c0,-0.916 -0.733,-1.724 -1.633,-1.724l-18.185,0c-0.991,0 -1.724,0.717 -1.724,1.724l0,8.955c0,0.9 0.733,1.617 1.724,1.617l5.706,0l0,5.263c-2.716,1.083 -5.431,1.45 -8.055,1.45c-9.886,0 -17.941,-8.162 -17.941,-18.018c0,-9.962 7.963,-18.292 17.849,-18.292c4.424,0 8.406,1.175 11.854,4.348c0.717,0.534 1.709,0.534 2.441,-0.091l7.14,-7.613c0.732,-0.717 0.641,-1.8 -0.168,-2.441c-6.163,-5.339 -14.478,-8.497 -22.091,-8.497c-18.017,0 -32.495,14.477 -32.495,32.586l0,0Z" style="fill:#f3f5f5;fill-rule:nonzero;"/><path d="M266.517,63.271c0,0.9 0.809,1.708 1.709,1.708l10.77,0c0.992,0 1.724,-0.808 1.724,-1.708l0,-33.762l0.077,0l35.226,35.394c0.717,0.717 1.357,0.992 2.258,0.992l0.915,0c0.9,0 1.709,-0.55 1.709,-1.633l0,-60.917c0,-0.9 -0.809,-1.724 -1.709,-1.724l-10.862,0c-0.992,0 -1.724,0.824 -1.724,1.724l0,32.129l-0.092,0l-34.753,-33.395c-0.732,-0.717 -1.358,-1.358 -2.273,-1.358l-1.358,0c-0.9,0 -1.709,0.717 -1.709,1.632l0.092,60.918Z" style="fill:#f3f5f5;fill-rule:nonzero;"/><path d="M374.956,65.895c13.319,0 21.359,-9.413 21.359,-18.735c0,-12.311 -10.313,-16.751 -18.277,-20.641c-6.346,-3.082 -9.87,-5.431 -9.87,-8.421c0,-2.624 1.723,-4.989 5.522,-4.989c4.806,0 10.145,3.448 12.22,4.897c1.816,1.083 3.357,0.366 3.982,-0.641l4.623,-6.972c0.351,-0.625 0.534,-2.258 -0.55,-2.883c-2.715,-1.999 -9.946,-6.789 -19.359,-6.789c-13.944,0 -20.916,9.047 -20.916,18.002c0,10.878 8.772,15.759 17.559,20.016c5.981,2.899 9.337,5.339 9.337,9.153c0,3.158 -2.639,5.432 -6.255,5.432c-5.706,0 -10.328,-3.265 -12.861,-4.989c-0.9,-0.626 -2.349,-0.626 -3.082,0.549l-4.149,7.323c-0.641,1.175 -0.366,1.999 0.351,2.716c2.09,2.09 8.604,6.972 20.366,6.972l0,0Z" style="fill:#f3f5f5;fill-rule:nonzero;"/><path d="M419.321,63.271c0,0.9 0.732,1.708 1.724,1.708l10.771,0c0.9,0 1.708,-0.808 1.708,-1.708l0,-28.88l20.275,-30.146c0.733,-1.175 0,-2.624 -1.434,-2.624l-11.777,0c-0.809,0 -1.175,0.458 -1.45,0.824l-12.571,18.551l-12.586,-18.551c-0.274,-0.366 -0.717,-0.824 -1.449,-0.824l-11.762,0c-1.45,0 -2.182,1.449 -1.45,2.624l20.001,30.237l0,28.789Z" style="fill:#f3f5f5;fill-rule:nonzero;"/><path d="M478.072,65.895c13.303,0 21.358,-9.413 21.358,-18.735c0,-12.311 -10.313,-16.751 -18.277,-20.641c-6.346,-3.082 -9.87,-5.431 -9.87,-8.421c0,-2.624 1.724,-4.989 5.522,-4.989c4.806,0 10.146,3.448 12.22,4.897c1.816,1.083 3.357,0.366 3.982,-0.641l4.623,-6.972c0.351,-0.625 0.534,-2.258 -0.549,-2.883c-2.716,-1.999 -9.947,-6.789 -19.376,-6.789c-13.928,0 -20.9,9.047 -20.9,18.002c0,10.878 8.772,15.759 17.559,20.016c5.981,2.899 9.322,5.339 9.322,9.153c0,3.158 -2.624,5.432 -6.24,5.432c-5.721,0 -10.328,-3.265 -12.861,-4.989c-0.9,-0.626 -2.349,-0.626 -3.081,0.549l-4.15,7.323c-0.641,1.175 -0.366,1.999 0.351,2.716c2.09,2.09 8.604,6.972 20.367,6.972l0,0Z" style="fill:#f3f5f5;fill-rule:nonzero;"/><path d="M519.995,63.271c0,0.9 0.809,1.708 1.724,1.708l10.847,0c0.9,0 1.724,-0.808 1.724,-1.708l0,-48.347l12.937,0c1.007,0 1.724,-0.808 1.724,-1.724l0,-9.855c0,-0.9 -0.717,-1.724 -1.724,-1.724l-40.184,0c-0.992,0 -1.709,0.824 -1.709,1.724l0,9.855c0,0.916 0.717,1.724 1.709,1.724l12.952,0l0,48.347Z" style="fill:#f3f5f5;fill-rule:nonzero;"/><path d="M558.471,63.271c0,0.9 0.717,1.708 1.724,1.708l37.468,0c0.992,0 1.709,-0.808 1.709,-1.708l0,-9.856c0,-0.915 -0.717,-1.724 -1.709,-1.724l-25.081,0l0,-12.235l20.642,0c0.9,0 1.724,-0.717 1.724,-1.724l0,-9.855c0,-0.9 -0.824,-1.724 -1.724,-1.724l-20.642,0l0,-11.229l25.081,0c0.992,0 1.709,-0.808 1.709,-1.724l0,-9.855c0,-0.9 -0.717,-1.724 -1.709,-1.724l-37.468,0c-1.007,0 -1.724,0.824 -1.724,1.724l0,59.926Z" style="fill:#f3f5f5;fill-rule:nonzero;"/><path d="M607.442,62.996c-0.183,1.175 0.641,1.983 1.724,1.983l10.679,0c0.901,0 1.633,-0.717 1.724,-1.434l3.982,-27.979l0.183,0l15.302,29.337c0.259,0.534 0.992,0.992 1.526,0.992l1.632,0c0.458,0 1.266,-0.458 1.541,-0.992l15.21,-29.337l0.183,0l4.073,27.979c0.092,0.717 0.901,1.434 1.724,1.434l10.68,0c1.083,0 1.891,-0.808 1.724,-1.983l-10.237,-60.826c-0.092,-0.808 -0.9,-1.449 -1.633,-1.449l-1.449,0c-0.442,0 -1.266,0.366 -1.541,0.9l-20.992,39.101l-0.183,0l-21.008,-39.101c-0.274,-0.534 -1.083,-0.9 -1.54,-0.9l-1.45,0c-0.717,0 -1.541,0.641 -1.617,1.449l-10.237,60.826l0,0Z" style="fill:#f3f5f5;fill-rule:nonzero;"/></svg>
