<?xml version="1.0" encoding="UTF-8" standalone="no"?><!DOCTYPE svg PUBLIC "-//W3C//DTD SVG 1.1//EN" "http://www.w3.org/Graphics/SVG/1.1/DTD/svg11.dtd"><svg width="29" height="4" viewBox="0 0 29 4" version="1.1" xmlns="http://www.w3.org/2000/svg" xmlns:xlink="http://www.w3.org/1999/xlink" xml:space="preserve" style="fill-rule:evenodd;clip-rule:evenodd;stroke-linejoin:round;stroke-miterlimit:1.41421;"><g><path d="M0,3.153c0,0.018 0.013,0.031 0.031,0.031l0.018,0c0.017,0 0.03,-0.013 0.03,-0.031l0,-1.434l1.546,0c0.017,0 0.031,-0.013 0.031,-0.031l0,-0.018c0,-0.017 -0.014,-0.03 -0.031,-0.03l-1.546,0l0,-1.484l1.759,0c0.018,0 0.031,-0.013 0.031,-0.031l0,-0.018c0,-0.017 -0.013,-0.031 -0.031,-0.031l-1.807,0c-0.018,0 -0.031,0.014 -0.031,0.031l0,3.046Z" style="fill:#f3f5f5;fill-rule:nonzero;"/><path d="M2.22,1.635c0,0.892 0.71,1.594 1.603,1.594c0.893,0 1.607,-0.702 1.607,-1.594c0,-0.893 -0.714,-1.603 -1.607,-1.603c-0.893,0 -1.603,0.71 -1.603,1.603Zm0.08,0c0,-0.849 0.675,-1.524 1.523,-1.524c0.848,0 1.528,0.675 1.528,1.524c0,0.848 -0.68,1.514 -1.528,1.514c-0.848,0 -1.523,-0.666 -1.523,-1.514Z" style="fill:#f3f5f5;fill-rule:nonzero;"/><path d="M6.177,3.153c0,0.018 0.013,0.031 0.031,0.031l0.017,0c0.013,0 0.027,-0.013 0.027,-0.031l0,-1.154l1.012,0c0.04,0 0.076,0 0.116,-0.005l0.706,1.19c0.005,0.009 0.013,0.018 0.027,0.014l0.04,-0.023c0.013,-0.009 0.013,-0.022 0.004,-0.035l-0.693,-1.159c0.458,-0.084 0.808,-0.462 0.808,-0.955c0,-0.55 -0.457,-0.95 -1.012,-0.95l-1.052,0c-0.018,0 -0.031,0.014 -0.031,0.031l0,3.046Zm0.075,-1.229l0,-1.768l1.008,0c0.515,0 0.937,0.364 0.937,0.87c0,0.516 -0.422,0.898 -0.933,0.898l-1.012,0Z" style="fill:#f3f5f5;fill-rule:nonzero;"/><path d="M10.089,3.153c0,0.018 0.013,0.031 0.031,0.031l0.017,0c0.018,0 0.031,-0.013 0.031,-0.031l0,-1.434l1.545,0c0.018,0 0.032,-0.013 0.032,-0.031l0,-0.018c0,-0.017 -0.014,-0.03 -0.032,-0.03l-1.545,0l0,-1.484l1.759,0c0.017,0 0.031,-0.013 0.031,-0.031l0,-0.018c0,-0.017 -0.014,-0.031 -0.031,-0.031l-1.807,0c-0.018,0 -0.031,0.014 -0.031,0.031l0,3.046Z" style="fill:#f3f5f5;fill-rule:nonzero;"/><path d="M12.58,3.153c0,0.018 0.013,0.031 0.031,0.031l0.017,0c0.018,0 0.031,-0.013 0.031,-0.031l0,-3.045c0,-0.018 -0.013,-0.032 -0.031,-0.032l-0.017,0c-0.018,0 -0.031,0.014 -0.031,0.032l0,3.045Z" style="fill:#f3f5f5;fill-rule:nonzero;"/><path d="M13.619,3.153c0,0.018 0.013,0.031 0.031,0.031l0.017,0c0.018,0 0.031,-0.013 0.031,-0.031l0,-2.974l2.296,3.059c0.018,0.026 0.058,0.013 0.058,-0.018l0,-3.112c0,-0.018 -0.013,-0.032 -0.031,-0.032l-0.018,0c-0.017,0 -0.031,0.014 -0.031,0.032l0,2.965l-2.296,-3.059c-0.017,-0.026 -0.057,-0.013 -0.057,0.018l0,3.121Z" style="fill:#f3f5f5;fill-rule:nonzero;"/><path d="M16.891,2.105l1.079,0c0.014,0 0.027,-0.013 0.027,-0.031l0,-0.017c0,-0.018 -0.013,-0.031 -0.027,-0.031l-1.079,0c-0.017,0 -0.026,0.013 -0.026,0.031l0,0.017c0,0.018 0.009,0.031 0.026,0.031Z" style="fill:#f3f5f5;fill-rule:nonzero;"/><path d="M19.143,3.153c0,0.018 0.013,0.031 0.031,0.031l0.017,0c0.018,0 0.031,-0.013 0.031,-0.031l0,-2.997l0.933,0c0.018,0 0.031,-0.013 0.031,-0.031l0,-0.018c0,-0.017 -0.013,-0.031 -0.031,-0.031l-1.936,0c-0.017,0 -0.031,0.014 -0.031,0.031l0,0.018c0,0.018 0.014,0.031 0.031,0.031l0.924,0l0,2.997Z" style="fill:#f3f5f5;fill-rule:nonzero;"/><path d="M20.773,3.153c0,0.018 0.013,0.031 0.03,0.031l1.807,0c0.018,0 0.032,-0.013 0.032,-0.031l0,-0.017c0,-0.018 -0.014,-0.031 -0.032,-0.031l-1.758,0l0,-1.497l1.545,0c0.018,0 0.031,-0.013 0.031,-0.031l0,-0.018c0,-0.017 -0.013,-0.031 -0.031,-0.031l-1.545,0l0,-1.372l1.758,0c0.018,0 0.032,-0.013 0.032,-0.031l0,-0.018c0,-0.017 -0.014,-0.031 -0.032,-0.031l-1.807,0c-0.017,0 -0.03,0.014 -0.03,0.031l0,3.046Z" style="fill:#f3f5f5;fill-rule:nonzero;"/><path d="M23.131,1.635c0,0.892 0.718,1.594 1.611,1.594c0.395,0 0.777,-0.142 1.083,-0.435c0.009,-0.009 0.009,-0.022 0,-0.031l-0.022,-0.027c-0.009,-0.013 -0.027,-0.009 -0.035,0c-0.298,0.271 -0.649,0.413 -1.026,0.413c-0.848,0 -1.532,-0.666 -1.532,-1.514c0,-0.849 0.684,-1.524 1.532,-1.524c0.426,0 0.737,0.147 1.026,0.396c0.008,0.009 0.022,0.013 0.035,0l0.022,-0.027c0.009,-0.013 0.005,-0.027 -0.004,-0.035c-0.302,-0.254 -0.626,-0.413 -1.079,-0.413c-0.893,0 -1.611,0.71 -1.611,1.603Z" style="fill:#f3f5f5;fill-rule:nonzero;"/><path d="M26.559,3.153c0,0.018 0.013,0.031 0.03,0.031l0.018,0c0.018,0 0.031,-0.013 0.031,-0.031l0,-1.545l2.185,0l0,1.545c0,0.018 0.013,0.031 0.031,0.031l0.018,0c0.017,0 0.031,-0.013 0.031,-0.031l0,-3.045c0,-0.018 -0.014,-0.032 -0.031,-0.032l-0.018,0c-0.018,0 -0.031,0.014 -0.031,0.032l0,1.42l-2.185,0l0,-1.42c0,-0.018 -0.013,-0.032 -0.031,-0.032l-0.018,0c-0.017,0 -0.03,0.014 -0.03,0.032l0,3.045Z" style="fill:#f3f5f5;fill-rule:nonzero;"/></g></svg>
