<?xml version="1.0" encoding="utf-8"?>
<!-- Generator: Adobe Illustrator 23.0.1, SVG Export Plug-In . SVG Version: 6.00 Build 0)  -->
<svg version="1.1" id="Layer_1" xmlns="http://www.w3.org/2000/svg" xmlns:xlink="http://www.w3.org/1999/xlink" x="0px" y="0px"
	 viewBox="0 0 1140.5 111.9" style="enable-background:new 0 0 1140.5 111.9;" xml:space="preserve">
<style type="text/css">
	.st0{enable-background:new    ;}
	.st1{fill:#FFFFFF;}
</style>
<title>formarinemegafauna</title>
<g>
	<g id="Layer_1-2">
		<g class="st0">
			<path class="st1" d="M140,14c0.1-0.7,1.2-0.7,1.4,0l22,68.6L185.2,14c0.2-0.7,1.2-0.7,1.4,0l15.3,71.5c0.1,0.5,0.1,0.7-0.3,0.8
				l-0.8,0.2c-0.3,0.1-0.5-0.1-0.6-0.6l-14.6-67.2l-21.4,68.4c-0.2,0.7-1.2,0.7-1.4,0l-21.8-68.4l-14.1,67.2
				c-0.1,0.5-0.3,0.7-0.6,0.6l-0.8-0.2c-0.4-0.1-0.4-0.3-0.3-0.8L140,14z"/>
			<path class="st1" d="M238.7,13.5c0.1-0.2,0.3-0.4,0.5-0.4h0.2c0.2,0,0.4,0.2,0.5,0.4l30.7,72.1c0.1,0.3,0,0.5-0.3,0.6l-0.9,0.3
				c-0.3,0.1-0.4-0.1-0.5-0.3l-9-21.2h-41.5l-9.1,21.2c-0.1,0.2-0.2,0.4-0.5,0.3l-0.9-0.3c-0.3-0.1-0.4-0.3-0.3-0.6L238.7,13.5z
				 M259,63.3l-19.7-46.5l-20.2,46.5H259z"/>
			<path class="st1" d="M282.2,15.9c0-0.4,0.3-0.7,0.7-0.7H307c12.7,0,23.2,9.1,23.2,21.7c0,11.3-8,19.9-18.5,21.8l15.8,26.5
				c0.2,0.3,0.2,0.6-0.1,0.8l-0.9,0.5c-0.3,0.1-0.5-0.1-0.6-0.3l-16.1-27.2c-0.9,0.1-1.7,0.1-2.6,0.1H284v26.4
				c0,0.4-0.3,0.7-0.6,0.7h-0.4c-0.4,0-0.7-0.3-0.7-0.7V15.9z M307.1,57.5c11.7,0,21.3-8.7,21.3-20.5c0-11.6-9.6-19.9-21.4-19.9H284
				v40.4H307.1z"/>
			<path class="st1" d="M347.3,15.9c0-0.4,0.3-0.7,0.7-0.7h0.4c0.4,0,0.7,0.3,0.7,0.7v69.7c0,0.4-0.3,0.7-0.7,0.7H348
				c-0.4,0-0.7-0.3-0.7-0.7V15.9z"/>
			<path class="st1" d="M371.1,14.2c0-0.7,0.9-1,1.3-0.4l52.5,70V15.9c0-0.4,0.3-0.7,0.7-0.7h0.4c0.4,0,0.7,0.3,0.7,0.7v71.2
				c0,0.7-0.9,1-1.3,0.4l-52.5-70v68c0,0.4-0.3,0.7-0.7,0.7h-0.4c-0.4,0-0.7-0.3-0.7-0.7V14.2z"/>
			<path class="st1" d="M448.7,15.9c0-0.4,0.3-0.7,0.7-0.7h41.3c0.4,0,0.7,0.3,0.7,0.7v0.4c0,0.4-0.3,0.7-0.7,0.7h-40.2v31.4h35.3
				c0.4,0,0.7,0.3,0.7,0.7v0.4c0,0.4-0.3,0.7-0.7,0.7h-35.3v34.2h40.2c0.4,0,0.7,0.3,0.7,0.7v0.4c0,0.4-0.3,0.7-0.7,0.7h-41.3
				c-0.4,0-0.7-0.3-0.7-0.7V15.9z"/>
			<path class="st1" d="M541.9,14c0.1-0.7,1.2-0.7,1.4,0l22,68.6L587.1,14c0.2-0.7,1.2-0.7,1.4,0l15.3,71.5c0.1,0.5,0.1,0.7-0.3,0.8
				l-0.8,0.2c-0.3,0.1-0.5-0.1-0.6-0.6l-14.6-67.2L566,87.1c-0.2,0.7-1.2,0.7-1.4,0l-21.8-68.4l-14.1,67.2c-0.1,0.5-0.3,0.7-0.6,0.6
				l-0.8-0.2c-0.4-0.1-0.4-0.3-0.3-0.8L541.9,14z"/>
		</g>
		<g class="st0">
			<path class="st1" d="M619.9,15.9c0-0.4,0.3-0.7,0.7-0.7h41.3c0.4,0,0.7,0.3,0.7,0.7v0.4c0,0.4-0.3,0.7-0.7,0.7h-40.2v31.4H657
				c0.4,0,0.7,0.3,0.7,0.7v0.4c0,0.4-0.3,0.7-0.7,0.7h-35.3v34.2h40.2c0.4,0,0.7,0.3,0.7,0.7v0.4c0,0.4-0.3,0.7-0.7,0.7h-41.3
				c-0.4,0-0.7-0.3-0.7-0.7V15.9z"/>
		</g>
		<g class="st0">
			<path class="st1" d="M710.7,14.2c10.4,0,17.8,3.7,24.7,9.4c0.2,0.2,0.3,0.5,0.1,0.8l-0.5,0.6c-0.3,0.3-0.6,0.2-0.8,0
				c-6.6-5.7-13.7-9-23.5-9c-19.4,0-35,15.4-35,34.8s15.6,34.6,35,34.6c13.6,0,21.8-5.3,23.9-7V54.6h-23.1c-0.4,0-0.7-0.3-0.7-0.7
				v-0.4c0-0.3,0.3-0.6,0.7-0.6h24.2c0.4,0,0.7,0.3,0.7,0.6v25.7c-0.7,1.1-9.6,8.1-25.7,8.1c-20.4,0-36.9-16-36.9-36.5
				C673.8,30.5,690.2,14.2,710.7,14.2z"/>
			<path class="st1" d="M775.7,13.5c0.1-0.2,0.3-0.4,0.5-0.4h0.2c0.2,0,0.4,0.2,0.5,0.4l30.7,72.1c0.1,0.3,0,0.5-0.3,0.6l-0.9,0.3
				c-0.3,0.1-0.4-0.1-0.5-0.3l-9-21.2h-41.5l-9.1,21.2c-0.1,0.2-0.2,0.4-0.5,0.3l-0.9-0.3c-0.3-0.1-0.4-0.3-0.3-0.6L775.7,13.5z
				 M796,63.3l-19.7-46.5l-20.2,46.5H796z"/>
		</g>
		<g class="st0">
			<path class="st1" d="M819.3,15.9c0-0.4,0.3-0.7,0.7-0.7h41.3c0.4,0,0.7,0.3,0.7,0.7v0.4c0,0.4-0.3,0.7-0.7,0.7h-40.2V51h35.3
				c0.4,0,0.7,0.3,0.7,0.7v0.4c0,0.4-0.3,0.7-0.7,0.7h-35.3v32.8c0,0.4-0.3,0.7-0.7,0.7H820c-0.4,0-0.7-0.3-0.7-0.7V15.9z"/>
		</g>
		<g class="st0">
			<path class="st1" d="M894.1,13.5c0.1-0.2,0.3-0.4,0.5-0.4h0.2c0.2,0,0.4,0.2,0.5,0.4L926,85.6c0.1,0.3,0,0.5-0.3,0.6l-0.9,0.3
				c-0.3,0.1-0.4-0.1-0.5-0.3l-9-21.2h-41.5l-9.1,21.2c-0.1,0.2-0.2,0.4-0.5,0.3l-0.9-0.3c-0.3-0.1-0.4-0.3-0.3-0.6L894.1,13.5z
				 M914.5,63.3l-19.7-46.5l-20.2,46.5H914.5z"/>
		</g>
		<g class="st0">
			<path class="st1" d="M935.9,15.9c0-0.4,0.3-0.7,0.7-0.7h0.4c0.4,0,0.7,0.3,0.7,0.7v44.8c0,14.6,9.2,24.8,24.4,24.8
				c15.2,0,24.6-10.2,24.6-24.8V15.9c0-0.4,0.3-0.7,0.7-0.7h0.4c0.4,0,0.7,0.3,0.7,0.7v44.8c0,15.6-10.2,26.6-26.4,26.6
				c-16.1,0-26.2-11-26.2-26.6V15.9z"/>
			<path class="st1" d="M1009.6,14.2c0-0.7,0.9-1,1.3-0.4l52.5,70V15.9c0-0.4,0.3-0.7,0.7-0.7h0.4c0.4,0,0.7,0.3,0.7,0.7v71.2
				c0,0.7-0.9,1-1.3,0.4l-52.5-70v68c0,0.4-0.3,0.7-0.7,0.7h-0.4c-0.4,0-0.7-0.3-0.7-0.7V14.2z"/>
			<path class="st1" d="M1107.9,13.5c0.1-0.2,0.3-0.4,0.5-0.4h0.2c0.2,0,0.4,0.2,0.5,0.4l30.7,72.1c0.1,0.3,0,0.5-0.3,0.6l-0.9,0.3
				c-0.3,0.1-0.4-0.1-0.5-0.3l-9-21.2h-41.5l-9.1,21.2c-0.1,0.2-0.2,0.4-0.5,0.3l-0.9-0.3c-0.3-0.1-0.4-0.3-0.3-0.6L1107.9,13.5z
				 M1128.2,63.3l-19.7-46.5l-20.2,46.5H1128.2z"/>
		</g>
		<g class="st0">
			<path class="st1" d="M5.4,18c0-0.2,0.1-0.3,0.3-0.3H26c0.2,0,0.3,0.1,0.3,0.3v0.2c0,0.2-0.1,0.3-0.3,0.3H6.3v16.6h17.3
				c0.2,0,0.3,0.1,0.3,0.3v0.2c0,0.2-0.1,0.3-0.3,0.3H6.3v16.1c0,0.2-0.1,0.3-0.3,0.3H5.7c-0.2,0-0.3-0.1-0.3-0.3V18z"/>
		</g>
		<g class="st0">
			<path class="st1" d="M48.2,17.1c10,0,18,8,18,18c0,10-8,17.9-18,17.9s-18-7.9-18-17.9C30.2,25.1,38.2,17.1,48.2,17.1z M48.2,52
				c9.5,0,17.1-7.5,17.1-17S57.7,18,48.2,18s-17.1,7.6-17.1,17.1S38.7,52,48.2,52z"/>
			<path class="st1" d="M74.5,18c0-0.2,0.1-0.3,0.3-0.3h11.8c6.2,0,11.3,4.5,11.3,10.6c0,5.5-3.9,9.7-9.1,10.7l7.8,13
				c0.1,0.1,0.1,0.3,0,0.4l-0.4,0.2c-0.1,0-0.2,0-0.3-0.1L88,39.1c-0.4,0-0.8,0-1.3,0H75.4v12.9c0,0.2-0.1,0.3-0.3,0.3h-0.2
				c-0.2,0-0.3-0.1-0.3-0.3V18z M86.7,38.3c5.7,0,10.4-4.3,10.4-10c0-5.7-4.7-9.7-10.5-9.7H75.4v19.8H86.7z"/>
		</g>
	</g>
</g>
</svg>
