<?xml version="1.0" encoding="utf-8"?>
<!-- Generator: Adobe Illustrator 23.0.1, SVG Export Plug-In . SVG Version: 6.00 Build 0)  -->
<svg version="1.1" id="Layer_1" xmlns="http://www.w3.org/2000/svg" xmlns:xlink="http://www.w3.org/1999/xlink" x="0px" y="0px"
	 viewBox="0 0 941.1 157.6" style="enable-background:new 0 0 941.1 157.6;" xml:space="preserve">
<style type="text/css">
	.st0{enable-background:new    ;}
	.st1{fill:#FFFFFF;}
</style>
<title>fundraising</title>
<g>
	<g id="Layer_1-2">
		<g class="st0">
			<path class="st1" d="M15.4,22.5c0-0.6,0.4-1,1-1h58.2c0.6,0,1,0.4,1,1V23c0,0.6-0.4,1-1,1H18v47.8h49.8c0.6,0,1,0.4,1,1v0.6
				c0,0.6-0.4,1-1,1H18v46.2c0,0.6-0.4,1-1,1h-0.6c-0.6,0-1-0.4-1-1V22.5z"/>
			<path class="st1" d="M94.5,22.5c0-0.6,0.4-1,1-1h0.6c0.6,0,1,0.4,1,1v63.1c0,20.6,13,34.9,34.3,34.9c21.5,0,34.6-14.3,34.6-34.9
				V22.5c0-0.6,0.4-1,1-1h0.6c0.6,0,1,0.4,1,1v63.1c0,22-14.3,37.5-37.2,37.5c-22.7,0-36.9-15.4-36.9-37.5V22.5z"/>
			<path class="st1" d="M198.4,20c0-1,1.3-1.4,1.9-0.6l73.9,98.6V22.5c0-0.6,0.4-1,1-1h0.6c0.6,0,1,0.4,1,1v100.3
				c0,1-1.3,1.4-1.9,0.6L201,24.7v95.8c0,0.6-0.4,1-1,1h-0.6c-0.6,0-1-0.4-1-1V20z"/>
			<path class="st1" d="M307.7,22.5c0-0.6,0.4-1,0.9-1h28.6c27.9,0,50.5,22.3,50.5,49.9c0,27.9-22.6,50.2-50.5,50.2h-28.6
				c-0.4,0-0.9-0.4-0.9-1V22.5z M337.1,119c26.5,0,48.1-21.2,48.1-47.6c0-26.2-21.6-47.3-48.1-47.3h-27v95H337.1z"/>
			<path class="st1" d="M411.8,22.5c0-0.6,0.4-1,1-1h33.9c17.9,0,32.6,12.9,32.6,30.6c0,15.9-11.3,28-26,30.8l22.3,37.3
				c0.3,0.4,0.3,0.9-0.1,1.1l-1.3,0.7c-0.4,0.1-0.7-0.1-0.9-0.4l-22.7-38.3c-1.3,0.1-2.4,0.1-3.7,0.1h-32.6v37.2c0,0.6-0.4,1-0.9,1
				h-0.6c-0.6,0-1-0.4-1-1V22.5z M446.9,81c16.4,0,30-12.3,30-28.9c0-16.3-13.6-28-30.2-28h-32.5V81H446.9z"/>
			<path class="st1" d="M532.7,19c0.1-0.3,0.4-0.6,0.7-0.6h0.3c0.3,0,0.6,0.3,0.7,0.6l43.2,101.6c0.1,0.4,0,0.7-0.4,0.9l-1.3,0.4
				c-0.4,0.1-0.6-0.1-0.7-0.4l-12.7-29.9h-58.5L491,121.4c-0.1,0.3-0.3,0.6-0.7,0.4l-1.3-0.4c-0.4-0.1-0.6-0.4-0.4-0.9L532.7,19z
				 M561.3,89.1l-27.7-65.5l-28.5,65.5H561.3z"/>
			<path class="st1" d="M594,22.5c0-0.6,0.4-1,1-1h0.6c0.6,0,1,0.4,1,1v98.1c0,0.6-0.4,1-1,1H595c-0.6,0-1-0.4-1-1V22.5z"/>
			<path class="st1" d="M621.9,109.9l0.6-0.6c0.4-0.4,0.9-0.3,1.3,0.1c1.9,1.6,12.4,11,28.6,11c16,0,29-10.2,29-23.9
				c0-14.3-12.4-19.9-30.6-24.7c-17.3-4.7-29.9-10.2-29.9-26.7c0-11.6,8.7-25,31.2-25c14.3,0,24.7,7.3,24.7,7.3
				c0.4,0.3,0.6,0.7,0.3,1.1l-0.6,0.9c-0.3,0.4-0.6,0.6-1.1,0.3c0,0-10.2-7-23.3-7c-20.7,0-28.6,12-28.6,22.5
				c0,14.6,11.3,19.7,28,24.2c20,5.6,32.5,12,32.5,27.3c0,15-13.6,26.5-31.6,26.5c-17,0-28.6-10.2-30.5-11.9
				C621.5,110.7,621.5,110.3,621.9,109.9z"/>
			<path class="st1" d="M706.2,22.5c0-0.6,0.4-1,1-1h0.6c0.6,0,1,0.4,1,1v98.1c0,0.6-0.4,1-1,1h-0.6c-0.6,0-1-0.4-1-1V22.5z"/>
			<path class="st1" d="M739.6,20c0-1,1.3-1.4,1.9-0.6l73.9,98.6V22.5c0-0.6,0.4-1,1-1h0.6c0.6,0,1,0.4,1,1v100.3
				c0,1-1.3,1.4-1.9,0.6l-73.9-98.6v95.8c0,0.6-0.4,1-1,1h-0.6c-0.6,0-1-0.4-1-1V20z"/>
			<path class="st1" d="M894,20c14.6,0,25,5.1,34.8,13.3c0.3,0.3,0.4,0.7,0.1,1.1l-0.7,0.9c-0.4,0.4-0.9,0.3-1.1,0
				c-9.3-8-19.3-12.7-33-12.7c-27.3,0-49.3,21.7-49.3,49.1c0,27.3,22,48.8,49.3,48.8c19.2,0,30.8-7.4,33.6-9.9V77h-32.5
				c-0.6,0-1-0.4-1-1v-0.6c0-0.4,0.4-0.9,1-0.9h34c0.6,0,1,0.4,1,0.9v36.2c-1,1.6-13.6,11.4-36.2,11.4c-28.8,0-51.9-22.6-51.9-51.4
				C842.1,42.9,865.2,20,894,20z"/>
		</g>
	</g>
</g>
</svg>
