<?xml version="1.0" encoding="UTF-8" standalone="no"?><!DOCTYPE svg PUBLIC "-//W3C//DTD SVG 1.1//EN" "http://www.w3.org/Graphics/SVG/1.1/DTD/svg11.dtd"><svg width="690" height="97" viewBox="0 0 690 97" version="1.1" xmlns="http://www.w3.org/2000/svg" xmlns:xlink="http://www.w3.org/1999/xlink" xml:space="preserve" style="fill-rule:evenodd;clip-rule:evenodd;stroke-linejoin:round;stroke-miterlimit:1.41421;"><rect id="Artboard1" x="0" y="0" width="689.946" height="96.071" style="fill:none;"/><g><path d="M1.389,74.204c-0.214,1.389 0.748,2.351 2.03,2.351l12.609,0c1.069,0 1.924,-0.855 2.031,-1.71l4.701,-33.013l0.214,0l18.059,34.616c0.321,0.641 1.176,1.175 1.817,1.175l1.923,0c0.534,0 1.496,-0.534 1.817,-1.175l17.952,-34.616l0.214,0l4.808,33.014c0.107,0.854 1.069,1.709 2.03,1.709l12.61,0c1.282,0 2.244,-0.962 2.03,-2.351l-12.075,-71.795c-0.107,-0.962 -1.069,-1.71 -1.923,-1.71l-1.71,0c-0.534,0 -1.496,0.428 -1.817,1.069l-24.791,46.154l-0.213,0l-24.791,-46.154c-0.321,-0.641 -1.283,-1.069 -1.817,-1.069l-1.71,0c-0.855,0 -1.816,0.748 -1.923,1.71l-12.075,71.795l0,0Z" style="fill:#f3f6f6;fill-rule:nonzero;"/><path d="M92.539,76.555l11.754,0c2.137,0 3.313,-1.283 3.847,-2.565l3.847,-8.548l29.065,0l3.847,8.441c0.962,2.031 1.817,2.672 3.74,2.672l11.861,0c1.603,0 2.458,-1.389 1.817,-2.779l-33.447,-71.902c-0.32,-0.641 -1.068,-1.175 -1.816,-1.175l-1.069,0c-0.748,0 -1.496,0.534 -1.816,1.175l-33.447,71.902c-0.641,1.39 0.214,2.779 1.817,2.779Zm25.859,-25.633l8.015,-17.631l0.106,0l8.122,17.631l-16.243,0Z" style="fill:#f3f6f6;fill-rule:nonzero;"/><path d="M170.765,73.991c0,1.389 1.068,2.564 2.563,2.564l12.493,0c1.388,0 2.563,-1.175 2.563,-2.564l0,-31.411l24.684,33.12c0.213,0.427 1.175,0.855 1.923,0.855l14.747,0c2.03,0 3.205,-2.354 2.03,-3.959l-27.249,-35.093l25.005,-31.777c1.175,-1.605 0.107,-3.958 -1.924,-3.958l-13.464,0c-0.641,0 -1.603,0.535 -2.03,1.07l-23.722,30.064l0,-28.567c0,-1.39 -1.175,-2.567 -2.563,-2.567l-12.493,0c-1.495,0 -2.563,1.177 -2.563,2.567l0,69.656Z" style="fill:#f3f6f6;fill-rule:nonzero;"/><path d="M241.612,74.525c0,1.068 0.961,2.03 2.029,2.03l12.813,0c1.067,0 2.028,-0.962 2.028,-2.03l0,-70.727c0,-1.069 -0.961,-2.03 -2.028,-2.03l-12.813,0c-1.068,0 -2.029,0.961 -2.029,2.03l0,70.727Z" style="fill:#f3f6f6;fill-rule:nonzero;"/><path d="M275.379,74.525c0,1.068 0.961,2.03 2.029,2.03l12.706,0c1.174,0 2.029,-0.962 2.029,-2.03l0,-39.851l0.106,0l41.573,41.774c0.854,0.855 1.601,1.175 2.669,1.175l1.068,0c1.068,0 2.029,-0.641 2.029,-1.923l0,-71.902c0,-1.068 -0.961,-2.03 -2.029,-2.03l-12.813,0c-1.174,0 -2.029,0.962 -2.029,2.03l0,37.928l-0.106,0l-41.039,-39.424c-0.854,-0.855 -1.602,-1.603 -2.669,-1.603l-1.602,0c-1.068,0 -2.029,0.855 -2.029,1.924l0.107,71.902Z" style="fill:#f3f6f6;fill-rule:nonzero;"/><path d="M352.21,39.274c0,21.372 17.085,38.243 38.361,38.243c15.488,0 26.489,-6.941 26.489,-6.941c0.427,-0.32 0.854,-0.747 0.854,-1.708l-0.106,-28.74c0,-1.068 -0.855,-2.029 -1.923,-2.029l-21.467,0c-1.175,0 -2.029,0.854 -2.029,2.029l0,10.569c0,1.068 0.854,1.922 2.029,1.922l6.728,0l0,6.208c-3.204,1.284 -6.408,1.712 -9.506,1.712c-11.654,0 -21.171,-9.629 -21.171,-21.265c0,-11.761 9.41,-21.598 21.064,-21.598c5.235,0 9.934,1.39 13.992,5.133c0.855,0.641 2.03,0.641 2.884,-0.107l8.437,-8.977c0.855,-0.854 0.748,-2.135 -0.213,-2.882c-7.263,-6.3 -17.089,-10.037 -26.062,-10.037c-21.276,0 -38.361,17.084 -38.361,38.468l0,0Z" style="fill:#f3f6f6;fill-rule:nonzero;"/><path d="M466.655,74.524c0,1.069 0.961,2.031 2.029,2.031l12.812,0c1.068,0 2.029,-0.962 2.029,-2.031l0,-57.062l15.281,0c1.175,0 2.03,-0.961 2.03,-2.028l0,-11.638c0,-1.067 -0.855,-2.028 -2.03,-2.028l-47.432,0c-1.175,0 -2.03,0.961 -2.03,2.028l0,11.638c0,1.067 0.855,2.028 2.03,2.028l15.281,0l0,57.062Z" style="fill:#f3f6f6;fill-rule:nonzero;"/><path d="M512.07,74.525c0,1.068 0.961,2.03 2.028,2.03l12.813,0c1.068,0 2.029,-0.962 2.029,-2.03l0,-70.727c0,-1.069 -0.961,-2.03 -2.029,-2.03l-12.813,0c-1.067,0 -2.028,0.961 -2.028,2.03l0,70.727Z" style="fill:#f3f6f6;fill-rule:nonzero;"/><path d="M541.876,74.204c-0.213,1.389 0.748,2.351 2.031,2.351l12.609,0c1.068,0 1.923,-0.855 2.03,-1.71l4.702,-33.013l0.214,0l18.059,34.616c0.32,0.641 1.175,1.175 1.816,1.175l1.924,0c0.534,0 1.496,-0.534 1.816,-1.175l17.952,-34.616l0.214,0l4.809,33.014c0.106,0.854 1.068,1.709 2.03,1.709l12.609,0c1.282,0 2.244,-0.962 2.03,-2.351l-12.074,-71.795c-0.107,-0.962 -1.069,-1.71 -1.924,-1.71l-1.71,0c-0.534,0 -1.496,0.428 -1.816,1.069l-24.791,46.154l-0.214,0l-24.791,-46.154c-0.321,-0.641 -1.282,-1.069 -1.817,-1.069l-1.709,0c-0.855,0 -1.817,0.748 -1.924,1.71l-12.075,71.795l0,0Z" style="fill:#f3f6f6;fill-rule:nonzero;"/><path d="M639.658,74.526c0,1.068 0.854,2.029 2.029,2.029l44.227,0c1.176,0 2.03,-0.961 2.03,-2.029l0,-11.637c0,-1.068 -0.854,-2.029 -2.03,-2.029l-29.6,0l0,-14.439l24.364,0c1.069,0 2.03,-0.854 2.03,-2.029l0,-11.637c0,-1.068 -0.961,-2.029 -2.03,-2.029l-24.364,0l0,-13.264l29.6,0c1.176,0 2.03,-0.961 2.03,-2.028l0,-11.638c0,-1.067 -0.854,-2.028 -2.03,-2.028l-44.227,0c-1.175,0 -2.029,0.961 -2.029,2.028l0,70.73Z" style="fill:#f3f6f6;fill-rule:nonzero;"/></g></svg>
