<?xml version="1.0" encoding="UTF-8" standalone="no"?>
<!DOCTYPE svg PUBLIC "-//W3C//DTD SVG 1.1//EN" "http://www.w3.org/Graphics/SVG/1.1/DTD/svg11.dtd">
<svg width="100%" height="100%" viewBox="0 0 122 21" version="1.1" xmlns="http://www.w3.org/2000/svg" xmlns:xlink="http://www.w3.org/1999/xlink" xml:space="preserve" style="fill-rule:evenodd;clip-rule:evenodd;stroke-linejoin:round;stroke-miterlimit:1.41421;">
    <g transform="matrix(1,0,0,1,-390.13,-752.587)">
        <g transform="matrix(0.425045,0,0,0.425045,223.145,444.811)">
            <path d="M392.863,770.161C392.863,770.828 393.396,771.428 394.129,771.428L402.056,771.428C402.722,771.428 403.322,770.828 403.322,770.161L403.322,753.161L407.924,753.161L416.796,770.828C416.929,771.094 417.33,771.428 417.863,771.428L426.723,771.428C427.856,771.428 428.322,770.361 427.856,769.494L418.73,752.562C424.925,750.231 428.588,745.302 428.588,739.165C428.588,731.23 422.527,724.769 414.061,724.769L394.129,724.769C393.396,724.769 392.863,725.369 392.863,726.035L392.863,770.161ZM403.322,744.703L403.322,734.294L413.194,734.294C415.929,734.294 418.263,736.229 418.263,739.365C418.263,742.501 415.929,744.703 413.194,744.703L403.322,744.703Z" style="fill:white;fill-rule:nonzero;"/>
            <path d="M436.997,770.162C436.997,770.828 437.53,771.428 438.262,771.428L465.855,771.428C466.588,771.428 467.122,770.828 467.122,770.162L467.122,762.902C467.122,762.235 466.588,761.636 465.855,761.636L447.388,761.636L447.388,752.628L462.588,752.628C463.255,752.628 463.855,752.095 463.855,751.362L463.855,744.102C463.855,743.435 463.255,742.836 462.588,742.836L447.388,742.836L447.388,734.561L465.855,734.561C466.588,734.561 467.122,733.961 467.122,733.295L467.122,726.035C467.122,725.369 466.588,724.769 465.855,724.769L438.262,724.769C437.53,724.769 436.997,725.369 436.997,726.035L436.997,770.162Z" style="fill:white;fill-rule:nonzero;"/>
            <path d="M471.392,771.428L478.726,771.428C480.059,771.428 480.792,770.628 481.126,769.828L483.526,764.494L501.659,764.494L504.059,769.761C504.659,771.028 505.192,771.428 506.392,771.428L513.792,771.428C514.792,771.428 515.326,770.561 514.926,769.694L494.059,724.836C493.859,724.436 493.392,724.103 492.926,724.103L492.259,724.103C491.792,724.103 491.326,724.436 491.126,724.836L470.259,769.694C469.859,770.561 470.392,771.428 471.392,771.428ZM487.526,755.436L492.526,744.436L492.592,744.436L497.659,755.436L487.526,755.436Z" style="fill:white;fill-rule:nonzero;"/>
            <path d="M520.197,770.162C520.197,770.828 520.73,771.428 521.396,771.428L537.658,771.428C550.53,771.428 561.055,760.969 561.055,748.032C561.055,735.228 550.53,724.769 537.658,724.769L521.396,724.769C520.73,724.769 520.197,725.369 520.197,726.035L520.197,770.162ZM530.588,761.569L530.588,734.561L537.591,734.561C545.128,734.561 549.997,740.496 549.997,748.032C549.997,755.634 545.128,761.569 537.591,761.569L530.588,761.569Z" style="fill:white;fill-rule:nonzero;"/>
            <path d="M582.33,748.165C582.33,761.503 592.922,772.094 606.259,772.094C619.597,772.094 630.255,761.503 630.255,748.165C630.255,734.828 619.597,724.103 606.259,724.103C592.922,724.103 582.33,734.828 582.33,748.165ZM592.988,748.165C592.988,740.83 598.99,734.761 606.259,734.761C613.595,734.761 619.597,740.83 619.597,748.165C619.597,755.434 613.595,761.436 606.259,761.436C598.99,761.436 592.988,755.434 592.988,748.165Z" style="fill:white;fill-rule:nonzero;"/>
            <path d="M638.13,770.161C638.13,770.828 638.729,771.428 639.396,771.428L647.323,771.428C648.055,771.428 648.588,770.828 648.588,770.161L648.588,745.299L648.655,745.299L674.591,771.361C675.124,771.894 675.59,772.094 676.256,772.094L676.923,772.094C677.589,772.094 678.188,771.694 678.188,770.894L678.188,726.036C678.188,725.369 677.589,724.769 676.923,724.769L668.929,724.769C668.196,724.769 667.663,725.369 667.663,726.036L667.663,749.698L667.597,749.698L641.994,725.103C641.461,724.57 640.994,724.103 640.328,724.103L639.329,724.103C638.663,724.103 638.063,724.636 638.063,725.303L638.13,770.161Z" style="fill:white;fill-rule:nonzero;"/>
        </g>
    </g>
</svg>
