<?xml version="1.0" encoding="utf-8"?>
<!-- Generator: Adobe Illustrator 23.0.1, SVG Export Plug-In . SVG Version: 6.00 Build 0)  -->
<svg version="1.1" id="Layer_1" xmlns="http://www.w3.org/2000/svg" xmlns:xlink="http://www.w3.org/1999/xlink" x="0px" y="0px"
	 viewBox="0 0 800 167.8" style="enable-background:new 0 0 800 167.8;" xml:space="preserve">
<style type="text/css">
	.st0{enable-background:new    ;}
	.st1{fill:#FFFFFF;}
</style>
<title>theocean</title>
<g>
	<g id="Layer_1-2">
		<g class="st0">
			<path class="st1" d="M26.9,42.5H6.4c-1.6,0-2.7-1.3-2.7-2.7V24.2c0-1.4,1.1-2.7,2.7-2.7h63.5c1.6,0,2.7,1.3,2.7,2.7v15.6
				c0,1.4-1.1,2.7-2.7,2.7H49.5v76.4c0,1.4-1.3,2.7-2.7,2.7H29.6c-1.4,0-2.7-1.3-2.7-2.7V42.5z"/>
			<path class="st1" d="M87.7,24.2c0-1.4,1.3-2.7,2.7-2.7h17c1.6,0,2.7,1.3,2.7,2.7v36H151v-36c0-1.4,1.1-2.7,2.7-2.7h17
				c1.4,0,2.7,1.3,2.7,2.7v94.7c0,1.4-1.3,2.7-2.7,2.7h-17c-1.6,0-2.7-1.3-2.7-2.7V81.2h-40.9v37.6c0,1.4-1.1,2.7-2.7,2.7h-17
				c-1.4,0-2.7-1.3-2.7-2.7V24.2z"/>
			<path class="st1" d="M196.1,24.2c0-1.4,1.1-2.7,2.7-2.7H258c1.6,0,2.7,1.3,2.7,2.7v15.6c0,1.4-1.1,2.7-2.7,2.7h-39.6v17.7H251
				c1.4,0,2.7,1.3,2.7,2.7v15.6c0,1.6-1.3,2.7-2.7,2.7h-32.6v19.3H258c1.6,0,2.7,1.3,2.7,2.7v15.6c0,1.4-1.1,2.7-2.7,2.7h-59.2
				c-1.6,0-2.7-1.3-2.7-2.7V24.2z"/>
			<path class="st1" d="M358.7,20c28.6,0,51.5,23,51.5,51.6c0,28.6-22.9,51.4-51.5,51.4c-28.6,0-51.4-22.7-51.4-51.4
				C307.4,43.1,330.1,20,358.7,20z M358.7,100.1c15.7,0,28.6-12.9,28.6-28.5c0-15.7-12.9-28.8-28.6-28.8c-15.6,0-28.5,13-28.5,28.8
				C330.3,87.3,343.1,100.1,358.7,100.1z"/>
			<path class="st1" d="M473,20c14.3,0,24.9,4.4,34.6,13.3c1.3,1.1,1.3,2.9,0.1,4l-11.2,11.6c-1,1-2.6,1-3.6,0
				c-5.9-5.1-12.3-7.3-19.3-7.3c-16.2,0-28,13.4-28,29.5c0,15.9,12,29,28.2,29c7.9,0,14-2.4,19.2-6.9c1-0.9,2.9-0.9,3.7,0.1
				l11.2,11.9c1,1,0.9,2.9-0.1,3.9c-9.7,9.4-22,13.9-34.8,13.9c-28.6,0-51.6-22.7-51.6-51.4C421.4,43.1,444.4,20,473,20z"/>
			<path class="st1" d="M524.2,24.2c0-1.4,1.1-2.7,2.7-2.7h59.2c1.6,0,2.7,1.3,2.7,2.7v15.6c0,1.4-1.1,2.7-2.7,2.7h-39.6v17.7h32.6
				c1.4,0,2.7,1.3,2.7,2.7v15.6c0,1.6-1.3,2.7-2.7,2.7h-32.6v19.3h39.6c1.6,0,2.7,1.3,2.7,2.7v15.6c0,1.4-1.1,2.7-2.7,2.7H527
				c-1.6,0-2.7-1.3-2.7-2.7V24.2z"/>
			<path class="st1" d="M595.6,117.9l44.8-96.3c0.4-0.9,1.4-1.6,2.4-1.6h1.4c1,0,2,0.7,2.4,1.6l44.8,96.3c0.9,1.9-0.3,3.7-2.4,3.7
				h-15.9c-2.6,0-3.7-0.9-5-3.6l-5.1-11.3h-38.9l-5.1,11.4c-0.7,1.7-2.3,3.4-5.1,3.4H598C595.9,121.6,594.8,119.7,595.6,117.9z
				 M654.4,87.3l-10.9-23.6h-0.1l-10.7,23.6H654.4z"/>
			<path class="st1" d="M702.6,22.6c0-1.4,1.3-2.6,2.7-2.6h2.1c1.4,0,2.4,1,3.6,2.1L766,75h0.1V24.2c0-1.4,1.1-2.7,2.7-2.7H786
				c1.4,0,2.7,1.3,2.7,2.7v96.3c0,1.7-1.3,2.6-2.7,2.6h-1.4c-1.4,0-2.4-0.4-3.6-1.6l-55.6-55.9h-0.1v53.4c0,1.4-1.1,2.7-2.7,2.7h-17
				c-1.4,0-2.7-1.3-2.7-2.7L702.6,22.6z"/>
		</g>
	</g>
</g>
</svg>
