<?xml version="1.0" encoding="utf-8"?>
<!-- Generator: Adobe Illustrator 23.0.1, SVG Export Plug-In . SVG Version: 6.00 Build 0)  -->
<svg version="1.1" id="Layer_1" xmlns="http://www.w3.org/2000/svg" xmlns:xlink="http://www.w3.org/1999/xlink" x="0px" y="0px"
	 viewBox="0 0 843.8 167.8" style="enable-background:new 0 0 843.8 167.8;" xml:space="preserve">
<style type="text/css">
	.st0{enable-background:new    ;}
	.st1{fill:#FFFFFF;}
</style>
<title>toprotect</title>
<g>
	<g id="Layer_1-2">
		<g class="st0">
			<path class="st1" d="M26.9,42.5H6.4c-1.6,0-2.7-1.3-2.7-2.7V24.2c0-1.4,1.1-2.7,2.7-2.7h63.5c1.6,0,2.7,1.3,2.7,2.7v15.6
				c0,1.4-1.1,2.7-2.7,2.7H49.5v76.4c0,1.4-1.3,2.7-2.7,2.7H29.6c-1.4,0-2.7-1.3-2.7-2.7V42.5z"/>
		</g>
		<g class="st0">
			<path class="st1" d="M131.2,20c28.6,0,51.5,23,51.5,51.6c0,28.6-22.9,51.4-51.5,51.4c-28.6,0-51.3-22.7-51.3-51.4
				C79.8,43.1,102.6,20,131.2,20z M131.2,100.1c15.7,0,28.6-12.9,28.6-28.5c0-15.7-12.9-28.8-28.6-28.8c-15.6,0-28.5,13-28.5,28.8
				C102.7,87.3,115.6,100.1,131.2,100.1z"/>
			<path class="st1" d="M233.9,24.2c0-1.4,1.1-2.7,2.7-2.7h34.5c18.9,0,32,14.3,32,31.6c0,17.7-13.2,32.2-31.9,32.2h-15v33.6
				c0,1.4-1.3,2.7-2.7,2.7h-16.9c-1.6,0-2.7-1.3-2.7-2.7V24.2z M270.6,64.4c6.2,0,10.4-4.9,10.4-11.3c0-6-4.3-10.6-10.4-10.6h-14.4
				v21.9H270.6z"/>
			<path class="st1" d="M317.5,24.2c0-1.4,1.1-2.7,2.7-2.7H363c18.2,0,31.2,13.9,31.2,30.9c0,13.2-7.9,23.7-21.2,28.8l19.6,36.3
				c1,1.9,0,4.1-2.4,4.1h-19c-1.1,0-2-0.7-2.3-1.3l-19-37.9H340v36.5c0,1.4-1.3,2.7-2.7,2.7h-17c-1.6,0-2.7-1.3-2.7-2.7V24.2z
				 M361.2,64.2c5.9,0,10.9-4.7,10.9-11.4c0-6.7-5-10.9-10.9-10.9H340v22.3H361.2z"/>
		</g>
		<g class="st0">
			<path class="st1" d="M457.9,20c28.6,0,51.5,23,51.5,51.6c0,28.6-22.9,51.4-51.5,51.4c-28.6,0-51.3-22.7-51.3-51.4
				C406.5,43.1,429.3,20,457.9,20z M457.9,100.1c15.7,0,28.6-12.9,28.6-28.5c0-15.7-12.9-28.8-28.6-28.8c-15.6,0-28.5,13-28.5,28.8
				C429.4,87.3,442.3,100.1,457.9,100.1z"/>
		</g>
		<g class="st0">
			<path class="st1" d="M539.7,42.5h-20.5c-1.6,0-2.7-1.3-2.7-2.7V24.2c0-1.4,1.1-2.7,2.7-2.7h63.5c1.6,0,2.7,1.3,2.7,2.7v15.6
				c0,1.4-1.1,2.7-2.7,2.7h-20.5v76.4c0,1.4-1.3,2.7-2.7,2.7h-17.2c-1.4,0-2.7-1.3-2.7-2.7V42.5z"/>
		</g>
		<g class="st0">
			<path class="st1" d="M600.5,24.2c0-1.4,1.1-2.7,2.7-2.7h59.2c1.6,0,2.7,1.3,2.7,2.7v15.6c0,1.4-1.1,2.7-2.7,2.7h-39.6v17.7h32.6
				c1.4,0,2.7,1.3,2.7,2.7v15.6c0,1.6-1.3,2.7-2.7,2.7h-32.6v19.3h39.6c1.6,0,2.7,1.3,2.7,2.7v15.6c0,1.4-1.1,2.7-2.7,2.7h-59.2
				c-1.6,0-2.7-1.3-2.7-2.7V24.2z"/>
		</g>
		<g class="st0">
			<path class="st1" d="M727.5,20c14.3,0,24.9,4.4,34.6,13.3c1.3,1.1,1.3,2.9,0.1,4l-11.2,11.6c-1,1-2.6,1-3.6,0
				c-5.9-5.1-12.3-7.3-19.3-7.3c-16.2,0-28,13.4-28,29.5c0,15.9,12,29,28.2,29c7.9,0,14-2.4,19.2-6.9c1-0.9,2.9-0.9,3.7,0.1
				l11.2,11.9c1,1,0.9,2.9-0.1,3.9c-9.7,9.4-22,13.9-34.8,13.9c-28.6,0-51.6-22.7-51.6-51.4C675.9,43.1,698.9,20,727.5,20z"/>
			<path class="st1" d="M794.3,42.5h-20.5c-1.6,0-2.7-1.3-2.7-2.7V24.2c0-1.4,1.1-2.7,2.7-2.7h63.5c1.6,0,2.7,1.3,2.7,2.7v15.6
				c0,1.4-1.1,2.7-2.7,2.7h-20.5v76.4c0,1.4-1.3,2.7-2.7,2.7H797c-1.4,0-2.7-1.3-2.7-2.7V42.5z"/>
		</g>
	</g>
</g>
</svg>
