<?xml version="1.0" encoding="UTF-8" standalone="no"?><!DOCTYPE svg PUBLIC "-//W3C//DTD SVG 1.1//EN" "http://www.w3.org/Graphics/SVG/1.1/DTD/svg11.dtd"><svg width="682" height="81" viewBox="0 0 682 81" version="1.1" xmlns="http://www.w3.org/2000/svg" xmlns:xlink="http://www.w3.org/1999/xlink" xml:space="preserve" style="fill-rule:evenodd;clip-rule:evenodd;stroke-linejoin:round;stroke-miterlimit:1.41421;"><g><path d="M8.771,35.965c0.086,0.301 0.515,0.301 0.601,0l7.896,-29.011l8.283,29.011c0.086,0.301 0.515,0.301 0.601,0l8.454,-30.256c0.043,-0.128 0,-0.214 -0.128,-0.257l-0.344,-0.129c-0.128,-0.043 -0.214,0 -0.257,0.129l-8.025,28.625l-8.283,-29.011c-0.086,-0.301 -0.515,-0.301 -0.601,0l-7.897,29.054l-8.325,-28.668c-0.043,-0.129 -0.129,-0.172 -0.258,-0.129l-0.343,0.129c-0.129,0.043 -0.172,0.129 -0.129,0.257l8.755,30.256Z" style="fill:#f3f6f6;fill-rule:nonzero;"/><path d="M40.66,35.147c0,0.172 0.128,0.301 0.299,0.301l0.17,0c0.171,0 0.298,-0.129 0.298,-0.301l0,-29.435c0,-0.171 -0.127,-0.3 -0.298,-0.3l-0.17,0c-0.171,0 -0.299,0.129 -0.299,0.3l0,29.435Z" style="fill:#f3f6f6;fill-rule:nonzero;"/><path d="M56.325,35.147c0,0.172 0.128,0.301 0.298,0.301l0.17,0c0.171,0 0.299,-0.129 0.299,-0.301l0,-28.968l9.012,0c0.172,0 0.301,-0.128 0.301,-0.299l0,-0.17c0,-0.171 -0.129,-0.298 -0.301,-0.298l-18.706,0c-0.172,0 -0.3,0.127 -0.3,0.298l0,0.17c0,0.171 0.128,0.299 0.3,0.299l8.927,0l0,28.968Z" style="fill:#f3f6f6;fill-rule:nonzero;"/><path d="M72.075,35.147c0,0.172 0.128,0.301 0.298,0.301l0.171,0c0.17,0 0.298,-0.129 0.298,-0.301l0,-14.935l21.12,0l0,14.935c0,0.172 0.128,0.301 0.298,0.301l0.171,0c0.17,0 0.298,-0.129 0.298,-0.301l0,-29.435c0,-0.172 -0.128,-0.3 -0.298,-0.3l-0.171,0c-0.17,0 -0.298,0.128 -0.298,0.3l0,13.733l-21.12,0l0,-13.733c0,-0.172 -0.128,-0.3 -0.298,-0.3l-0.171,0c-0.17,0 -0.298,0.128 -0.298,0.3l0,29.435Z" style="fill:#f3f6f6;fill-rule:nonzero;"/></g><g><path d="M87.53,70.91c1.843,2.386 7.156,8.336 16.806,8.336c13.011,0 20.153,-8.444 20.153,-23.732l0,-52.478c0,-0.434 -0.323,-0.759 -0.753,-0.759l-0.323,0c-0.431,0 -0.753,0.325 -0.753,0.759l0,52.478c0,14.312 -6.398,21.794 -18.324,21.794c-8.783,0 -13.662,-5.313 -15.397,-7.482c-0.217,-0.325 -0.542,-0.433 -0.867,-0.217l-0.434,0.326c-0.434,0.325 -0.325,0.65 -0.108,0.975Z" style="fill:#f3f6f6;fill-rule:nonzero;"/><path d="M135.23,77.402c-0.108,0.326 0,0.543 0.325,0.651l0.976,0.325c0.326,0.109 0.434,-0.108 0.542,-0.325l9.759,-22.661l44.346,0l9.65,22.661c0.108,0.217 0.217,0.434 0.542,0.325l0.976,-0.325c0.325,-0.108 0.433,-0.325 0.325,-0.651l-32.745,-76.968c-0.108,-0.217 -0.325,-0.434 -0.542,-0.434l-0.217,0c-0.216,0 -0.433,0.217 -0.542,0.434l-33.395,76.968Zm12.469,-23.84l21.577,-49.659l21.034,49.659l-42.611,0Z" style="fill:#f3f6f6;fill-rule:nonzero;"/><path d="M233.139,79.903c0.325,0.651 0.975,0.651 1.301,0l33.395,-76.874c0.108,-0.325 0,-0.542 -0.325,-0.65l-0.976,-0.326c-0.325,-0.108 -0.434,0.109 -0.542,0.326l-32.203,74.054l-31.443,-74.054c-0.109,-0.217 -0.217,-0.434 -0.542,-0.326l-0.976,0.326c-0.326,0.108 -0.434,0.325 -0.326,0.65l32.637,76.874Z" style="fill:#f3f6f6;fill-rule:nonzero;"/><path d="M265.016,77.402c-0.109,0.326 0,0.543 0.325,0.651l0.976,0.325c0.325,0.109 0.434,-0.108 0.542,-0.325l9.758,-22.661l44.347,0l9.649,22.661c0.109,0.217 0.217,0.434 0.543,0.325l0.975,-0.325c0.326,-0.108 0.434,-0.325 0.326,-0.651l-32.745,-76.968c-0.108,-0.217 -0.325,-0.434 -0.542,-0.434l-0.217,0c-0.217,0 -0.434,0.217 -0.542,0.434l-33.395,76.968Zm12.469,-23.84l21.577,-49.659l21.034,49.659l-42.611,0Z" style="fill:#f3f6f6;fill-rule:nonzero;"/><path d="M340.699,70.259c1.401,1.301 10.186,8.987 23.093,8.987c13.665,0 23.955,-8.662 23.955,-20.049c0,-11.604 -9.422,-16.484 -24.606,-20.713c-12.69,-3.362 -21.258,-7.266 -21.258,-18.327c0,-7.917 5.965,-17.026 21.692,-17.026c9.978,0 17.679,5.314 17.679,5.314c0.433,0.216 0.65,0.108 0.867,-0.217l0.434,-0.651c0.217,-0.325 0.108,-0.651 -0.217,-0.868c0,0 -7.917,-5.516 -18.763,-5.516c-17.028,0 -23.63,10.18 -23.63,18.964c0,12.579 9.53,16.7 22.654,20.279c13.774,3.687 23.21,7.917 23.21,18.761c0,10.411 -9.87,18.111 -22.017,18.111c-12.256,0 -20.282,-7.158 -21.692,-8.351c-0.325,-0.325 -0.648,-0.433 -0.971,-0.108l-0.43,0.434c-0.323,0.325 -0.323,0.65 0,0.976Z" style="fill:#f3f6f6;fill-rule:nonzero;"/><path d="M399.362,40.328c0,21.797 17.552,38.918 39.345,38.918c9.65,0 18.975,-3.457 26.456,-10.614c0.217,-0.217 0.217,-0.542 0,-0.759l-0.542,-0.651c-0.217,-0.325 -0.651,-0.217 -0.867,0c-7.265,6.615 -15.831,10.086 -25.047,10.086c-20.709,0 -37.407,-16.267 -37.407,-36.98c0,-20.713 16.698,-37.197 37.407,-37.197c10.409,0 17.999,3.578 25.047,9.651c0.216,0.217 0.542,0.326 0.867,0l0.542,-0.65c0.217,-0.326 0.109,-0.651 -0.108,-0.868c-7.373,-6.181 -15.288,-10.071 -26.348,-10.071c-21.793,0 -39.345,17.337 -39.345,39.135Z" style="fill:#f3f6f6;fill-rule:nonzero;"/><path d="M483.067,77.402c0,0.434 0.323,0.759 0.753,0.759l0.431,0c0.323,0 0.646,-0.325 0.646,-0.759l0,-28.19l24.728,0c0.976,0 1.844,0 2.82,-0.108l17.244,29.057c0.109,0.217 0.326,0.434 0.651,0.326l0.976,-0.542c0.326,-0.217 0.326,-0.543 0.109,-0.868l-16.92,-28.296c11.171,-2.05 19.725,-11.269 19.725,-23.308c0,-13.449 -11.156,-23.196 -24.714,-23.196l-25.696,0c-0.43,0 -0.753,0.323 -0.753,0.754l0,74.371Zm1.83,-30.02l0,-43.167l24.619,0c12.581,0 22.885,8.894 22.885,21.258c0,12.581 -10.304,21.909 -22.776,21.909l-24.728,0Z" style="fill:#f3f6f6;fill-rule:nonzero;"/><path d="M552.568,77.403c0,0.433 0.323,0.758 0.754,0.758l0.43,0c0.431,0 0.754,-0.325 0.754,-0.758l0,-74.367c0,-0.433 -0.323,-0.759 -0.754,-0.759l-0.43,0c-0.431,0 -0.754,0.326 -0.754,0.759l0,74.367Z" style="fill:#f3f6f6;fill-rule:nonzero;"/><path d="M577.939,77.402c0,0.434 0.323,0.759 0.754,0.759l0.431,0c0.431,0 0.754,-0.325 0.754,-0.759l0,-25.805l21.474,0c13.558,0 24.715,-11.157 24.715,-24.823c0,-13.449 -11.157,-24.497 -24.823,-24.497l-22.551,0c-0.431,0 -0.754,0.323 -0.754,0.754l0,74.371Zm1.939,-27.743l0,-45.444l21.366,0c12.581,0 22.885,10.195 22.885,22.559c0,12.581 -10.304,22.885 -22.777,22.885l-21.474,0Z" style="fill:#f3f6f6;fill-rule:nonzero;"/><path d="M656.331,77.402c0,0.434 0.323,0.759 0.754,0.759l0.431,0c0.43,0 0.753,-0.325 0.753,-0.759l0,-73.187l22.77,0c0.434,0 0.759,-0.323 0.759,-0.754l0,-0.43c0,-0.431 -0.325,-0.754 -0.759,-0.754l-47.26,0c-0.434,0 -0.759,0.323 -0.759,0.754l0,0.43c0,0.431 0.325,0.754 0.759,0.754l22.552,0l0,73.187Z" style="fill:#f3f6f6;fill-rule:nonzero;"/></g></svg>
