<?xml version="1.0" encoding="utf-8"?>
<!-- Generator: Adobe Illustrator 21.1.0, SVG Export Plug-In . SVG Version: 6.00 Build 0)  -->
<svg version="1.1" id="Layer_1" xmlns="http://www.w3.org/2000/svg" xmlns:xlink="http://www.w3.org/1999/xlink" x="0px" y="0px"
	 viewBox="0 0 100 100" style="enable-background:new 0 0 100 100;" xml:space="preserve">
<style type="text/css">
	.st0{fill:#6FAA11;}
</style>
<path class="st0" d="M95.6,28.3c1.3,0,2.4-1.1,2.4-2.4s-1.1-2.4-2.4-2.4h-8.5v-0.3c0-5.7-4.6-10.3-10.3-10.3l0,0V4.4
	c0-1.3-1.1-2.4-2.4-2.4C73,2,72,3.1,72,4.4v8.5h-7.4V4.4c0-1.3-1.1-2.4-2.4-2.4c-1.3,0-2.4,1.1-2.4,2.4v8.5h-7.4V4.4
	C52.4,3.1,51.3,2,50,2s-2.4,1.1-2.4,2.4v8.5h-7.4V4.4c0-1.3-1.1-2.4-2.4-2.4s-2.4,1.1-2.4,2.4v8.5H28V4.4C28,3.1,27,2,25.6,2
	c-1.3,0-2.4,1.1-2.4,2.4v8.5l0,0c-5.7,0-10.3,4.6-10.3,10.3v0.3H4.4c-1.3,0-2.4,1.1-2.4,2.4s1.1,2.4,2.4,2.4h8.5v7.4H4.4
	c-1.3,0-2.4,1.1-2.4,2.4s1.1,2.4,2.4,2.4h8.5v7.4H4.4C3.1,47.9,2,49,2,50.3s1.1,2.4,2.4,2.4h8.5V60H4.4C3.1,60,2,61.1,2,62.4
	s1.1,2.4,2.4,2.4h8.5v7.4H4.4c-1.3,0-2.4,1.1-2.4,2.4C2,75.9,3.1,77,4.4,77h8.5c0.1,5.6,4.7,10.1,10.3,10.1l0,0v8.5
	c0,1.3,1.1,2.4,2.4,2.4s2.4-1.1,2.4-2.4v-8.5h7.4v8.5c0,1.3,1.1,2.4,2.4,2.4s2.4-1.1,2.4-2.4v-8.5h7.4v8.5c0,1.3,1.1,2.4,2.4,2.4
	s2.4-1.1,2.4-2.4v-8.5h7.4v8.5c0,1.3,1.1,2.4,2.4,2.4c1.3,0,2.4-1.1,2.4-2.4v-8.5H72v8.5c0,1.3,1.1,2.4,2.4,2.4s2.4-1.1,2.4-2.4
	v-8.5l0,0c5.6,0,10.2-4.5,10.3-10.1h8.5c1.3,0,2.4-1.1,2.4-2.4s-1.1-2.4-2.4-2.4h-8.5v-7.4h8.5c1.3,0,2.4-1.1,2.4-2.4
	c0-1.3-1.1-2.4-2.4-2.4h-8.5v-7.4h8.5c1.3,0,2.4-1.1,2.4-2.4s-1.1-2.4-2.4-2.4h-8.5v-7.4h8.5c1.3,0,2.4-1.1,2.4-2.4
	s-1.1-2.4-2.4-2.4h-8.5v-7.4L95.6,28.3L95.6,28.3z M82.3,76.8c0,3.1-2.5,5.6-5.6,5.6H23.2c-3.1,0-5.6-2.5-5.6-5.6V23.2
	c0-3.1,2.5-5.6,5.6-5.6h53.6c3.1,0,5.6,2.5,5.6,5.6L82.3,76.8L82.3,76.8z"/>
<path class="st0" d="M72.2,21.2H27.8c-3.6,0-6.6,2.9-6.6,6.6v44.4c0,3.6,2.9,6.6,6.6,6.6h44.4c3.6,0,6.6-2.9,6.6-6.6V27.8
	C78.8,24.2,75.8,21.2,72.2,21.2z M38.2,38.1c0-0.3,0.2-0.5,0.5-0.5h3.4c0.3,0,0.5,0.2,0.5,0.5v3.4c0,0.3-0.2,0.5-0.5,0.5h-3.4
	c-0.3,0-0.5-0.2-0.5-0.5V38.1z M38.2,44.9c0-0.3,0.2-0.5,0.5-0.5h3.4c0.3,0,0.5,0.2,0.5,0.5v3.4c0,0.3-0.2,0.5-0.5,0.5h-3.4
	c-0.3,0-0.5-0.2-0.5-0.5V44.9z M42.6,61.9c0,0.3-0.2,0.5-0.5,0.5h-3.4c-0.3,0-0.5-0.2-0.5-0.5v-3.4c0-0.3,0.2-0.5,0.5-0.5h3.4
	c0.3,0,0.5,0.2,0.5,0.5V61.9z M42.6,55.1c0,0.3-0.2,0.5-0.5,0.5h-3.4c-0.3,0-0.5-0.2-0.5-0.5v-3.4c0-0.3,0.2-0.5,0.5-0.5h3.4
	c0.3,0,0.5,0.2,0.5,0.5V55.1z M44.6,44.9c0-0.3,0.2-0.5,0.5-0.5h3.4c0.3,0,0.5,0.2,0.5,0.5v3.4c0,0.3-0.2,0.5-0.5,0.5h-3.4
	c-0.3,0-0.5-0.2-0.5-0.5V44.9z M49,61.9c0,0.3-0.2,0.5-0.5,0.5h-3.4c-0.3,0-0.5-0.2-0.5-0.5v-3.4c0-0.3,0.2-0.5,0.5-0.5h3.4
	c0.3,0,0.5,0.2,0.5,0.5V61.9z M49,55.1c0,0.3-0.2,0.5-0.5,0.5h-3.4c-0.3,0-0.5-0.2-0.5-0.5v-3.4c0-0.3,0.2-0.5,0.5-0.5h3.4
	c0.3,0,0.5,0.2,0.5,0.5V55.1z M49.1,41.5c0,0.3-0.2,0.5-0.5,0.5h-3.4c-0.3,0-0.5-0.2-0.5-0.5v-3.4c0-0.3,0.2-0.5,0.5-0.5h3.4
	c0.3,0,0.5,0.2,0.5,0.5V41.5z M51,44.9c0-0.3,0.2-0.5,0.5-0.5h3.4c0.3,0,0.5,0.2,0.5,0.5v3.4c0,0.3-0.2,0.5-0.5,0.5h-3.4
	c-0.3,0-0.5-0.2-0.5-0.5V44.9z M55.4,61.9c0,0.3-0.2,0.5-0.5,0.5h-3.4c-0.3,0-0.5-0.2-0.5-0.5v-3.4c0-0.3,0.2-0.5,0.5-0.5h3.4
	c0.3,0,0.5,0.2,0.5,0.5V61.9z M55.4,55.1c0,0.3-0.2,0.5-0.5,0.5h-3.4c-0.3,0-0.5-0.2-0.5-0.5v-3.4c0-0.3,0.2-0.5,0.5-0.5h3.4
	c0.3,0,0.5,0.2,0.5,0.5V55.1z M55.4,41.5c0,0.3-0.2,0.5-0.5,0.5h-3.4c-0.3,0-0.5-0.2-0.5-0.5v-3.4c0-0.3,0.2-0.5,0.5-0.5h3.4
	c0.3,0,0.5,0.2,0.5,0.5V41.5z M57.4,44.9c0-0.3,0.2-0.5,0.5-0.5h3.4c0.3,0,0.5,0.2,0.5,0.5v3.4c0,0.3-0.2,0.5-0.5,0.5h-3.4
	c-0.3,0-0.5-0.2-0.5-0.5V44.9z M61.8,61.9c0,0.3-0.2,0.5-0.5,0.5h-3.4c-0.3,0-0.5-0.2-0.5-0.5v-3.4c0-0.3,0.2-0.5,0.5-0.5h3.4
	c0.3,0,0.5,0.2,0.5,0.5V61.9z M61.8,55.1c0,0.3-0.2,0.5-0.5,0.5h-3.4c-0.3,0-0.5-0.2-0.5-0.5v-3.4c0-0.3,0.2-0.5,0.5-0.5h3.4
	c0.3,0,0.5,0.2,0.5,0.5V55.1z M61.8,41.5c0,0.3-0.2,0.5-0.5,0.5h-3.4c-0.3,0-0.5-0.2-0.5-0.5v-3.4c0-0.3,0.2-0.5,0.5-0.5h3.4
	c0.3,0,0.5,0.2,0.5,0.5V41.5z"/>
</svg>
