<?xml version="1.0" encoding="utf-8"?>
<!-- Generator: Adobe Illustrator 21.1.0, SVG Export Plug-In . SVG Version: 6.00 Build 0)  -->
<svg version="1.1" id="Layer_1" xmlns="http://www.w3.org/2000/svg" xmlns:xlink="http://www.w3.org/1999/xlink" x="0px" y="0px"
	 viewBox="0 0 100 100" style="enable-background:new 0 0 100 100;" xml:space="preserve">
<style type="text/css">
	.st0{fill:#0071BC;}
</style>
<g transform="matrix( 1, 0, 0, 1, 0,0) ">
	<g>
		<g id="a">
			<path class="st0" d="M63.9,14.9c0,1.5,0.4,2.6,1.1,3.3c0.7,0.7,2.2,1.2,4.5,1.5c1.7,0.3,2.9,0.8,3.6,1.5s1.1,1.8,1.1,3.3v9.7
				c0,4.6,0.5,7.9,1.4,10.1c1,2.1,2.5,3.9,4.7,5.3c-2.3,1.5-3.8,3.2-4.7,5.2c-0.9,2-1.4,5.4-1.4,10.3v9.2c0,1.6-0.3,2.8-0.9,3.6
				c-0.7,0.7-2,1.2-3.8,1.5c-2.3,0.3-3.8,0.9-4.5,1.6s-1.1,1.8-1.1,3.3s0.5,2.7,1.5,3.6c0.9,0.8,2.2,1.3,4,1.3c2.4,0,4.8-0.5,7-1.4
				c2.3-0.9,4-2.1,5.2-3.5c1.1-1.4,1.8-3,2.3-4.8c0.5-1.9,0.7-5.2,0.7-10.1v-5.3c0-5.4,2.2-8.5,6.5-9.3l2-0.4
				c1.3-0.3,2.3-0.8,2.9-1.6c0.7-0.8,1-1.8,1-3.2c0-1.3-0.3-2.3-0.8-3.1c-0.6-0.8-1.6-1.4-2.9-1.7L91,44.4c-4.2-0.8-6.4-3.9-6.4-9.2
				v-5.4c0-5.1-0.3-8.7-0.8-10.8c-0.6-2-1.7-3.7-3.2-5.1c-1.3-1.2-2.9-2.2-4.9-2.9c-1.9-0.7-4-1-6.3-1c-1.8,0-3.1,0.4-4,1.3
				C64.4,12.1,63.9,13.3,63.9,14.9 M35.1,14.5c0-1.4-0.5-2.5-1.4-3.3c-1-0.8-2.3-1.3-3.9-1.3c-2.6,0-5,0.5-7.1,1.4
				c-2.1,0.8-3.9,2.1-5.2,3.6c-1.1,1.4-1.8,3.1-2.3,4.9c-0.5,1.9-0.8,5.1-0.8,9.8V35c0,5.3-2,8.3-6,9.1l-2.5,0.6
				C4.6,45,3.6,45.6,3,46.4c-0.7,0.8-1,1.9-1,3.2c0,1.5,0.4,2.6,1.1,3.4c0.7,0.8,1.8,1.3,3.2,1.6c0.2,0,0.3,0,0.5,0.1
				c5,0.8,7.5,4,7.5,9.5v5.3c0,5.1,0.3,8.7,0.9,10.7c0.6,2.1,1.6,3.8,3.1,5.1c1.3,1.2,3,2.2,5,3c2,0.7,4,1,6.2,1
				c1.7,0,3.1-0.4,4.1-1.3c1-0.8,1.4-2,1.4-3.4c0-2.9-1.7-4.6-5.2-5.1l-1.5-0.3c-1.4-0.3-2.3-0.8-2.8-1.6c-0.5-0.8-0.8-2.7-0.8-5.7
				V65c0-4.9-0.5-8.3-1.4-10.3s-2.5-3.7-4.8-5.2c2.3-1.4,3.9-3.2,4.8-5.3s1.4-5.5,1.4-10.1v-6.8c0-3.1,0.3-5,0.8-5.9
				c0.6-0.9,1.6-1.5,3.1-1.7c0.3-0.1,0.5-0.1,0.8-0.2C33.2,19.1,35.1,17.4,35.1,14.5z"/>
		</g>
	</g>
</g>
</svg>
