<?xml version="1.0" encoding="utf-8"?>
<!-- Generator: Adobe Illustrator 21.1.0, SVG Export Plug-In . SVG Version: 6.00 Build 0)  -->
<svg version="1.1" id="Layer_1" xmlns="http://www.w3.org/2000/svg" xmlns:xlink="http://www.w3.org/1999/xlink" x="0px" y="0px"
	 viewBox="0 0 24 24" style="enable-background:new 0 0 24 24;" xml:space="preserve">
<style type="text/css">
	.st0{fill:#F7931E;}
</style>
<circle class="st0" cx="2.4" cy="5.6" r="1.9"/>
<path class="st0" d="M10.1,7.5h11.5c1.1,0,1.9-0.9,1.9-1.9s-0.9-1.9-1.9-1.9H10.1C9,3.7,8.2,4.6,8.2,5.6S9,7.5,10.1,7.5z"/>
<circle class="st0" cx="2.4" cy="12" r="1.9"/>
<path class="st0" d="M21.6,10.1H10.1C9,10.1,8.2,11,8.2,12s0.9,1.9,1.9,1.9h11.5c1.1,0,1.9-0.9,1.9-1.9S22.6,10.1,21.6,10.1z"/>
<circle class="st0" cx="2.4" cy="18.4" r="1.9"/>
<path class="st0" d="M21.6,16.5H10.1c-1.1,0-1.9,0.9-1.9,1.9s0.9,1.9,1.9,1.9h11.5c1.1,0,1.9-0.9,1.9-1.9S22.6,16.5,21.6,16.5z"/>
</svg>
