<?xml version="1.0" encoding="utf-8"?>
<!-- Generator: Adobe Illustrator 21.1.0, SVG Export Plug-In . SVG Version: 6.00 Build 0)  -->
<svg version="1.1" id="Layer_1" xmlns="http://www.w3.org/2000/svg" xmlns:xlink="http://www.w3.org/1999/xlink" x="0px" y="0px"
	 viewBox="0 0 100 100" style="enable-background:new 0 0 100 100;" xml:space="preserve">
<style type="text/css">
	.st0{fill:#E2431E;}
</style>
<title>Artboard 144</title>
<path class="st0" d="M71.7,3c-6.8,0-12.3,5.6-12.3,12.4c0,5.8,4,10.7,9.6,12v9c0,4.5-3.7,8.1-8.2,8.2H40.3c-2.9,0-5.8,0.9-8.2,2.7
	V27.5c6.7-1.5,10.9-8.1,9.4-14.8C40.1,6,33.4,1.8,26.8,3.3s-10.9,8.1-9.4,14.8c1,4.7,4.7,8.3,9.4,9.4v46.7
	c-6.7,1.5-10.9,8.1-9.4,14.8c1.5,6.7,8.1,10.9,14.8,9.4s10.9-8.1,9.4-14.8c-1-4.7-4.7-8.3-9.4-9.4v-16c0-4.5,3.7-8.1,8.2-8.2h20.5
	c7.5,0,13.5-6.1,13.5-13.5v-9c6.7-1.5,10.8-8.2,9.3-14.8C82.4,7,77.4,3,71.7,3z M36.4,86.2c0,3.9-3.1,7-7,7s-7-3.1-7-7s3.1-7,7-7
	l0,0C33.3,79.2,36.4,82.4,36.4,86.2z M29.5,22.4c-3.9,0-7-3.1-7-7s3.1-7,7-7s7,3.1,7,7S33.3,22.4,29.5,22.4L29.5,22.4z M71.7,22.4
	c-3.9,0-7-3.1-7-7s3.1-7,7-7s7,3.1,7,7l0,0C78.7,19.2,75.5,22.4,71.7,22.4L71.7,22.4z"/>
</svg>
