<?xml version="1.0" encoding="utf-8"?>
<!-- Generator: Adobe Illustrator 21.1.0, SVG Export Plug-In . SVG Version: 6.00 Build 0)  -->
<svg version="1.1" id="Layer_1" xmlns="http://www.w3.org/2000/svg" xmlns:xlink="http://www.w3.org/1999/xlink" x="0px" y="0px"
	 viewBox="0 0 100 100" style="enable-background:new 0 0 100 100;" xml:space="preserve">
<style type="text/css">
	.st0{fill:#10A3D9;}
</style>
<g>
	<g>
		<path class="st0" d="M94.9,40.3V73c0,8.2-6.6,15-15,15H20.1c-8.3-0.1-15-6.8-15-15V40.3c0-8.3,6.7-15,15-15h20.1L33.8,19
			c-1.6-1.6-1.6-4.2,0-5.8c1.6-1.6,4.1-1.6,5.8,0l13.3,13.3c0.8,0.7,1.2,1.7,1.2,2.9c0,1.1-0.4,2.1-1.2,2.9L39.6,45.6
			c-1.6,1.6-4.2,1.6-5.8,0c-1.6-1.6-1.6-4.1,0-5.8l6.3-6.3H20.1c-1.9,0-3.5,0.8-4.8,2s-2,2.9-2,4.8V73c0,1.9,0.8,3.5,2,4.8
			c1.3,1.3,2.9,2,4.8,2h59.9c3.8,0,6.8-3.1,6.8-6.8V40.3c0-3.8-3-6.8-6.8-6.8H65.1c-2.3,0-4.1-1.9-4.1-4.1c0-2.3,1.8-4.1,4.1-4.1
			h14.9C88.3,25.4,94.9,32.1,94.9,40.3z"/>
	</g>
</g>
</svg>
