<?xml version="1.0" encoding="utf-8"?>
<!-- Generator: Adobe Illustrator 21.1.0, SVG Export Plug-In . SVG Version: 6.00 Build 0)  -->
<svg version="1.1" id="Layer_1" xmlns="http://www.w3.org/2000/svg" xmlns:xlink="http://www.w3.org/1999/xlink" x="0px" y="0px"
	 viewBox="0 0 44 44" style="enable-background:new 0 0 44 44;" xml:space="preserve">
<style type="text/css">
	.st0{fill:#049100;}
</style>
<title>id</title>
<g>
	<path class="st0" d="M34.9,4.3L34.9,4.3 M31.7,0.9c-1.6,0-3,1.2-3.1,2.8L25,39.6c-0.2,1.8,1.1,3.3,2.9,3.5s3.3-1.1,3.5-2.9l0,0
		L35,4.3c0.2-1.7-1.1-3.3-2.8-3.4C32,0.9,31.9,0.9,31.7,0.9z"/>
	<path class="st0" d="M18,4.3L18,4.3 M14.8,0.9c-1.6,0-3,1.2-3.1,2.8L8.1,39.6c-0.2,1.8,1.1,3.3,2.9,3.5s3.3-1.1,3.5-2.9L18,4.3
		c0.2-1.7-1.1-3.3-2.8-3.4C15.1,0.9,15,0.9,14.8,0.9z"/>
	<path class="st0" d="M38.4,9.3H6.7c-1.7,0-3.2,1.4-3.2,3.1l0,0l0,0c0,1.7,1.4,3.2,3.1,3.2l0,0h31.7c1.7,0,3.2-1.4,3.2-3.1l0,0l0,0
		C41.6,10.8,40.2,9.3,38.4,9.3L38.4,9.3z"/>
	<path class="st0" d="M36.3,28.3H4.6c-1.7,0-3.2,1.4-3.2,3.1l0,0l0,0c0,1.7,1.4,3.2,3.1,3.2l0,0h31.7c1.7,0,3.2-1.4,3.2-3.1l0,0l0,0
		C39.5,29.8,38.1,28.4,36.3,28.3L36.3,28.3z"/>
</g>
</svg>
