<svg xmlns="http://www.w3.org/2000/svg" viewBox="0 0 18.99 18.98"><defs><style>.cls-1{fill:#fff;}</style></defs><title>info</title><g id="Layer_2" data-name="Layer 2"><g id="Nav"><path class="cls-1" d="M9.16,19A9.49,9.49,0,1,1,19,9.66,9.5,9.5,0,0,1,9.16,19ZM1.06,9.49A8.44,8.44,0,1,0,9.5,1.06,8.44,8.44,0,0,0,1.06,9.49Z"/><path class="cls-1" d="M10.29,14.81c-1.54,0-1.54-1.48-1.54-2V8.76a.75.75,0,1,1,1.5,0v4.09a3.54,3.54,0,0,0,0,.46.79.79,0,0,1,.73.75A.72.72,0,0,1,10.29,14.81Zm0-1.44h0Z"/><path class="cls-1" d="M9.46,7a1,1,0,0,1-1-1,1,1,0,0,1,1.09-1,1.05,1.05,0,0,1,1,1A1,1,0,0,1,9.46,7Z"/></g></g></svg>