<svg xmlns="http://www.w3.org/2000/svg" viewBox="0 0 22 17.53"><defs><style>.cls-1{fill:#fff;}</style></defs><title>Asset 1</title><g id="Layer_2" data-name="Layer 2"><g id="Nav"><path class="cls-1" d="M6.71,2.26a8.7,8.7,0,0,1,.13-1.07A1.5,1.5,0,0,1,8.35,0c1.76,0,3.53,0,5.29,0a1.58,1.58,0,0,1,1.57,1.45c0,.26,0,.52.06.81h5.27A1.34,1.34,0,0,1,22,3.67c0,.68,0,1.35,0,2V15.87a1.85,1.85,0,0,1-.2,1,1.24,1.24,0,0,1-1.16.7H15.17c-4.57,0-9.15,0-13.72,0A1.4,1.4,0,0,1,0,16.08V3.8A1.58,1.58,0,0,1,.54,2.51a1.24,1.24,0,0,1,.85-.25H6.71ZM11,16.52h9.43c.48,0,.56-.08.59-.55v-12a1.84,1.84,0,0,0,0-.33c-.06-.28-.13-.34-.41-.34H14.84a.52.52,0,0,1-.59-.59c0-.33,0-.65,0-1A.61.61,0,0,0,13.55,1H8.41a.58.58,0,0,0-.65.64c0,.32,0,.63,0,1s-.19.65-.65.65H1.44c-.3,0-.39.08-.43.38a.91.91,0,0,0,0,.23V15.8c0,.11,0,.22,0,.32,0,.31.12.4.44.4Z"/><path class="cls-1" d="M15.74,9.78A4.75,4.75,0,1,1,11.12,5,4.75,4.75,0,0,1,15.74,9.78Zm-8.49,0A3.76,3.76,0,1,0,11,6,3.73,3.73,0,0,0,7.25,9.77Z"/><path class="cls-1" d="M18.51,4.51a1,1,0,0,1,1,1,1,1,0,1,1-1-1Z"/><path class="cls-1" d="M13.74,9.65a.49.49,0,0,1-.44.56c-.32,0-.53-.16-.56-.52a1.71,1.71,0,0,0-1.16-1.58A2.05,2.05,0,0,0,11,8a.55.55,0,0,1-.53-.52A.54.54,0,0,1,11.06,7,2.76,2.76,0,0,1,13.74,9.65Z"/></g></g></svg>