<svg xmlns="http://www.w3.org/2000/svg" viewBox="0 0 18.69 18.74"><defs><style>.cls-1{fill:#fff;}</style></defs><title>Asset 3</title><g id="Layer_2" data-name="Layer 2"><g id="Nav"><path class="cls-1" d="M14.48,2c-.07.2-.17.54-.3.87a.26.26,0,0,0,.07.34c.43.41.84.82,1.24,1.24.11.11.19.16.35.09a4,4,0,0,1,.75-.28A1.27,1.27,0,0,1,18,5c.19.43.38.87.55,1.31A1.29,1.29,0,0,1,18,7.94l0,0c-.25.11-.59.17-.7.36s0,.52,0,.79,0,.77,0,1.15c0,.16,0,.21.16.26l.57.24a1.32,1.32,0,0,1,.66,1.73c-.16.41-.33.81-.51,1.22a1.32,1.32,0,0,1-1.68.73,2.14,2.14,0,0,1-.44-.18c-.22-.13-.35-.08-.52.11a12.8,12.8,0,0,1-1.11,1.1.36.36,0,0,0-.11.5A2,2,0,0,1,14.48,17a1.21,1.21,0,0,1-.66,1,12.94,12.94,0,0,1-1.44.61,1.27,1.27,0,0,1-1.64-.75,2.43,2.43,0,0,1-.16-.37c-.07-.3-.23-.35-.52-.32a12.18,12.18,0,0,1-1.48,0c-.23,0-.38,0-.44.25A2.26,2.26,0,0,1,8,17.9a1.32,1.32,0,0,1-1.74.74c-.42-.17-.85-.35-1.26-.54a1.27,1.27,0,0,1-.68-1.6c.07-.23.17-.44.24-.66a.3.3,0,0,0-.07-.26c-.42-.44-.86-.87-1.28-1.31a.23.23,0,0,0-.3,0,2.24,2.24,0,0,1-1.19.3A1.09,1.09,0,0,1,.8,14a11.79,11.79,0,0,1-.75-1.8,1.18,1.18,0,0,1,.63-1.36c.21-.11.42-.2.64-.29a.24.24,0,0,0,.19-.27c0-.6,0-1.2,0-1.81a.35.35,0,0,0-.15-.25A3.32,3.32,0,0,0,.87,8,1.32,1.32,0,0,1,.12,6.23C.28,5.82.46,5.42.64,5a1.3,1.3,0,0,1,1.64-.73l.18.06c.6.25.59.24,1-.23a8.77,8.77,0,0,1,.94-.89.3.3,0,0,0,.09-.41,4,4,0,0,1-.26-.73A1.27,1.27,0,0,1,5,.62C5.4.44,5.8.27,6.21.11A1.32,1.32,0,0,1,8,.84c.1.23.14.53.31.65s.44,0,.67,0c.44,0,.88,0,1.32,0a.31.31,0,0,0,.23-.14,3.35,3.35,0,0,0,.23-.55A1.3,1.3,0,0,1,12.42.09a12.2,12.2,0,0,1,1.34.56A1.3,1.3,0,0,1,14.48,2ZM3.31,12.89a1.68,1.68,0,0,1,.46.33A6.93,6.93,0,0,0,5.54,15a.55.55,0,0,1,.23.74c-.13.34-.26.67-.4,1s0,.34.17.42.7.3,1,.44.36.07.47-.21.23-.59.35-.88.35-.5.75-.42a7.2,7.2,0,0,0,2.45,0,.63.63,0,0,1,.77.42c.13.33.25.65.39,1,.07.17.18.26.37.18l1.15-.48a.26.26,0,0,0,.15-.39c-.13-.32-.26-.64-.38-1a.62.62,0,0,1,.26-.88A6.67,6.67,0,0,0,15,13.29a.58.58,0,0,1,.83-.26c.32.12.65.25,1,.39a.29.29,0,0,0,.43-.18c.14-.36.28-.72.44-1.07s0-.34-.18-.42l-1.07-.44a.53.53,0,0,1-.35-.67,7.53,7.53,0,0,0,0-2.55.55.55,0,0,1,.37-.7l1-.4c.21-.08.28-.21.17-.44s-.29-.69-.43-1-.22-.29-.45-.19-.64.27-1,.39a.6.6,0,0,1-.8-.24,6.74,6.74,0,0,0-1.72-1.73A.57.57,0,0,1,13,3c.12-.33.26-.65.39-1a.3.3,0,0,0-.19-.45l-1-.43c-.26-.11-.37-.06-.47.21l-.35,1a.53.53,0,0,1-.66.36,7.71,7.71,0,0,0-2.58,0,.57.57,0,0,1-.69-.36c-.13-.33-.26-.67-.4-1s-.2-.28-.42-.18-.71.3-1.07.45A.29.29,0,0,0,5.33,2c.13.31.26.62.38.93a.64.64,0,0,1-.27.88A6.63,6.63,0,0,0,3.77,5.51.56.56,0,0,1,3,5.77Q2.49,5.61,2,5.41c-.24-.11-.38-.06-.48.19s-.28.68-.43,1,0,.37.2.46.6.24.9.36.49.29.42.72a8,8,0,0,0,0,2.53c.06.41,0,.58-.45.74l-.9.35a.28.28,0,0,0-.18.43c.09.2.17.4.25.6.3.69.21.79,1,.43Z"/><path class="cls-1" d="M13.42,9.34a4.05,4.05,0,1,1-4-4A4,4,0,0,1,13.42,9.34Zm-1.1,0A2.9,2.9,0,0,0,9.47,6.4a3,3,0,1,0,2.85,2.94Z"/></g></g></svg>