<svg xmlns="http://www.w3.org/2000/svg" viewBox="0 0 17.51 19.39"><defs><style>.cls-1{fill:#fff;}</style></defs><title>Asset 4</title><g id="Layer_2" data-name="Layer 2"><g id="Nav"><path class="cls-1" d="M13.27,6c0,.54,0,1.09,0,1.63a4.54,4.54,0,0,1-2.91,4.1,4.41,4.41,0,0,1-4.5-.72,4.34,4.34,0,0,1-1.64-2.9,5,5,0,0,1,0-.67c0-1.11,0-2.21,0-3.31a4.15,4.15,0,0,1,1-2.5A4.38,4.38,0,0,1,7.85.09a4.44,4.44,0,0,1,4.08,1.23,4.4,4.4,0,0,1,1.34,3.29V6Zm-1-1.32h0L12,4.81A2.89,2.89,0,0,1,10.5,5,7.41,7.41,0,0,1,9,4.63a8.44,8.44,0,0,0-1-.25,1.79,1.79,0,0,0-1.19.25.51.51,0,0,1-.71-.17.51.51,0,0,1,.13-.7,1.53,1.53,0,0,1,.25-.16,3,3,0,0,1,2.18-.18c.52.13,1,.32,1.55.47a2.08,2.08,0,0,0,1.85-.33,3.49,3.49,0,0,0-6.84.93V7.57a3.13,3.13,0,0,0,0,.44,3.49,3.49,0,0,0,6.94-.41c0-.6,0-1.19,0-1.79Z"/><path class="cls-1" d="M0,18.36a6.47,6.47,0,0,1,.56-2.84A6.24,6.24,0,0,1,2,13.66a9.16,9.16,0,0,1,2.56-1.59.73.73,0,0,1,.83.11,6.09,6.09,0,0,0,2.54,1.3,3.83,3.83,0,0,0,2.12-.17A6.15,6.15,0,0,0,12,12.2a.79.79,0,0,1,.88-.13A8.53,8.53,0,0,1,16,14.18,5.12,5.12,0,0,1,17.37,17c.09.61.11,1.22.14,1.83a.51.51,0,0,1-.45.53.52.52,0,0,1-.58-.38,1,1,0,0,1,0-.24,7.42,7.42,0,0,0-.37-2.48A4.3,4.3,0,0,0,15,14.58a7.37,7.37,0,0,0-2.26-1.44.25.25,0,0,0-.2,0,8.38,8.38,0,0,1-2.1,1.14A4.94,4.94,0,0,1,6.29,14c-.48-.24-.91-.55-1.36-.83a.25.25,0,0,0-.19,0A8,8,0,0,0,2.3,14.87a4.25,4.25,0,0,0-1.18,2.6c0,.44-.05.88-.06,1.33a.56.56,0,0,1-.51.59A.55.55,0,0,1,0,18.82Z"/></g></g></svg>