<?xml version="1.0" encoding="utf-8"?>
<!-- Generator: Adobe Illustrator 23.0.1, SVG Export Plug-In . SVG Version: 6.00 Build 0)  -->
<svg version="1.1" id="Layer_1" xmlns:sketch="http://www.bohemiancoding.com/sketch/ns"
	 xmlns="http://www.w3.org/2000/svg" xmlns:xlink="http://www.w3.org/1999/xlink" x="0px" y="0px" viewBox="0 0 262 315"
	 style="enable-background:new 0 0 262 315;" xml:space="preserve">
<style type="text/css">
	.st0{fill-rule:evenodd;clip-rule:evenodd;fill:#91928E;}
	.st1{fill:#91928E;}
</style>
<title>Group</title>
<desc>Created with Sketch.</desc>
<g id="Tablet-Portrait" transform="translate(-133.000000, -2386.000000)" sketch:type="MSArtboardGroup">
	<g id="Group_1_" transform="translate(133.000000, 2386.000000)" sketch:type="MSLayerGroup">
		<g id="Imported-Layers-Copy-3" transform="translate(414.758621, 0.000000)" sketch:type="MSShapeGroup">
			<path class="st0" d="M-231.2,169.3v3.5h0.2c0.8,0.1,1.6,0.2,2.5,0.3c0.7,0.1,1.4,0.1,2.1,0c0.7,0,1.3-0.2,2-0.4
				c0.7-0.2,1.4-0.6,2-1.1c0.5-0.5,0.9-1,1.2-1.7c0.4-1.1,0.4-2.3,0-3.5c-0.2-0.6-0.6-1.1-1.1-1.5c-0.4-0.4-1-0.7-1.6-0.9l-2.7-1
				c-0.3-0.1-0.6-0.4-0.7-0.7c-0.1-0.3-0.1-0.5,0-0.8c0-0.1,0.1-0.2,0.2-0.2c0.1-0.1,0.2-0.2,0.3-0.2c0,0,0.1,0,0.1-0.1
				c0.3-0.1,0.6-0.2,0.9-0.3c0.5-0.1,1.1-0.1,1.6,0c0.6,0.1,1.3,0.2,1.9,0.3h0.1v-3.2l-0.2-0.1c-0.6-0.2-1.3-0.3-1.9-0.3
				c-0.8-0.1-1.7-0.1-2.6,0c-1.1,0.1-2.1,0.5-3,1.2c-0.6,0.4-1,1-1.2,1.7c-0.4,1-0.4,2.2,0,3.3c0.2,0.5,0.5,1,0.9,1.4
				c0.3,0.3,0.7,0.6,1.2,0.8c0.6,0.3,1.2,0.5,1.8,0.7c0.2,0.1,0.4,0.1,0.6,0.2l0.3,0.1h0.1c0.3,0.1,0.6,0.3,0.8,0.5
				c0.2,0.1,0.3,0.3,0.4,0.5c0,0.2,0,0.4,0,0.6c-0.1,0.3-0.3,0.6-0.6,0.7c-0.3,0.2-0.6,0.3-1,0.3c-0.5,0.1-1,0.1-1.5,0.1
				c-0.7-0.1-1.3-0.1-2-0.3c-0.3-0.1-0.7-0.1-1-0.2L-231.2,169.3"/>
			<path class="st0" d="M-245.4,172.7v-4.1h-0.1c-0.9,0.4-1.9,0.7-2.9,0.7c-1,0.1-2-0.2-3-0.8c-0.6-0.5-1-1.1-1.2-1.8
				c-0.3-0.8-0.3-1.6-0.1-2.5c0.2-0.8,0.6-1.5,1.3-2c0.6-0.5,1.3-0.8,2-0.9c1.3-0.1,2.7,0.1,3.9,0.7h0.1v-4.1h-0.2
				c-1.2-0.4-2.5-0.5-3.7-0.5c-1.1,0-2.2,0.3-3.3,0.7c-1,0.5-1.9,1.2-2.7,2c-2.2,2.9-2.3,6.8-0.1,9.8c1,1.3,2.6,2.3,4.3,2.8
				s3.7,0.4,5.4-0.2L-245.4,172.7"/>
			<path class="st0" d="M-240.2,157.8h3.8v15.1h-3.8V157.8z"/>
			<path class="st0" d="M-179.8,171.2V171h-1.6v0.2h0.7v1.7h0.2v-1.7H-179.8"/>
			<path class="st0" d="M-179.7,172.9h0.3v-1.6l0,0l0.6,1.6h0.3l0.6-1.6v1.6h0.3V171h-0.4l-0.6,1.6l-0.7-1.6h-0.4L-179.7,172.9"/>
			<path class="st0" d="M-264.8,145.6c0,0.5,0.2,0.9,0.6,1.2c0.3,0.3,0.8,0.5,1.3,0.5s0.9-0.2,1.3-0.5c0.3-0.3,0.6-0.8,0.6-1.2v-4.2
				c0-0.5-0.2-0.9-0.6-1.3c-0.3-0.3-0.8-0.5-1.3-0.5s-0.9,0.2-1.3,0.5c-0.3,0.3-0.5,0.8-0.6,1.3V145.6"/>
			<path class="st0" d="M-254.4,145.6c0,0.5,0.2,0.9,0.6,1.2c0.3,0.3,0.8,0.5,1.3,0.5c0.5,0,0.9-0.2,1.3-0.5
				c0.3-0.3,0.6-0.8,0.6-1.2v-9.4c0-0.5-0.2-0.9-0.6-1.3c-0.3-0.3-0.8-0.5-1.3-0.5c-0.5,0-0.9,0.2-1.3,0.5c-0.3,0.3-0.5,0.8-0.6,1.3
				V145.6"/>
			<path class="st0" d="M-244,149.4c0,0.5,0.2,0.9,0.6,1.2c0.3,0.3,0.8,0.5,1.3,0.5c0.5,0,0.9-0.2,1.3-0.5c0.3-0.3,0.6-0.8,0.6-1.2
				v-20.3c0-0.5-0.2-0.9-0.6-1.3c-0.3-0.3-0.8-0.5-1.3-0.5c-0.5,0-0.9,0.2-1.3,0.5c-0.3,0.3-0.5,0.8-0.6,1.3V149.4"/>
			<path class="st0" d="M-233.6,145.6c0,0.5,0.2,0.9,0.6,1.2c0.3,0.3,0.8,0.5,1.3,0.5c0.5,0,0.9-0.2,1.3-0.5
				c0.3-0.3,0.6-0.8,0.6-1.2v-9.4c0-0.5-0.2-0.9-0.6-1.3c-0.3-0.3-0.8-0.5-1.3-0.5c-0.5,0-0.9,0.2-1.3,0.5c-0.3,0.3-0.5,0.8-0.6,1.3
				V145.6"/>
			<path class="st0" d="M-223.1,145.6c0,0.5,0.2,0.9,0.6,1.2c0.3,0.3,0.8,0.5,1.3,0.5s0.9-0.2,1.3-0.5c0.3-0.3,0.6-0.8,0.6-1.2v-4.2
				c0-0.5-0.2-0.9-0.6-1.3c-0.3-0.3-0.8-0.5-1.3-0.5s-0.9,0.2-1.3,0.5c-0.3,0.3-0.5,0.8-0.6,1.3V145.6"/>
			<path class="st0" d="M-212.7,145.6c0,0.5,0.2,0.9,0.6,1.2c0.3,0.3,0.8,0.5,1.3,0.5c0.5,0,0.9-0.2,1.3-0.5
				c0.3-0.3,0.6-0.8,0.6-1.2v-9.4c0-0.5-0.2-0.9-0.6-1.3c-0.3-0.3-0.8-0.5-1.3-0.5c-0.5,0-0.9,0.2-1.3,0.5c-0.3,0.3-0.5,0.8-0.6,1.3
				V145.6"/>
			<path class="st0" d="M-202.3,149.4c0,0.5,0.2,0.9,0.6,1.2c0.3,0.3,0.8,0.5,1.3,0.5c0.5,0,0.9-0.2,1.3-0.5
				c0.3-0.3,0.6-0.8,0.6-1.2v-20.3c0-0.5-0.2-0.9-0.6-1.3c-0.3-0.3-0.8-0.5-1.3-0.5s-0.9,0.2-1.3,0.5c-0.3,0.3-0.5,0.8-0.6,1.3
				V149.4"/>
			<path class="st0" d="M-191.9,145.6c0,0.5,0.2,0.9,0.6,1.2c0.3,0.3,0.8,0.5,1.3,0.5c0.5,0,0.9-0.2,1.3-0.5
				c0.3-0.3,0.6-0.8,0.6-1.2v-9.4c0-0.5-0.2-0.9-0.6-1.3c-0.3-0.3-0.8-0.5-1.3-0.5c-0.5,0-0.9,0.2-1.3,0.5c-0.3,0.3-0.5,0.8-0.6,1.3
				V145.6"/>
			<path class="st0" d="M-181.5,145.6c0,0.5,0.2,0.9,0.6,1.2c0.3,0.3,0.8,0.5,1.3,0.5c0.5,0,0.9-0.2,1.3-0.5
				c0.3-0.3,0.6-0.8,0.6-1.2v-4.2c0-0.5-0.2-0.9-0.6-1.3c-0.3-0.3-0.8-0.5-1.3-0.5c-0.5,0-0.9,0.2-1.3,0.5c-0.3,0.3-0.5,0.8-0.6,1.3
				V145.6"/>
			<path class="st0" d="M-205.6,172.7v-4.1h-0.1c-0.9,0.4-1.9,0.7-2.9,0.7c-1,0.1-2-0.2-3-0.8c-0.6-0.5-1-1.1-1.2-1.8
				c-0.3-0.8-0.3-1.6-0.1-2.5c0.2-0.8,0.6-1.5,1.3-2c0.6-0.5,1.3-0.8,2-0.9c1.3-0.1,2.7,0.1,3.9,0.7h0.1v-4.1h-0.2
				c-1.2-0.4-2.5-0.5-3.7-0.5c-1.1,0-2.2,0.3-3.3,0.7c-1,0.5-1.9,1.2-2.7,2c-2.2,2.9-2.3,6.8-0.1,9.8c1,1.3,2.6,2.3,4.3,2.8
				s3.7,0.4,5.4-0.2L-205.6,172.7"/>
			<path class="st0" d="M-201.6,165.3c0,2.3,1.1,4.6,3.1,6.1c1.8,1.5,4.3,2,6.6,1.5c3.2-0.6,5.6-3.1,6.2-6.2
				c0.6-3.2-0.9-6.3-3.7-8.1c-2.5-1.5-5.5-1.6-8.1-0.2C-199.9,159.8-201.5,162.5-201.6,165.3 M-196,162.3c0.8-0.6,1.8-0.9,3-0.8
				c1,0.1,2,0.6,2.7,1.4s0.9,1.8,0.8,3c-0.1,1-0.6,2-1.4,2.7s-1.8,0.9-3,0.8c-1-0.1-2-0.6-2.7-1.4c-0.6-0.8-0.9-1.8-0.8-3
				C-197.4,163.9-196.8,162.9-196,162.3"/>
		</g>
	</g>
</g>
<g>
	<g>
		<path class="st1" d="M151.9,102.2v-9.6h2.5l4.6,5.9h0v-5.9h2.5v9.6H159l-4.6-5.9h0v5.9H151.9z M147.4,95.5
			c-0.5-0.5-1.2-0.8-1.9-0.8c-0.7,0-1.4,0.2-1.9,0.8c-0.5,0.5-0.8,1.1-0.8,1.8c0,0.8,0.2,1.5,0.8,2.1c0.5,0.5,1.2,0.8,1.9,0.8
			c0.8,0,1.4-0.3,1.9-0.8c0.5-0.5,0.8-1.2,0.8-2.1C148.2,96.6,147.9,95.9,147.4,95.5 M142.9,92.9c0.8-0.4,1.7-0.6,2.6-0.6
			c0.9,0,1.8,0.2,2.6,0.6c0.8,0.4,1.4,1,2,1.8c0.5,0.8,0.8,1.6,0.8,2.5c0,1.5-0.5,2.8-1.5,3.8c-1,1-2.3,1.5-3.8,1.5
			c-1.5,0-2.8-0.5-3.8-1.5c-1-1-1.5-2.3-1.5-3.8c0-1,0.2-1.8,0.8-2.5S142.1,93.3,142.9,92.9 M139,102.2h-2.5v-9.6h2.5V102.2z
			 M133.5,94.7v7.5H131v-7.5H129v-2.1h6.6v2.1H133.5z M125.8,98.6l-1-3.1h0l-1,3.1H125.8z M126.4,100.5H123l-0.7,1.7h-2.6l3.7-9.6
			h2.7l3.6,9.6h-2.6L126.4,100.5z M113.5,94.7v5.4h0.6c0.8,0,1.4-0.2,2-0.7s0.8-1.1,0.8-2c0-0.9-0.2-1.5-0.8-2
			c-0.5-0.5-1.2-0.7-2-0.7H113.5z M111,102.2v-9.6h3.6c1.3,0,2.5,0.5,3.5,1.4c1,0.9,1.4,2.1,1.4,3.4s-0.5,2.5-1.4,3.4
			c-1,0.9-2.1,1.4-3.5,1.4H111z M99.8,102.2v-9.6h2.5l4.6,5.9h0v-5.9h2.5v9.6h-2.5l-4.6-5.9h0v5.9H99.8z M95.7,92.6h2.5V98
			c0,0.8,0,1.4-0.2,2c-0.1,0.5-0.4,1-0.8,1.4c-0.7,0.7-1.8,1.1-3.2,1.1c-1.4,0-2.4-0.3-3.2-1.1c-0.4-0.4-0.7-0.9-0.8-1.4
			c-0.1-0.5-0.2-1.2-0.2-2v-5.4h2.5v5c0,0.3,0,0.6,0,0.8c0,0.2,0,0.4,0.1,0.7c0,0.2,0.1,0.5,0.3,0.6c0.1,0.1,0.3,0.3,0.5,0.4
			c0.2,0.1,0.5,0.1,0.8,0.1c0.3,0,0.6,0,0.8-0.1c0.2-0.1,0.4-0.2,0.5-0.4c0.1-0.1,0.2-0.3,0.3-0.6c0-0.2,0.1-0.5,0.1-0.7
			c0-0.2,0-0.5,0-0.8L95.7,92.6L95.7,92.6z M85.3,95.5c-0.5-0.5-1.2-0.8-1.9-0.8c-0.7,0-1.4,0.2-1.9,0.8c-0.5,0.5-0.8,1.1-0.8,1.8
			c0,0.8,0.2,1.5,0.8,2.1c0.5,0.5,1.2,0.8,1.9,0.8s1.4-0.3,1.9-0.8c0.5-0.5,0.8-1.2,0.8-2.1C86.1,96.6,85.9,95.9,85.3,95.5
			 M80.8,92.9c0.8-0.4,1.7-0.6,2.6-0.6c0.9,0,1.8,0.2,2.6,0.6s1.4,1,2,1.8c0.5,0.8,0.8,1.6,0.8,2.5c0,1.5-0.5,2.8-1.5,3.8
			c-1,1-2.3,1.5-3.8,1.5s-2.8-0.5-3.8-1.5c-1-1-1.5-2.3-1.5-3.8c0-1,0.2-1.8,0.8-2.5C79.3,93.9,80,93.3,80.8,92.9 M77.2,94.7h-3v1.6
			h2.7v2.1h-2.7v3.7h-2.5v-9.6h5.5V94.7z M154.3,85.5l-1-3.1h0l-1,3.1H154.3z M155,87.4h-3.5l-0.7,1.7h-2.6l3.7-9.6h2.7l3.6,9.6
			h-2.6L155,87.4z M137.9,89.1v-9.6h2.5l4.6,5.9h0v-5.9h2.5v9.6H145l-4.6-5.9h0v5.9H137.9z M133.8,79.5h2.5v5.4c0,0.8,0,1.4-0.2,2
			c-0.1,0.5-0.4,1-0.8,1.4c-0.7,0.7-1.8,1.1-3.2,1.1s-2.4-0.3-3.2-1.1c-0.4-0.4-0.7-0.9-0.8-1.4c-0.1-0.5-0.2-1.2-0.2-2v-5.4h2.5v5
			c0,0.3,0,0.6,0,0.8s0,0.4,0.1,0.7s0.1,0.5,0.3,0.6c0.1,0.1,0.3,0.3,0.5,0.4c0.2,0.1,0.5,0.1,0.8,0.1c0.3,0,0.6,0,0.8-0.1
			c0.2-0.1,0.4-0.2,0.5-0.4c0.1-0.1,0.2-0.3,0.3-0.6c0-0.2,0.1-0.5,0.1-0.7s0-0.5,0-0.8L133.8,79.5L133.8,79.5z M123.3,85.5l-1-3.1
			h0l-1,3.1H123.3z M123.9,87.4h-3.5l-0.7,1.7h-2.6l3.7-9.6h2.7l3.6,9.6h-2.6L123.9,87.4z M117.4,81.6h-3v1.6h2.7v2.1h-2.7V89h-2.5
			v-9.6h5.5V81.6z M107.1,85.5l-1-3.1h0l-1,3.1H107.1z M107.8,87.4h-3.5l-0.7,1.7H101l3.7-9.6h2.7l3.6,9.6h-2.6L107.8,87.4z
			 M95.8,83.7h4.9c0,0.8-0.1,1.5-0.2,2.1c-0.1,0.6-0.4,1.2-0.8,1.7c-0.9,1.2-2.2,1.9-3.9,1.9c-1.5,0-2.7-0.5-3.7-1.4
			c-1-1-1.4-2.2-1.4-3.6c0-1.5,0.5-2.8,1.4-3.7c1-1,2.2-1.4,3.7-1.4c1,0,1.9,0.2,2.6,0.7s1.3,1.1,1.7,2l-2.4,1
			c-0.2-0.5-0.4-0.9-0.8-1.1c-0.3-0.3-0.8-0.4-1.3-0.4c-0.8,0-1.4,0.3-1.8,0.9c-0.4,0.6-0.7,1.3-0.7,2.1s0.2,1.5,0.7,2.1
			c0.4,0.6,1.1,0.9,1.9,0.9c0.6,0,1-0.1,1.4-0.4c0.4-0.3,0.6-0.7,0.6-1.2h-2L95.8,83.7L95.8,83.7z M89.7,81.6h-3v1.6h2.8v2.1h-2.8
			v1.6h3V89h-5.5v-9.6h5.5L89.7,81.6L89.7,81.6z M71.1,89.1l1.6-9.6h2.4l2,5.1l2.1-5.1h2.5l1.4,9.6h-2.5L80,83.6h0l-2.3,5.5h-1
			l-2.2-5.5h0l-0.8,5.5H71.1z M123.6,68.5h-3v1.6h2.8v2.1h-2.8v1.6h3v2.1h-5.5v-9.6h5.5V68.5z M106.9,76v-9.6h2.5l4.6,5.9h0v-5.9
			h2.5V76H114l-4.6-5.9h0v5.9L106.9,76L106.9,76z M105.3,76h-2.5v-9.6h2.5V76z M96.6,68.3v2.4h0.2c1.2,0,1.7-0.4,1.7-1.2
			s-0.6-1.2-1.7-1.2H96.6z M99.1,72l3,3.9H99l-2.4-3.7h0V76h-2.5v-9.6h3.7c1,0,1.8,0.2,2.4,0.7c0.6,0.5,0.9,1.2,0.9,2.2
			c0,0.7-0.2,1.3-0.6,1.8C100.3,71.6,99.8,71.9,99.1,72 M89.4,72.4l-1-3.1h0l-1,3.1H89.4z M90.1,74.3h-3.5L86,76h-2.6l3.7-9.6h2.7
			l3.6,9.6h-2.6L90.1,74.3z M71.1,76l1.6-9.6h2.4l2,5.1l2.1-5.1h2.5l1.4,9.6h-2.5L80,70.4h0L77.6,76h-1l-2.2-5.5h0L73.5,76H71.1z"/>
	</g>
	<g>
		<path class="st1" d="M37.7,59.5c-13.6,0-24.6,11-24.6,24.6s11,24.6,24.6,24.6s24.6-11,24.6-24.6C62.3,70.5,51.2,59.5,37.7,59.5z
			 M21.3,75.6c2.1-4.1,5.7-7.3,10.1-8.8c0.6-0.2,1.1-0.6,1.4-1.2c0.1-0.1,0.1-0.3,0.1-0.5l0-0.7c0-0.2,0.1-0.5,0.3-0.6l0.3-0.2
			c0.1,0,0.1-0.1,0.2-0.3c0,0,1.3-2.7,1.7-2.4c0.4,0.4-1.1,2.4-0.1,2.9l0.1,0c0.6,0.3,1.3,0.3,2,0.3c0.7,0,1.4,0,2-0.3l0.1,0
			c1-0.5,1.4-3.2,1.9-2.9s-0.5,2.4-0.1,2.6l0.2,0.2c0.2,0.1,0.3,0.4,0.3,0.6l0,0.7c0,0.2,0,0.3,0.1,0.5c0.1,0.2,0.3,0.5,0.5,0.6
			c0.2,0.1,0.4,0.3,0.7,0.3c3.7,1.2,6.9,3.6,9.1,6.6c0.1,0.2,0,0.5-0.3,0.4c-1-0.4-2.6-0.9-4.4-0.9c-10.9,0-12,5.3-13.3,5.7
			c0,0.1-0.1,0.3-0.1,0.4c0,0.2-0.1,0.4-0.2,0.5c-0.1,0.4-0.2,0.7-0.3,1.1c-0.1,0.4-0.1,0.7-0.2,1.1c-0.1,0.7-0.3,1.4-0.4,1.9
			c-0.1,0.6-0.2,1.1-0.2,1.4c0,0.3-0.1,0.5-0.1,0.5l0,0l0,0c0,0,0-0.2,0-0.5c0-0.3,0-0.8,0.1-1.4c0-0.6,0.1-1.2,0.2-2
			c0-0.4,0.1-0.7,0.1-1.1c0-0.4,0.1-0.8,0.2-1.2c0-0.2,0.1-0.4,0.1-0.6c0-0.1,0-0.3,0.1-0.4c-1.2-0.6-2.6-3.1-6.3-3.6
			c-2.8-0.4-4.7,0.7-5.7,1.2C21.4,76.1,21.2,75.9,21.3,75.6z M44.2,91.4c-0.3,0.1-0.1,0.4-0.4,0.4c-0.3,0-0.2,0.1-0.4,0.2
			c-0.1,0.1-0.3,0.2-0.8-0.3c-0.4-0.5-0.3-0.7-0.3-1.8c-1-0.4-2-1-2.7-1.8c-1-1-1.5-2.5-1.4-4.1c-0.1-0.4-0.2-0.8-0.3-1.1
			c-0.4-0.7-1.7,2.2-2,2.4c-0.4,0.5-1.4-0.8-0.8-2.4c0.6-1.5,2.1-2.9,3.7-1.4c0.1-0.2,0.3-0.5,0.5-0.8l-0.4-1
			c-0.7-0.2-1.2-0.8-1.1-1.2c0.1-0.5,0.1-1.8,0.5-2c0.4-0.2,1.6,0.4,2.1,0.4c0.4,0,0.7,0.8,0.6,1.4l0.7,0.8c0.3-0.1,0.8-0.1,1-0.1
			c-0.6-2.1,1.3-2.8,3-2.7c1.7,0.1,2.4,1.6,1.8,1.7c-0.4,0.1-3.6,0-3.1,0.6c0.1,0.2,0.5,0.5,0.8,0.8c1.4,0.6,2.6,1.8,3.1,3.1
			c0.4,1,0.5,2.2,0.4,3.2c1.1,0.5,1.3,0.4,1.6,1.1c0.3,0.7,0.1,0.7,0,0.8c-0.1,0.1-0.2,0-0.4,0.2c-0.1,0.2-0.3,0-0.6,0.1
			c-0.2,0.2-0.7-0.1-1-0.5c-0.4,1.1-0.9,1.8-1.6,2.2c-0.7,0.4-1.5,0.6-2.7,0.4C44.4,90.8,44.5,91.3,44.2,91.4z M55.1,89.8
			c-2.4,7.3-9.3,12.7-17.5,12.7c-5.8,0-10.9-2.7-14.4-6.9c0,0-2.7,0.9-2.7,3.6c0,0.3-0.4,0.4-0.5,0.1c-2.8-4.7,1.2-6.4-0.1-10.1
			c-0.5-1.7-0.8-3.5-0.8-5.3c0-1.3,0.1-2.5,0.4-3.7c0,0,0.1-1,0.7-1.9c0.2-0.3,0.5-0.6,0.9-0.7c0.7-0.2,1.4-0.5,3.1-0.6
			c1.2,0,2.5,0.1,3.3,0.2c0.5,0.1,1,0.4,1.2,0.8c0.8,1.2,1.8,3.4,2.2,6.7s4.7,0.6,6.5,5.2c0.1,0.2-0.1,0.5-0.4,0.4
			c-2.1-0.6-3-0.6-4.4,0.5c0,0,1.4,3,5,3.6c3.6,0.5,10.9-1.3,14.6-6.2c-3-7.1,2.4-17.2,1.2-11.8c-0.8,3.7-0.1,8.2,2.2,9.7s5,0,4,1.1
			C58.8,88.3,55.3,89.3,55.1,89.8z"/>
		<path class="st1" d="M37.7,58.2c-14.4,0-26,11.6-26,26s11.6,26,26,26s26-11.6,26-26S52,58.2,37.7,58.2z M37.7,109.5
			c-14,0-25.4-11.4-25.4-25.4c0-14,11.4-25.4,25.4-25.4s25.4,11.4,25.4,25.4C63,98.1,51.6,109.5,37.7,109.5z"/>
	</g>
</g>
<g id="Imported-Layers-Copy" transform="translate(275.000000, 12.000000)" sketch:type="MSShapeGroup">
	<path id="Fill-1_1_" class="st0" d="M-136.2,212.9c0.3,0.2,0.8,0.3,1.3,0.3c0.5,0,0.8-0.2,0.8-0.5s-0.2-0.5-0.8-0.7
		c-0.8-0.3-1.4-0.8-1.4-1.5c0-0.9,0.7-1.5,1.9-1.5c0.6,0,1,0.1,1.3,0.3l-0.3,0.9c-0.2-0.1-0.6-0.2-1-0.2c-0.4,0-0.7,0.2-0.7,0.5
		s0.3,0.5,0.9,0.7c0.8,0.2,1.2,0.7,1.2,1.4c0,0.8-0.6,1.6-2,1.6c-0.6,0-1.1-0.2-1.4-0.3L-136.2,212.9"/>
	<path id="Fill-2_1_" class="st0" d="M-128.9,213.2c0,0.3,0,0.7,0.1,0.9h-1l-0.2-0.4l0,0c-0.2,0.3-0.6,0.4-1,0.4
		c-0.7,0-1.2-0.5-1.2-1.1c0-0.9,0.8-1.4,2.1-1.4v-0.1c0-0.2-0.1-0.5-0.7-0.5c-0.4,0-0.8,0.1-1,0.3l-0.2-0.6c0.3-0.1,0.8-0.3,1.4-0.3
		c1.2,0,1.6,0.7,1.6,1.6v1.2H-128.9z M-130.1,212.4c-0.6,0-1.1,0.1-1.1,0.6c0,0.3,0.2,0.4,0.4,0.4c0.3,0,0.5-0.2,0.6-0.4
		c0-0.1,0-0.1,0-0.2v-0.4H-130.1z"/>
	<path id="Fill-3_1_" class="st0" d="M-127.3,210.4l0.5,1.7c0.1,0.3,0.2,0.6,0.2,0.9l0,0c0.1-0.3,0.1-0.6,0.2-0.9l0.5-1.7h1.2
		l-1.4,3.7h-1.1l-1.3-3.7H-127.3"/>
	<path id="Fill-4_1_" class="st0" d="M-123.3,212.6c0,0.5,0.5,0.7,1,0.7c0.4,0,0.7-0.1,1-0.1l0.1,0.8c-0.4,0.1-0.8,0.2-1.3,0.2
		c-1.2,0-1.9-0.7-1.9-1.9c0-0.9,0.6-1.9,1.8-1.9s1.6,0.9,1.6,1.8c0,0.2,0,0.4,0,0.4H-123.3L-123.3,212.6z M-122,211.8
		c0-0.3-0.1-0.7-0.6-0.7s-0.7,0.4-0.7,0.7H-122L-122,211.8z"/>
	<path id="Fill-5_1_" class="st0" d="M-118.7,211.6c0-0.5,0-0.8,0-1.2h1l0.1,0.5l0,0c0.2-0.2,0.5-0.6,1.1-0.6c0.5,0,0.8,0.2,1,0.6
		l0,0c0.1-0.2,0.3-0.3,0.5-0.4c0.2-0.1,0.4-0.2,0.7-0.2c0.7,0,1.2,0.5,1.2,1.6v2.1h-1.1v-2c0-0.5-0.2-0.8-0.5-0.8s-0.4,0.2-0.5,0.4
		c0,0.1,0,0.2,0,0.3v2.1h-1.1v-2c0-0.5-0.2-0.8-0.5-0.8s-0.5,0.2-0.5,0.4c0,0.1,0,0.2,0,0.3v2.1h-1.1v-2.5"/>
	<path id="Fill-6_1_" class="st0" d="M-108.5,212.2c0,1.3-0.9,1.9-1.9,1.9c-1.1,0-1.9-0.7-1.9-1.9c0-1.2,0.8-1.9,1.9-1.9
		C-109.2,210.4-108.5,211.1-108.5,212.2L-108.5,212.2z M-111.2,212.3c0,0.6,0.3,1.1,0.7,1.1s0.7-0.4,0.7-1.1c0-0.5-0.2-1.1-0.7-1.1
		S-111.2,211.7-111.2,212.3L-111.2,212.3z"/>
	<path id="Fill-7_1_" class="st0" d="M-107.8,211.6c0-0.5,0-0.8,0-1.2h1l0.1,0.5l0,0c0.1-0.2,0.5-0.6,1.1-0.6c0.7,0,1.3,0.5,1.3,1.6
		v2.2h-1.1v-2c0-0.5-0.2-0.8-0.6-0.8c-0.3,0-0.5,0.2-0.6,0.4c0,0.1,0,0.2,0,0.3v2.1h-1.1v-2.6"/>
	<path id="Fill-8_1_" class="st0" d="M-102.4,212.6c0,0.5,0.5,0.7,1,0.7c0.4,0,0.7-0.1,1-0.1l0.1,0.8c-0.4,0.1-0.8,0.2-1.3,0.2
		c-1.2,0-1.9-0.7-1.9-1.9c0-0.9,0.6-1.9,1.8-1.9c1.2,0,1.6,0.9,1.6,1.8c0,0.2,0,0.4,0,0.4H-102.4L-102.4,212.6z M-101.1,211.8
		c0-0.3-0.1-0.7-0.6-0.7s-0.7,0.4-0.7,0.7H-101.1L-101.1,211.8z"/>
	<path id="Fill-9_1_" class="st0" d="M-98.5,210.4l0.5,1.8c0.1,0.2,0.1,0.5,0.2,0.7l0,0c0.1-0.2,0.1-0.5,0.2-0.7l0.4-1.8h1.2
		l-0.8,2.5c-0.5,1.4-0.9,2-1.3,2.5c-0.4,0.3-0.8,0.5-1.1,0.5l-0.2-1c0.1,0,0.3-0.1,0.5-0.2c0.2-0.1,0.4-0.3,0.5-0.5
		c0-0.1,0.1-0.1,0.1-0.2c0,0,0-0.1-0.1-0.2l-1.3-3.4h1.2"/>
	<path id="Fill-10_1_" class="st0" d="M-94.8,214.3c-0.4,0-0.7-0.3-0.7-0.7c0-0.4,0.3-0.7,0.7-0.7c0.4,0,0.7,0.3,0.7,0.7
		S-94.4,214.3-94.8,214.3L-94.8,214.3"/>
	<path id="Fill-11_1_" class="st0" d="M-91.6,209.1h1.1v4.2h2v1h-3.2V209.1"/>
	<path id="Fill-12_1_" class="st0" d="M-86.3,209.4c0,0.3-0.2,0.6-0.6,0.6c-0.4,0-0.6-0.3-0.6-0.6s0.2-0.6,0.6-0.6
		C-86.6,208.8-86.3,209.1-86.3,209.4L-86.3,209.4z M-87.6,210.4h1.1v3.7h-1.1V210.4z"/>
	<path id="Fill-13_1_" class="st0" d="M-84.4,210.4l0.5,1.7c0.1,0.3,0.2,0.6,0.2,0.9l0,0c0.1-0.3,0.1-0.6,0.2-0.9l0.5-1.7h1.2
		l-1.4,3.7h-1.1l-1.3-3.7H-84.4"/>
	<path id="Fill-14_1_" class="st0" d="M-80.5,212.6c0,0.5,0.5,0.7,1,0.7c0.4,0,0.7-0.1,1-0.1l0.1,0.8c-0.4,0.1-0.8,0.2-1.3,0.2
		c-1.2,0-1.9-0.7-1.9-1.9c0-0.9,0.6-1.9,1.8-1.9c1.2,0,1.6,0.9,1.6,1.8c0,0.2,0,0.4,0,0.4H-80.5L-80.5,212.6z M-79.1,211.8
		c0-0.3-0.1-0.7-0.6-0.7s-0.7,0.4-0.7,0.7H-79.1L-79.1,211.8z"/>
	<path id="Fill-15_1_" class="st0" d="M-75.8,208.7h1.1v2.1l0,0c0.2-0.3,0.6-0.5,1.1-0.5c0.9,0,1.5,0.7,1.5,1.8c0,1.3-0.8,2-1.7,2
		c-0.4,0-0.8-0.2-1.1-0.6l0,0v0.5h-1c0-0.2,0-0.7,0-1.1v-4.3H-75.8z M-74.7,212.5c0,0.1,0,0.1,0,0.2c0.1,0.3,0.3,0.5,0.7,0.5
		c0.5,0,0.8-0.4,0.8-1c0-0.6-0.3-1-0.8-1c-0.3,0-0.6,0.2-0.7,0.6c0,0.1,0,0.1,0,0.2V212.5L-74.7,212.5z"/>
	<path id="Fill-16_1_" class="st0" d="M-70.4,212.6c0,0.5,0.5,0.7,1,0.7c0.4,0,0.7-0.1,1-0.1l0.1,0.8c-0.4,0.1-0.8,0.2-1.3,0.2
		c-1.2,0-1.9-0.7-1.9-1.9c0-0.9,0.6-1.9,1.8-1.9c1.2,0,1.6,0.9,1.6,1.8c0,0.2,0,0.4,0,0.4H-70.4L-70.4,212.6z M-69,211.8
		c0-0.3-0.1-0.7-0.6-0.7s-0.7,0.4-0.7,0.7H-69L-69,211.8z"/>
	<path id="Fill-17_1_" class="st0" d="M-65.8,209.5v1h0.8v0.8h-0.8v1.3c0,0.4,0.1,0.6,0.4,0.6c0.2,0,0.2,0,0.3,0v0.9
		c-0.1,0.1-0.4,0.1-0.7,0.1c-0.4,0-0.7-0.1-0.8-0.3c-0.2-0.2-0.3-0.6-0.3-1.1v-1.5h-0.5v-0.8h0.5v-0.7L-65.8,209.5"/>
	<path id="Fill-18_1_" class="st0" d="M-62.9,209.5v1h0.8v0.8h-0.8v1.3c0,0.4,0.1,0.6,0.4,0.6c0.2,0,0.2,0,0.3,0v0.9
		c-0.1,0.1-0.4,0.1-0.7,0.1c-0.4,0-0.7-0.1-0.8-0.3c-0.2-0.2-0.3-0.6-0.3-1.1v-1.5h-0.5v-0.8h0.5v-0.7L-62.9,209.5"/>
	<path id="Fill-19_1_" class="st0" d="M-60.3,212.6c0,0.5,0.5,0.7,1,0.7c0.4,0,0.7-0.1,1-0.1l0.1,0.8c-0.4,0.1-0.8,0.2-1.3,0.2
		c-1.2,0-1.9-0.7-1.9-1.9c0-0.9,0.6-1.9,1.8-1.9c1.2,0,1.6,0.9,1.6,1.8c0,0.2,0,0.4,0,0.4H-60.3L-60.3,212.6z M-59,211.8
		c0-0.3-0.1-0.7-0.6-0.7c-0.5,0-0.7,0.4-0.7,0.7H-59L-59,211.8z"/>
	<path id="Fill-20_1_" class="st0" d="M-57,211.6c0-0.5,0-0.9,0-1.2h1v0.7l0,0c0.2-0.5,0.6-0.8,1-0.8c0.1,0,0.2,0,0.2,0v1.1
		c-0.1,0-0.2,0-0.3,0c-0.4,0-0.7,0.2-0.8,0.6c0,0.1,0,0.2,0,0.3v1.8H-57L-57,211.6"/>
	<path id="Fill-21_1_" class="st0" d="M-53.6,214.3c-0.4,0-0.7-0.3-0.7-0.7c0-0.4,0.3-0.7,0.7-0.7c0.4,0,0.7,0.3,0.7,0.7
		C-52.8,214-53.2,214.3-53.6,214.3L-53.6,214.3"/>
	<path id="Fill-22_1_" class="st0" d="M-37.2,192.9c0.6,0,1.1-0.3,1.2-0.7l0.6-7.1c0-0.7-0.8-1.3-1.8-1.3s-1.8,0.6-1.8,1.3l0.6,7.1
		C-38.4,192.5-37.9,192.9-37.2,192.9L-37.2,192.9"/>
	<path id="Fill-23_1_" class="st0" d="M-41.1,195.2c0.3-0.5,0.3-1.2,0-1.4l-5.9-4.1c-0.6-0.3-1.5,0.1-2,1c-0.5,0.9-0.4,1.9,0.2,2.2
		l6.5,3.1C-42,196-41.4,195.7-41.1,195.2L-41.1,195.2"/>
	<path id="Fill-24_1_" class="st0" d="M-33.3,195.2c0.3,0.5,0.9,0.8,1.3,0.7l6.5-3.1c0.6-0.3,0.7-1.3,0.2-2.2c-0.5-0.9-1.4-1.3-2-1
		l-5.9,4.1C-33.6,193.9-33.7,194.6-33.3,195.2L-33.3,195.2"/>
	<path id="Fill-25_1_" class="st0" d="M-37.2,201.8c0.6,0,1.1,0.3,1.2,0.7l0.6,7.1c0,0.7-0.8,1.3-1.8,1.3s-1.8-0.6-1.8-1.3l0.6-7.1
		C-38.4,202.2-37.9,201.8-37.2,201.8L-37.2,201.8"/>
	<path id="Fill-26_1_" class="st0" d="M-33.3,199.6c0.3-0.5,0.9-0.8,1.3-0.7l6.5,3.1c0.6,0.3,0.7,1.3,0.2,2.2c-0.5,0.9-1.4,1.3-2,1
		l-5.9-4.1C-33.6,200.8-33.7,200.2-33.3,199.6L-33.3,199.6"/>
	<path id="Fill-27_1_" class="st0" d="M-41.1,199.6c0.3,0.5,0.3,1.2,0,1.4l-5.9,4.1c-0.6,0.3-1.5-0.1-2-1c-0.5-0.9-0.4-1.9,0.2-2.2
		l6.5-3.1C-42,198.7-41.4,199-41.1,199.6L-41.1,199.6"/>
	<path id="Fill-28_1_" class="st0" d="M-71.1,198.2c0-2.7-1.1-5.1-5.1-5.1c-2,0-3.6,0.6-4.5,1l0.6,2.1c0.8-0.5,2-0.9,3.3-0.9
		c1.9,0,2.3,1.1,2.3,1.8v0.2c-4.3,0-7,1.5-7,4.5c0,1.8,1.4,3.6,3.8,3.6c1.5,0,2.8-0.6,3.5-1.5h0.1c0,0,0.5,2,3.2,1.2
		c-0.1-0.8-0.2-1.7-0.2-2.9v-4.1H-71.1z M-74.4,201c0,0.2,0,0.4-0.1,0.6c-0.2,0.8-1.1,1.5-2.1,1.5c-0.9,0-1.6-0.5-1.6-1.5
		c0-1.6,1.8-2,3.9-2V201L-74.4,201z"/>
	<path id="Fill-29_1_" class="st0" d="M-138.4,189.4c0,0,2.9,11.5,3.3,13.5c0.5,2.1,1.4,3,4.2,2.5l1.7-7.1c0.4-1.7,0.7-3.1,1-4.9
		l0,0c0.2,1.8,0.5,3.1,0.8,4.9c0,0,0.7,3.3,1.1,5c0.4,1.7,1.4,2.8,4.1,2.2l4.2-15.9h-3.4l-1.3,6.7c-0.4,2-0.7,3.6-1,5.4l0,0
		c-0.2-1.8-0.5-3.3-0.9-5.2l-1.5-7h-3.6l-1.6,6.8c-0.4,2-0.9,3.8-1.1,5.5l0,0c-0.3-1.6-0.6-3.8-1-5.8c0,0-0.9-4.9-1.3-6.5H-138.4"/>
	<path id="Fill-30_1_" class="st0" d="M-108.3,198.2c0-2.7-1.1-5.1-5.1-5.1c-2,0-3.6,0.6-4.5,1l0.6,2.1c0.8-0.5,2-0.9,3.3-0.9
		c1.9,0,2.3,1.1,2.3,1.8v0.2c-4.3,0-7,1.5-7,4.5c0,1.8,1.4,3.6,3.8,3.6c1.5,0,2.8-0.6,3.5-1.5h0.1c0,0,0.5,2,3.2,1.2
		c-0.1-0.8-0.2-1.7-0.2-2.9v-4.1H-108.3z M-111.5,201c0,0.2,0,0.4-0.1,0.6c-0.2,0.8-1.1,1.5-2.1,1.5c-0.9,0-1.6-0.5-1.6-1.5
		c0-1.6,1.8-2,3.9-2V201L-111.5,201z"/>
	<path id="Fill-31_1_" class="st0" d="M-102.9,201.9v-12.5h-3.3v15.9h3.3V201.9"/>
	<path id="Fill-32_1_" class="st0" d="M-60.7,189.4v11.7c0,1.6,0.3,2.8,0.9,3.5c0.6,0.6,1.5,1,2.7,1c0.9,0,1.9-0.2,2.3-0.3v-2.6
		c-0.3,0.1-0.7,0.1-1.2,0.1c-1.1,0-1.4-0.7-1.4-2.1v-4.5h2.9v-3.1h-2.9v-3.8H-60.7"/>
	<path id="Fill-33_1_" class="st0" d="M-69,193.3v12h3.4v-6.1c0-0.3,0-0.6,0.1-0.9c0.2-1.3,1.2-2.1,2.7-2.1c0.4,0,0.6,0,0.9,0.1
		v-3.1c-0.2,0-0.4-0.1-0.7-0.1c-1.2,0-2.7,0.8-3.3,2.6H-66v-2.2H-69"/>
	<path id="Fill-34_1_" class="st0" d="M-100.6,193.3v12h3.3v-7c0-0.3,0-0.7,0.1-1c0.3-0.7,0.9-1.5,1.9-1.5c1.3,0,1.9,1.1,1.9,2.7
		v6.8h3.3v-7c0-0.3,0-0.7,0.1-0.9c0.3-0.8,1-1.4,1.9-1.4c1.3,0,1.9,1.1,1.9,3v6.5h3.3v-7c0-3.7-1.8-5.2-4-5.2
		c-0.9,0-1.6,0.2-2.3,0.6c-0.6,0.3-1,0.8-1.5,1.5l0,0c-0.5-1.3-1.7-2.1-3.3-2.1c-2,0-3,1-3.5,1.9l0,0v-1.6H-100.6"/>
	<path id="Fill-35_1_" class="st0" d="M-24.2,204.6c0.3,0,0.6,0.2,0.6,0.5s-0.2,0.5-0.6,0.5c-0.3,0-0.6-0.2-0.6-0.5
		C-24.8,204.9-24.6,204.6-24.2,204.6L-24.2,204.6L-24.2,204.6z M-24.2,204.7c-0.2,0-0.4,0.2-0.4,0.4c0,0.2,0.2,0.4,0.4,0.4
		c0.2,0,0.4-0.2,0.4-0.4C-23.7,204.9-23.9,204.7-24.2,204.7L-24.2,204.7L-24.2,204.7z M-24.2,205.4h-0.1v-0.5c0.1,0,0.1,0,0.2,0
		s0.1,0,0.2,0l0.1,0.1c0,0.1,0,0.1-0.1,0.1l0,0c0.1,0,0.1,0.1,0.1,0.1c0,0.1,0,0.1,0,0.1h-0.1v-0.1c0-0.1,0-0.1-0.1-0.1h-0.1v0.3
		H-24.2z M-24.2,205.1L-24.2,205.1c0.1,0,0.2,0,0.2-0.1s0-0.1-0.1-0.1h-0.1V205.1L-24.2,205.1z"/>
</g>
<g id="Imported-Layers-Copy-5" transform="translate(196.000000, 76.000000)" sketch:type="MSShapeGroup">
	<path class="st0" d="M29,199.3c0-15.5-12.6-28.1-28.1-28.1H0.8c-1.9,5.7-4.1,11.3-6,17c1.4,0,2.9,0,4.4,0c1,0,2.1,0.5,2.8,1.4
		c0.7,1,0.6,2.3,0.2,3.6c-1.9,5.5-4,11.1-5.9,16.6c-1.7,0-3.5,0-5.2,0c-0.2,0-0.5,0-0.7-0.1c2.2-6.1,4.4-12.3,6.5-18.4
		c-1,0-2,0-3.2,0c-0.2,0.3-0.3,0.7-0.4,1c-2,5.6-4,11.3-6,17c-0.1,0.1-0.1,0.4-0.3,0.4c-1.6,0-3.4,0-5,0c-0.3,0-0.6,0-0.9-0.1
		c4.5-12.5,9-25.1,13.5-37.7c-12.5,2.9-21.8,14-21.8,27.4c0,13.1,9,24.1,21,27.2c4.5-12.7,9.1-25.3,13.6-38c0-0.1,0.1-0.3,0.2-0.4
		c2.8,0,5.6,0,8.4,0c0.9,0,1.8-0.1,2.8,0.2c1,0.3,1.9,1,2.2,2c0.2,0.8,0.1,1.7-0.2,2.5c-1.7,5.2-3.7,10.4-5.5,15.5
		c-0.4,1.3-1.8,2.2-3.2,2.2c-2.1,0-4.4,0-6.5,0c-2,5.5-4,11.1-5.9,16.6c0.4,0,0.9,0,1.3,0C16.3,227.4,29,214.9,29,199.3"/>
	<path class="st0" d="M9.8,207.4c1.8-5.4,3.8-10.7,5.7-16c-0.8,0-1.6,0-2.5,0c-0.2,0-0.5-0.1-0.7,0.1c-1.9,5.3-3.8,10.6-5.7,16
		C7.6,207.5,8.6,207.5,9.8,207.4"/>
</g>
<g id="Imported-Layers-Copy-6" transform="translate(115.000000, 70.000000)" sketch:type="MSShapeGroup">
	<path class="st0" d="M126.8-35c1.1,0,1.6-0.1,2.3-0.8c-0.4,0.1-1.8-0.6-2.6-0.9c-0.8-0.3-1.8,0.5-2.2,0.4c-0.5-0.2-0.8-0.5-1.7-1.2
		c0.2-0.4,0.7-0.5,1.7-0.8c0.6,0.5,2.3,0.8,2.8,0.5c-1.7-0.9-1.7-1.8-1.7-1.8l2.5-0.1c0,0,0-0.2-0.5-0.7c0.5-0.1,2-0.7,2-0.7
		s-0.6,0-1.5,0c-0.2-0.4,0-0.7,1.3-1.8c-0.7,0-3.1,0.1-4.2,0c-0.3-1.3-1.8-0.3-1.9-0.2c-0.2-0.1-0.5,0-2-0.4
		c0.2-0.4,0.4-1.1,0.2-1.8c-1.1,1.6-2.2,2.4-2.6,2.1c-0.4-0.3-1.1-0.3-1.8,0.3c-1.2,0.1-2.1-0.3-0.9-1.2c1.3-0.1,3.2-1.3,3.1-2.2
		c-3,1.3-4.6,0.6-6.2-0.1c0.3-0.9,2.2-0.3,3.6,0c1.3,0.3,1.7-0.4,1.7-0.4s-0.1-0.2-0.6-0.7c1.6,0.2,4.4-1.5,5.5-2.2
		c-0.8-0.6-4.5,0.4-4.5,0.4s-0.1-0.1-0.1-0.6c-0.5-0.1-2.2,1.2-3,1.1c-0.7-0.1-0.8-0.3-0.8-0.3s-0.4,0.2-2.1-0.3
		c-1.2-1.1-2.3-0.3-2.3-0.3s0.5-0.7,0.4-1.6c-0.5,0.4-1.7,0.8-2.8,0.7c-0.2-0.3-0.1-0.9,0.4-1.5c-1.4,0-4.3,2.2-5.8,3.6
		c-0.9,0.1-2.2-1.1-2.2-1.1l-1.7,1.4c0,0-0.2,0.3-0.7-0.1c0.6-0.9,0.3-1.2-0.1-1.4c-0.4-0.2-0.5-0.8,0-1.5c-0.7,0-3.3,1.9-3.3,1.9
		l-0.3-0.7c0,0-0.5,0.2-1.4,0.8c-1.4-1.2-1.4-0.9-3.3-1.9c-0.3,0.4,0.2,2,0.2,2L86.9-50c0,0-0.1,1.2-1.2,1.2s-6.1-0.6-8.9-0.8
		c-1.1,0.2-1.6,1.1-2,1.2c-0.4,0-2.2,1.3-1.7,1.6c5.6-1.2,7,0.7,7,0.7l-1.7,0.1c0,0,0,0.2,0.1,1.1c-0.9,0.2-5.3-0.3-5.8,0
		c-0.5,0.4,2.1,1.1,1.8,1.3c-0.3,0.2-0.6,0-2-0.3c-1.3-0.3-2.4,0.4-2.4,0.8S73-42,73-42L72-41.5c0,0,2.2,0.3,3.2,0.7
		c-1.4,0.9-2.4,0.3-3.6,0c-0.4,0.6-2.1,1.2-2.1,1.2l-0.8,0.4c0,0,2.1-0.1,2.5,0.4c-0.1,1.3-3,1.2-3,1.2s-0.6,0.8-0.1,1.1
		c0.4,0.3,3.3,0,4.2,0c1.1,0,1.7,0.8,0.9,1.1c-0.7,0.3-2.5,0-2.5,0s0,1.1-0.2,1.5c-0.2,0.4-1.1,0.3-2.8,0c0,0.3,1.8,1.1,1.8,1.1
		l-0.4,0.4c0,0,1.8,0.4,3,0.1c0,0.7-1.6,1.6-3,2.2c0.3,0.2,3.2-0.1,4-1.3c0.3,0.7,2.7,0.7,2.7,0.7s0,0-0.4-0.8
		c0.5-0.3,2.2,0.2,2.8,0.3c-0.6-0.6-0.8-2.1-0.8-2.1l0.8,0.3c0,0,0.4-0.1,0.7-0.3c0.6,0.4,2.8,0.8,3.8,1.7c0.6,0,2.8-0.6,4-0.5
		c-0.4,0.9-0.8,1.1-2.1,1.8c0.8,0.2,2.6,0.1,3.9,0c-0.1,0.4-0.3,1.1-0.7,1.6c3.1,0,2.5-1.5,2.5-1.5s0,0,0.4-0.1c0.6,0.7,2.3,4,3,4.7
		c0.6,0.6,2.1,2.8,2.3,3.5c0.2,0.6,0.3,5.7,0.3,8.5S95.8,7.6,95.8,7.6S95,8,94.3,8.3C93.8,7.8,94,2,94,2s0,0-0.5-1.4
		c-0.5-1.3,0-4.4,0-4.4s0.4,0.8,0.7,2.2c0.4,1.3,0.2,3.1,0.2,3.1l0.2,1.6c0,0,0,1.9,0.3,2.5c0.5,0,0.2-3.3,0.2-3.3l-0.3-0.8
		c0,0,0.1-0.8,0-2.8c-0.2-3.7-0.9-5.5-3.4-7c-2.1-1.4-4.1-0.4-5.8-2.1c-2-2.6-2.3-3.3-4.4-5.5c-0.2-0.8-0.4-2.4-1.4-4.2
		c-0.8-1.8-1.2-4-1.6-5.5c0.5-0.1,1.2-0.8,1.4-1.5c-0.6-0.2-1.6,0.4-1.6,0.4s-0.3-1.3-0.4-1.6c-0.1-0.3-0.5-0.5-0.6-0.2
		c-0.1,0.3,0,1.4,0,1.4s-0.4-1.1-0.5-1.2c-0.1-0.2-0.4-0.3-0.4-0.1c0,0.2,0,1.4,0,1.8c-0.6,0-1.2-0.2-1.8-0.2c0,0.8,0.8,1.2,1.5,1.4
		c0.2,0.2,0.1,1.1,0,1.3c-0.2,0.2-0.3,0.5-0.3,0.8c0,0.3,0.3,0.6,0.3,0.6l0.5-0.2l0.4-0.4c0,0,0.2-0.3,0.4,0
		c-0.3,4,0.7,10.5,1.1,11.9c0.3,0.9,0.6,2.8,0.2,3.5c-0.4,1.5,0.2,2.7,0.7,3.7C80.3-2.7,81,0.9,81,0.9s0,0-0.2,0.2
		c-0.9,0.3-3,0.3-3.6,0.1c-0.4-0.1-1.4-0.7-1.9-0.8c-0.5-0.1-2.5,0-2.5,0S72.3-0.3,72-0.6c-0.1,0-0.2,0.4-0.2,0.8
		c0,0-1.6,0.7-1.8,0.9s-0.2,0.9-0.2,0.9L69,3.4c0,0,0.7,1.2,1.2,1.4c0,0,0.9-0.5,1.7-0.7c0.8,0.2,0.8,1.2,1.3,1.4
		c0.3-0.3,0.2-1.1,0.3-0.9c0,0.1,0.8,0.7,1.1,0.8c0.2,1.8-0.2,4.3-0.2,4.3s-0.3,0.6-0.8,1.2c0,0-0.3,0-0.7-0.1
		c-0.4,0.1-0.2,0.6-0.2,0.6h-1.1v32h54.7v-32h-0.7c0,0,0-0.4,0-0.6c0.4-1.1,0.9-3.3,0.3-5c0.4-0.9,0.1-2-0.2-3.6
		c0.3,0.4,1.3,0.2,1.3,0.2s0,0,0.2-0.3c0.2-0.8-0.3-1.4-0.3-1.4s0-0.4,0.3-0.6c0.5-0.2,0.1-0.6-0.2-0.7c-0.1-0.7-0.7-1.1-1.2-1.6
		c-0.8-0.6-1.2-0.3-2.1,0.6c-0.8,0.3-1.6,1.2-1.6,1.2l-1.1,0.9c0,0-0.1,0.2-1.4,0.5c-1.2,0-3-0.3-3.8,0c-3.1,1.1-1.9,4.1-1.3,5.9
		c-0.8,1.1-1.6,4.4-1.6,4.4h-0.3c-0.1-1.5,0.3-6.2,0.5-8.5c0.7-2,1.4-3.7,1.3-5.3c0.9-1.6,0.8-6.2,0.8-6.2s0.2,0.2,0.8,0.4
		c0.8,0,0.7-0.5,0.8-0.9c0-0.4-0.8-1.6-0.8-1.6s-0.3-0.6-0.3-1.2c1.6-0.5,1.7-1.8,1.6-2.5c-0.2,0-1.8,0.9-2.4,1.5
		c0.2-4.7-0.8-5.6-0.8-5.6s0.2,1.2,0.2,1.9c0,0.8-0.2,3.8-0.2,3.8l-0.3,0.2c0,0-1.9-3.3-3.2-5.2c0,0.5,0.8,2.7,2.1,5.2
		c-0.6-0.6-2.1-1.5-2.1-1.5s0.1,1.3,0.4,2c0.3,0.6,1.1,0.6,1.6,1.2c0.2,2.7-1.1,5.2-1.1,5.2s-1.1,0.2-2.4,0.3
		c-2-0.5-3.4-0.5-4.6,0.4c-1.4,0.9-1.1,5.7-1.1,5.7s0,0.7-0.5,1.8c-0.3,1.5,0.2,2.8,0.5,2.6c0.1-1.2,0.2-4.4,0.4-5.3
		c0,1.7,0.6,3.8,0.9,4.8c0.2,1.1,0,1.8,0.2,2.8c0.2,1.1,0.2,3.9,0.2,3.9h-2.7c0,0-0.7-33.3-0.1-36.4c0.5-2.5,2.2-4.6,2.2-4.6
		s0.3-0.6,1.3-0.6c0.9-0.1,1.5,0.7,2.2,1.3c0.5-0.1,0.1-1.4,0.2-1.7c0.1-0.4,1.5,0.5,2.1,0.6c0.6,0.1,2.3,0.3,3.2,0.5
		c0-0.4-0.9-1.8-0.9-1.8s1.1,0.8,1.6,1.4c0.5-0.1,0.6-0.9,1.4-1.1c0.8-0.1,2.1,0.7,3.4,0.6c0.5,0.2,1.5,0.8,1.5,0.2
		c0-0.5-1.5-1.1-1.2-1.7c0.8-0.3,2.8,0.5,3.4,0.8c0.5,0.2,1.2-0.1,1.9-0.3c-0.1-0.6-0.7-0.8-1.5-1.1c-0.7-0.2-1.3-0.6-1.2-1.5
		c0.7,0.5,3.1,1.4,3.1,1.4s0.8-0.4,1.7,0.1c0.8,0.5,1.2,0.3,2.2,0.3c-0.3-1.1-2.1-2-2.1-2S125.8-34.7,126.8-35L126.8-35z M98.7-34.6
		c0.5-0.2,1.8,1.1,1.8,1.1l1.2,1.9c0,0,0.3,0.2,0,0.8c-0.3,0.9-1.4,2.2-1.4,2.2l-2.3-2.2c0,0-0.1-1.3-0.1-2
		C98.3-33.4,98.7-34.6,98.7-34.6L98.7-34.6z M96-34.5c0,0,0.8-0.4,1.4-0.4c-0.4,1.7-1.6,2.7-1.6,2.7l-2.2-1.4
		C94-34.1,96-34.5,96-34.5L96-34.5z M94-28.9l-1.8-3.3l0.3-0.1c0,0,1.7,1.3,2.1,1.6c0.5,0.3,2.5,1.5,2.5,1.5s0.8,1.6,1.6,2.2
		c0.2,0.6-0.1,2.1-0.4,2.3C98-24.8,94-28.9,94-28.9L94-28.9z M94.5,9.1c0.3-0.1,1.3-0.6,1.3-0.6v2.7h-1.3c0,0,0.3-0.8,0.3-1.2
		C94.7,9.9,94.5,9.1,94.5,9.1L94.5,9.1z M92.5,3.7c0.3,0.4,0.6,1.3,0.6,1.6c0,0.4,0.1,2.3,0.2,3.2c-1.2,0-1.7-0.2-2.3-0.8
		C91.1,6.7,92.5,3.7,92.5,3.7L92.5,3.7z M93.5,9.5c0.1,0.5,0,1.1,0,1.1S93,10.9,93,11.4h-3.2c0,0,0-0.8,0.1-0.9
		c0.1-0.2,0.6-1.3,0.7-1.6C91.7,9.3,93,9.6,93.5,9.5L93.5,9.5z M88.2,8.2c-0.2-0.8-0.9-3.2-0.9-3.2s0.8,0.8,1.1,0.9
		c0.2,0.1,1.2,1.7,1.7,2.3c-0.4,0.5-1.4,3-1.4,3h-0.7c0,0,0-0.2,0.1-0.6C88.1,10,88.6,9.1,88.2,8.2L88.2,8.2z M83.6-2
		c0,0,1.1,0,1.4-0.1c0.3,0,1.2,0.6,2,0.7c0.7,0.1,1.4-0.1,1.7-0.3c0,0,0.1,0,0.4,0.1l1.1,2.4c0,0,0.2,1.7,0.4,2.8
		c0,0.9-0.5,3.1-0.5,3.1s-0.5-0.5-1.2-2.1c-0.6-2.1-1.4-2.8-2.2-3.4c-1.1-0.6-3.3-0.7-3.3-0.7L83.6-2L83.6-2z M84.2,9.1
		c-0.2-0.3-0.1-0.9,0-1.5c0-0.5,0.4-1.3,0.4-1.3s2,2.1,2.6,3.1c0.1,0.6-0.2,1.3-0.2,1.3s-0.3-0.1-0.8-0.1c-0.4,0.1-0.3,0.7-0.3,0.7
		h-2.7C83.4,11,84.6,9.5,84.2,9.1L84.2,9.1z M78.4,9.5l0.1-3c0.8,0.1,2.7-0.1,3.6-0.4c0,0.7,0.4,1.8,0.8,2.4
		c0.1,0.3,0.1,1.3,0.1,1.3s-0.3,0.3-0.8,0.8c-1.8-0.4-1.2,0.6-1.2,0.6h-3.2C78,11.2,78.4,9.5,78.4,9.5L78.4,9.5z M75.1,10.3
		c0.2-0.4,1.1-2.6,1.1-3.1h0.4c0,0,0.5,1.2,0.6,1.7c0.1,0.5-0.1,1.8-0.1,1.8c-0.2-0.2-1.1-0.4-1.2,0.5h-1.3
		C74.5,11.3,74.9,10.7,75.1,10.3L75.1,10.3z M73.3,23.7H124v17.7H73.3V23.7z M122.2,5.1c0.3,0.4,0.1,0.9,0.3,2.1
		c0.1,1.1,0.3,2.1,1.2,3.3c-0.1,0.3-0.5,0.6-0.4,0.8h-1.9c0,0-0.4-0.9-1.6-1.2c0-0.9-0.1-2.3-0.3-2.7c-0.2-0.4-0.1-0.8-0.2-0.8
		C119.3,6.5,121.7,5.5,122.2,5.1L122.2,5.1z M116.1,8.9c0.1-0.3,0.5-1.1,0.5-1.1s0.2,0.1,0.2,0.2c0,0.1,0.3,1.4,0.7,2
		c0.2,0.3,0.5,1.4,0.5,1.4h-1.2c0-0.7-1.4-0.9-1.4-0.9S115.6,9.5,116.1,8.9L116.1,8.9z M111.6,2.6v8.6h-0.7c0,0,0.1-7.7-0.1-8.5
		L111.6,2.6L111.6,2.6z M107.2,9.7c0-0.4,0.1-1.8,0.1-2c0.2-0.3,0.2-0.9,0.2-2.2c0.2-1.5,0.4-2.6,0.4-2.6s0.6,0.1,1.4,0
		c0.1,0.6,0.4,2.1,0.7,2.7c0.2,1.6,0.2,2,0.3,2.2c0,1.3,0,3.2,0,3.5h-3.2C107.1,11.3,107.1,10.1,107.2,9.7L107.2,9.7z M105.7,2.2
		c0,0,0.4,0.4,0.9,0.5c0,1.1,0,3.3,0,3.3s-0.3,0.5,0,1.4c0,0.6-0.2,1.2-0.2,1.3c0,0.2,0,2.6,0,2.6H106c0,0-0.2-3.1-0.2-3.5
		C105.7,7.4,105.7,2.9,105.7,2.2L105.7,2.2z M73.3,13.1H124v9H73.3V13.1z M103.5-32.8l-1.1-1.2l1.7-1.6c0,0,0.1-0.4,0.7-0.4
		s1.5,0.4,1.5,0.4L103.5-32.8L103.5-32.8z"/>
	<path class="st0" d="M78.2,19c0-0.2,0-0.3-0.1-0.5c-0.1-0.1-0.2-0.2-0.4-0.4c-0.1-0.1-0.3-0.2-0.5-0.3c-0.2-0.1-0.3-0.3-0.5-0.4
		c-0.1-0.2-0.3-0.3-0.4-0.6c-0.1-0.2-0.1-0.5-0.1-0.8s0-0.5,0.1-0.7s0.2-0.4,0.3-0.5s0.3-0.2,0.5-0.3c0.2-0.1,0.4-0.1,0.6-0.1
		c0.3,0,0.5,0,0.7,0.1c0.2,0.1,0.4,0.1,0.6,0.2l-0.3,0.9c-0.1-0.1-0.2-0.1-0.4-0.2s-0.4-0.1-0.5-0.1c-0.2,0-0.4,0-0.5,0.1
		s-0.2,0.2-0.2,0.4c0,0.2,0,0.3,0.1,0.4c0.1,0.1,0.2,0.2,0.4,0.4c0.1,0.1,0.3,0.2,0.5,0.4c0.2,0.1,0.3,0.3,0.5,0.4
		c0.1,0.2,0.3,0.4,0.4,0.6s0.1,0.5,0.1,0.8s0,0.6-0.1,0.8c-0.1,0.2-0.2,0.4-0.3,0.5c-0.1,0.1-0.3,0.3-0.5,0.3
		c-0.2,0.1-0.4,0.1-0.7,0.1c-0.3,0-0.6,0-0.8-0.1c-0.2-0.1-0.4-0.1-0.5-0.2l0.3-1.1c0.1,0.1,0.2,0.1,0.4,0.2
		c0.2,0.1,0.4,0.1,0.6,0.1C77.9,19.7,78.2,19.4,78.2,19"/>
	<path class="st0" d="M82,19.2h-1.3l-0.3,1.5h-0.9l1.6-6.3h0.7l1.6,6.3h-1.1L82,19.2L82,19.2z M80.9,18.2h0.9l-0.3-1.5l-0.1-0.9l0,0
		l-0.2,0.9L80.9,18.2L80.9,18.2z"/>
	<path class="st0" d="M85,17.5l-0.3-1.1l0,0l0.1,1.1v3.1h-0.9v-6.3h0.7l1.6,3.2l0.3,1.1l0,0l-0.1-1.1v-3.2h0.9v6.3h-0.7L85,17.5"/>
	<path class="st0" d="M89.7,14.3h2.7v1.1h-1.8V17h1.7V18h-1.7v2.5h-1.1v-6.2"/>
	<path class="st0" d="M93,14.3c0.2-0.1,0.4-0.1,0.7-0.1c0.2,0,0.4,0,0.6,0c0.2,0,0.4,0,0.6,0.1c0.2,0,0.4,0.1,0.5,0.3
		c0.2,0.1,0.3,0.3,0.4,0.5S96,15.7,96,16c0,0.5-0.1,0.9-0.2,1.3c-0.2,0.3-0.4,0.5-0.7,0.6l0.3,0.3l1.1,2.4h-1.2l-0.9-2.5L93.9,18
		v2.6h-1.1v-6.3H93z M94,17.2h0.3c0.2,0,0.4-0.1,0.5-0.2c0.1-0.2,0.2-0.4,0.2-0.8c0-0.3-0.1-0.5-0.2-0.6c-0.1-0.2-0.3-0.2-0.5-0.2
		c-0.1,0-0.2,0-0.2,0c-0.1,0-0.1,0-0.2,0v1.9H94z"/>
	<path class="st0" d="M99,19.2h-1.3l-0.3,1.5h-0.9l1.6-6.3h0.7l1.6,6.3h-1.1L99,19.2L99,19.2z M97.9,18.2h0.9l-0.3-1.5l-0.1-0.9l0,0
		l-0.2,0.9L97.9,18.2L97.9,18.2z"/>
	<path class="st0" d="M101.9,17.5l-0.3-1.1l0,0l0.1,1.1v3.1h-0.9v-6.3h0.7l1.6,3.2l0.3,1.1l0,0l-0.1-1.1v-3.2h0.9v6.3h-0.7
		L101.9,17.5"/>
	<path class="st0" d="M108.3,20.4c-0.1,0.1-0.3,0.2-0.5,0.3c-0.2,0.1-0.4,0.1-0.7,0.1s-0.5-0.1-0.8-0.2c-0.2-0.1-0.4-0.3-0.6-0.5
		c-0.2-0.2-0.3-0.6-0.4-1.1c-0.1-0.4-0.2-0.9-0.2-1.6s0.1-1.2,0.2-1.6s0.3-0.7,0.4-0.9c0.2-0.2,0.4-0.4,0.6-0.5
		c0.2-0.1,0.5-0.1,0.7-0.1c0.2,0,0.5,0,0.6,0.1c0.2,0,0.3,0.1,0.4,0.2l-0.2,0.9c-0.1-0.1-0.2-0.1-0.3-0.1c-0.1,0-0.3,0-0.5,0
		c-0.3,0-0.6,0.2-0.8,0.5s-0.3,0.9-0.3,1.7c0,0.3,0,0.6,0.1,0.9c0,0.3,0.1,0.5,0.2,0.7s0.2,0.3,0.4,0.4c0.1,0.1,0.3,0.2,0.5,0.2
		c0.2,0,0.3,0,0.5-0.1c0.1-0.1,0.2-0.1,0.3-0.2L108.3,20.4"/>
	<path class="st0" d="M108.8,14.3h1.1v6.3h-1.1V14.3z"/>
	<path class="st0" d="M112.6,19c0-0.2,0-0.3-0.1-0.5c-0.1-0.1-0.2-0.2-0.4-0.4c-0.1-0.1-0.3-0.2-0.5-0.3c-0.2-0.1-0.3-0.3-0.5-0.4
		c-0.1-0.2-0.3-0.3-0.4-0.6c-0.1-0.2-0.1-0.5-0.1-0.8s0-0.5,0.1-0.7c0.1-0.2,0.2-0.4,0.3-0.5s0.3-0.2,0.5-0.3
		c0.2-0.1,0.4-0.1,0.6-0.1c0.3,0,0.5,0,0.7,0.1c0.2,0.1,0.4,0.1,0.6,0.2l-0.3,0.9c-0.1-0.1-0.2-0.1-0.4-0.2
		c-0.2-0.1-0.4-0.1-0.5-0.1c-0.2,0-0.3,0-0.5,0.1c-0.1,0.1-0.2,0.2-0.2,0.4c0,0.2,0,0.3,0.1,0.4c0.1,0.1,0.2,0.2,0.4,0.4
		c0.1,0.1,0.3,0.2,0.5,0.4c0.2,0.1,0.3,0.3,0.5,0.4c0.1,0.2,0.3,0.4,0.4,0.6c0.1,0.2,0.1,0.5,0.1,0.8s0,0.6-0.1,0.8
		c-0.1,0.2-0.2,0.4-0.3,0.5c-0.1,0.1-0.3,0.3-0.5,0.3c-0.2,0.1-0.4,0.1-0.7,0.1c-0.3,0-0.6,0-0.8-0.1c-0.2-0.1-0.4-0.1-0.5-0.2
		l0.3-1.1c0.1,0.1,0.2,0.1,0.4,0.2c0.2,0.1,0.4,0.1,0.6,0.1C112.3,19.7,112.6,19.4,112.6,19"/>
	<path class="st0" d="M117.2,20.4c-0.1,0.1-0.3,0.2-0.5,0.3c-0.2,0.1-0.4,0.1-0.7,0.1c-0.3,0-0.5-0.1-0.8-0.2
		c-0.2-0.1-0.4-0.3-0.6-0.5c-0.2-0.2-0.3-0.6-0.4-1.1s-0.2-0.9-0.2-1.6s0.1-1.2,0.2-1.6s0.3-0.7,0.4-0.9c0.2-0.2,0.4-0.4,0.6-0.5
		c0.2-0.1,0.5-0.1,0.7-0.1s0.5,0,0.6,0.1c0.2,0,0.3,0.1,0.4,0.2l-0.2,0.9c-0.1-0.1-0.2-0.1-0.3-0.1c-0.1,0-0.3,0-0.5,0
		c-0.3,0-0.6,0.2-0.8,0.5c-0.2,0.3-0.3,0.9-0.3,1.7c0,0.3,0,0.6,0.1,0.9c0,0.3,0.1,0.5,0.2,0.7c0.1,0.2,0.2,0.3,0.4,0.4
		c0.1,0.1,0.3,0.2,0.5,0.2c0.2,0,0.3,0,0.5-0.1c0.1-0.1,0.2-0.1,0.3-0.2L117.2,20.4"/>
	<path class="st0" d="M117.4,17.5c0-1.1,0.2-1.9,0.5-2.4c0.3-0.5,0.8-0.8,1.5-0.8c0.3,0,0.6,0.1,0.8,0.2c0.2,0.1,0.4,0.4,0.6,0.6
		c0.2,0.3,0.3,0.6,0.3,1.1c0.1,0.4,0.1,0.8,0.1,1.4c0,1.1-0.2,1.9-0.5,2.4c-0.3,0.5-0.8,0.8-1.5,0.8c-0.3,0-0.6-0.1-0.8-0.2
		c-0.2-0.1-0.4-0.4-0.6-0.6c-0.2-0.3-0.3-0.6-0.3-1.1C117.4,18.3,117.4,17.9,117.4,17.5L117.4,17.5z M118.5,17.5c0,0.3,0,0.6,0,0.8
		c0,0.3,0.1,0.5,0.1,0.7c0.1,0.2,0.2,0.3,0.3,0.4c0.1,0.1,0.2,0.2,0.4,0.2c0.3,0,0.5-0.2,0.7-0.5c0.1-0.3,0.2-0.9,0.2-1.7
		c0-0.3,0-0.6,0-0.8c0-0.3-0.1-0.5-0.1-0.7c-0.1-0.2-0.2-0.3-0.3-0.5c-0.1-0.1-0.2-0.2-0.4-0.2C118.7,15.2,118.5,15.9,118.5,17.5
		L118.5,17.5z"/>
	<path class="st0" d="M113.5,39.7c-4.6,0-8-3.3-8-7.7c0-4.4,3.4-7.7,8-7.7c4.7,0,8.1,3.2,8.1,7.7S118.3,39.7,113.5,39.7L113.5,39.7z
		 M119.4,32.1c0-3.4-2.4-5.7-5.8-5.7s-5.8,2.4-5.8,5.7c0,3.2,2.5,5.6,5.8,5.6C117,37.7,119.4,35.4,119.4,32.1L119.4,32.1z"/>
	<path class="st0" d="M95.4,39.7c-4.6,0-8-3.2-8-7.7c0-4.4,3.4-7.7,7.9-7.7c4.7,0,8.1,3.2,8.1,7.7C103.5,36.6,100.2,39.7,95.4,39.7
		L95.4,39.7z M95.5,37.7c3.4,0,5.8-2.4,5.8-5.7s-2.5-5.7-5.9-5.7c-3.3,0-5.7,2.4-5.7,5.6C89.7,35.3,92.1,37.7,95.5,37.7L95.5,37.7z"
		/>
	<path class="st0" d="M87.2,37.8v1.7H74c1.7-2.2,3.3-4.3,4.8-6.4s3.2-4.2,5.1-6.6h-3.6h-4.8v-1.7h12.1c-3.3,4.3-6.5,8.5-9.9,13.1
		H87.2"/>
</g>
<g id="Imported-Layers-Copy-7" transform="translate(1.000000, 83.189189)" sketch:type="MSShapeGroup">
	<path class="st0" d="M36.3,142.1l-2.2-0.8c-0.6-0.3-0.9-0.7-0.8-1.4l0.9-22c0-0.8-0.4-0.4-0.7,0l-21.2,22.9
		c-0.3,0.3-0.4,0.4-0.9,0.7l-1,0.5c-0.7,0.5-0.4,0.5,0.4,0.5h8.3c1.2,0,1.3-0.1-0.1-0.4l-3-0.5c-0.8-0.2-1.3-0.5-0.7-1.3l5.8-7.1
		c1.1-1.3,1.3-1.2,3-1.2c2.5,0.1,3,0,5.5,0.3c1,0.1,1.3,0,1.2,1.2l-0.5,6.7c-0.1,0.8-0.3,0.9-0.8,1.1l-3.1,0.8
		c-0.9,0.3-1.1,0.4-0.2,0.4h9.7C37.1,142.5,37,142.4,36.3,142.1L36.3,142.1z M31,123.3l-0.2,6.9c0,0.5-0.1,1-1.2,1l-5.6-0.2
		c-0.6,0-1.1-0.4-0.4-1.1l6.2-6.7C31,121.9,31.1,122.6,31,123.3L31,123.3z"/>
	<path class="st0" d="M46.6,120.6l-4.7,19.2c-0.3,0.9-0.4,1.4-0.9,1.5l-2.5,0.7c-0.3,0.1-1.7,0.4,0,0.4h8.7c1.9,0,1.1-0.3,0.3-0.5
		l-1.9-0.5c-0.5-0.2-0.9-0.4-0.6-1.4l4.7-19.7c0.3-1,0.4-1.2,1.1-1.5l1.7-0.5c0.4-0.1,0.4-0.2-0.5-0.2h-7.7c-1.5,0-1.1,0.2-0.1,0.4
		c0,0,0.7,0.2,1.5,0.4C45.8,118.8,47,119,46.6,120.6"/>
	<path class="st0" d="M75.1,119c-6.3-1.3-13.7,0.7-17.1,8.6c-4.4,10.2,4.2,15.7,11.2,14.1c0.7-0.2,1-0.1,1.3-0.9l0.9-3.8
		c0.1-0.4,0.3-1-0.5-1.2l-3.7-1c-0.8-0.2-1.6-0.4-0.4-0.4h7.8c0.8,0,0.8,0.2,0.7,0.8l-1.4,4.6c-0.2,0.9-0.3,1-0.9,1.3
		c-11.3,4.3-18.9,0.3-19.6-7.4c-0.7-6.7,7.6-18.9,24-15.3c0.9,0.2,1,0.4,0.7,1.2l-1.8,5.5c-0.4,1.3-0.5,1-0.4-0.4l0.2-4.4
		C76.1,119.2,75.6,119.1,75.1,119"/>
	<path class="st0" d="M101.2,142.1l-2.2-0.8c-0.6-0.3-0.9-0.7-0.8-1.4l0.9-22c0-0.8-0.4-0.4-0.7,0l-21.2,22.9
		c-0.3,0.3-0.4,0.4-0.9,0.7l-1,0.5c-0.7,0.5-0.4,0.5,0.5,0.5H84c1.2,0,1.3-0.1-0.1-0.4l-3-0.5c-0.8-0.2-1.3-0.5-0.7-1.3l5.8-7.1
		c1.1-1.3,1.3-1.2,3-1.2c2.5,0.1,3,0,5.5,0.3c1,0.1,1.3,0,1.2,1.2l-0.5,6.7c-0.1,0.8-0.3,0.9-0.8,1.1l-3.1,0.8
		c-0.9,0.3-1.1,0.4-0.2,0.4h9.7C102,142.5,102,142.4,101.2,142.1L101.2,142.1z M96.1,123.3l-0.3,6.9c0,0.5-0.1,1-1.2,1l-5.6-0.2
		c-0.6,0-1.1-0.4-0.4-1.1l6.2-6.7C96,121.9,96.2,122.6,96.1,123.3L96.1,123.3z"/>
</g>
<g id="Imported-Layers-Copy-2" transform="translate(0.000000, 7.000000)" sketch:type="MSShapeGroup">
	<path class="st0" d="M23.9,147.3L23.9,147.3c-1.4,1.5-3.1,2.2-4.7,2.2c-3.4,0-5.9-2.6-5.9-6.1s2.5-6.1,5.9-6.1
		c1.6,0,3.3,0.7,4.6,2.1l0.1,0.1l2.1-2.7l-0.1-0.1c-1.8-2.1-4-3.2-6.7-3.2c-2.7,0-5.2,0.9-6.9,2.6c-1.9,1.7-3,4.3-3,7.3s1,5.5,3,7.3
		c1.7,1.6,4.3,2.6,6.9,2.6s4.9-1,6.7-3.2l0.1-0.1L23.9,147.3"/>
	<path class="st0" d="M28.3,152.8h3.9v-18.9h-3.9V152.8z"/>
	<path class="st0" d="M47.4,148.7c-1,0.6-2,0.9-2.9,0.9c-1.2,0-1.8-0.6-1.8-2.1v-10h4v-3.6h-4v-5.8l-3.8,2v3.9h-3.3v3.6h3.3v10.7
		c0,2.9,1.7,4.9,4.3,4.9c1.7,0,2.8-0.5,3.5-0.9l0,0l0.9-3.7L47.4,148.7"/>
	<path class="st0" d="M50.6,152.8h3.9v-18.9h-3.9V152.8z"/>
	<path class="st0" d="M56.7,130.7c-3.6-5-9.4-8-15.4-8s-11.8,3-15.4,8l-0.2,0.3h4.5v-0.1c3.1-3.2,7-4.8,11-4.8c4.1,0,8.1,1.6,11,4.8
		l0.1,0.1h4.5L56.7,130.7"/>
	<path class="st0" d="M61.9,138.4L61.9,138.4l-0.1,9.9v0.1c1.2,1.8,3.2,3.1,5.3,3.1c3.3,0,4.9-2.8,4.9-8.2c0-4.9-1.8-7.7-5-7.7
		C65.1,135.6,63.3,136.5,61.9,138.4L61.9,138.4z M127.1,152.8L127.1,152.8l-2.3,0.1c-0.1-0.3-4.9-10.4-4.9-10.4l-3.6,5v5.4H114V128
		c0.2-0.1,1.7-0.9,2.2-1.2v18.1l1.2-1.8c0,0,5.4-7.9,6.1-8.9h2.5c-0.5,0.7-4.8,6.5-4.8,6.5S126.6,151.7,127.1,152.8L127.1,152.8z
		 M83,153.2h-0.9c-1.9-0.1-5.3-1-5.3-5.9c0-4.4,3.6-5.9,6.9-5.9c1.7,0,3.4,0.4,4.6,1.1l0.4,0.2V140c0-3-1.4-4.5-4.4-4.5
		c-1.7,0-3.4,0.4-5,1.3c-0.1-0.3-0.6-1.4-0.8-1.7c1.7-0.9,3.9-1.4,6-1.4c4.3,0,6.4,1.9,6.4,6v13.2h-2.2v-2.8l-0.4,0.5
		C86.7,152.3,85,153.1,83,153.2L83,153.2z M67.8,153.2h-0.9c-1.8-0.1-3.4-0.9-4.7-2.5l-0.4-0.5v2.6h-2.2V128
		c0.2-0.1,1.7-0.9,2.2-1.2v10.1l0.4-0.5c1.6-1.8,3.5-2.7,5.5-2.7c4.2,0,6.5,3.5,6.5,9.5C74.3,149.1,71.7,153,67.8,153.2L67.8,153.2z
		 M78.9,147.2c0,2.9,1.4,4.4,4.1,4.4c2.2,0,4.3-1,5.6-3v-0.1v-4.1l-0.1-0.1c-1.4-0.8-2.9-1.1-5-1.1
		C80.6,143.1,78.9,144.6,78.9,147.2L78.9,147.2z M98.1,136.3c1.1-1.7,3-2.7,5-2.7c4.2,0,6.4,2.7,6.4,7.7v11.5h-2.2v-11
		c0-4.3-1.5-6.2-4.7-6.2c-3.1,0-4.9,2.3-4.9,6.2v11h-2.2V134h2.2v3L98.1,136.3L98.1,136.3z"/>
</g>
<g>
	<path class="st1" d="M36.5,260h2.1c1.6,0,2.6,1.4,2.6,4c0,2.9-0.7,4.1-2.6,4.1h-2.1V260z M37.5,267.1h1.1c1.2,0,1.5-1.3,1.5-3
		c0-0.2,0.1-3.1-1.5-3.1h-1.1V267.1z M93.4,279.4c0,2.2,0.5,3.9,2.1,3.9c1.7,0,2.7-2.3,2.7-7.8c0-6-0.9-8.1-2.5-8.1
		c-1.6-0.1-2.4,1.3-2.3,4V279.4z M94.5,272.2c0-1.8,0.2-3.6,1.1-3.6c1.1,0,1.6,2.7,1.6,6.9c0,3.8-0.5,6.5-1.7,6.5
		c-0.8,0-0.9-1.9-0.9-3.4V272.2z M123.2,267.5c1.7,0,2.4,1.9,2.5,4c0,0.7,0.1,0.8,0,1.3h-5c0-0.5,0-0.6,0-1.3
		C120.8,269.4,121.5,267.5,123.2,267.5 M121.8,271.2c0,0.4,0,0.4,0,0.7h2.8c0-0.3,0-0.3,0-0.7c-0.1-1.1-0.5-2.6-1.4-2.6
		C122.3,268.6,121.8,270,121.8,271.2z M57.2,267.4c1.7,0,2.3,2.1,2.4,4.2c0,0.7,0,0.8,0,1.3h-5c0-0.5,0-0.6,0-1.3
		C54.8,269.4,55.5,267.4,57.2,267.4 M55.7,271.1c0,0.4,0,0.4,0,0.7h2.8c0-0.3,0-0.3,0-0.7c-0.1-1.1-0.5-2.5-1.4-2.5
		C56.3,268.6,55.8,270,55.7,271.1z M76.1,268.7c1,0,1.7,3,1.7,6.7c0,3.7-0.8,6.7-1.7,6.7c-1,0-1.7-3-1.7-6.7
		C74.4,271.7,75.2,268.7,76.1,268.7z M73.4,275.4c0,4.4,0.8,7.9,2.7,7.9c2,0,2.7-3.5,2.7-7.9c0-4.4-0.8-7.9-2.7-7.9
		C74.2,267.5,73.4,271.1,73.4,275.4z M57.3,283.3c1.4,0,2.1-1.3,2.4-2.9l6.6,0c-0.3-1.6-0.4-2-0.4-3.3l-11.1,0c0,0.5,0,1.3,0,2.1
		C54.9,281.3,55.6,283.3,57.3,283.3 M64.8,278.1c0,0.6,0,0.6,0.1,1.1l-6.2,0c0,0.1,0,0.2,0,0.4c-0.1,1.1-0.5,2.6-1.4,2.6
		c-0.9,0-1.4-1.4-1.4-2.6c0-0.4-0.1-1.2-0.1-1.5H64.8z M123.3,283.3c1.4,0,2.1-1.3,2.4-2.9h7.5c-0.9,11.4-16.7,11.5-18.1,2.5v5.9
		h-10.9v-6c-1,5.8-4.3,6.6-5.7,6.6c-1.2,0-4.2-1-5.3-4.1l0.1,3.3c0,2.1,1.4,3.4,2.8,3.6v4.8l-12.7,0l0-4.8c1.1,0,2.8-1.1,2.8-3.4
		V280c-0.4,2.2-2,9.3-9.8,9.3c-7.7,0-9.5-7.5-9.8-8.6c-1.4,8.2-6.9,8.6-9.3,8.6c-4.3-0.1-6.9-3-6.9-3.1c-2.6-2.6-3.1-6.6-3-10.9
		c0-0.9,0.2-2.5,0.3-3.4c-2.8,3-5.4,2.6-8.4,2.7l-2.6,0v4.9c0,2,0.7,3.1,2.9,3.2v5.9H24.3v-5.8c2.2,0,3-1.3,2.9-3.3v-17.5
		c0-0.4-0.1-3.1-2.9-3.1v-5.8h16.3c3.1,0,5.3,0.9,6.7,2.1c2.7,2.1,3.3,5.8,3.5,8.5c4.1-3.6,14-4.4,15.6,6.4c1.8-8.2,7.8-8.9,9.3-8.9
		c2.5,0,6.9,1.5,8.3,5.7V262h8.9v3.3c0.7-2.5,2.9-3.8,5.1-3.9c2.2,0,6.6,2.4,7.7,11.5v-12.1c0-1.7-1.1-2.6-2.8-2.6l0-4.8h10.4v19.6
		c0.9-8.7,5.8-11.5,9.9-11.5c4.1,0,7.1,2.3,8.6,5.3c1.9,3.8,1.8,7.8,1.7,10.4l-12.6,0c0,0.5,0,1.3,0,2.1
		C120.9,281.3,121.6,283.3,123.3,283.3 M124.7,279.3c0,0.1,0,0.2,0,0.4c-0.1,1.1-0.5,2.6-1.4,2.6c-0.9,0-1.4-1.4-1.4-2.6
		c0-0.4-0.1-1.2-0.1-1.5h12.5c0.2-2,0.6-7.4-1.6-11.8c-1.8-3.5-4.8-6-9.5-6c-4.2,0-7.1,2.1-8.8,4.8l0-12.9h-12.5v7.1
		c1.7,0,2.8,0.2,2.8,1.9v3.9c-1.2-2.6-3.9-5-7.2-4.8c-1.4,0.1-2.4,0.7-3.5,1.5v-0.9H82.9v2.3c-1.9-1.9-4.2-2.8-7.1-2.8
		c-4.7,0-7.9,3-9.3,6.4c-0.8-2.4-3.7-6.4-9.1-6.4c-2.2,0-4.3,0.8-5.9,1.7c-0.2-2.8-1.5-6-3.6-7.6c-1.7-1.3-4.2-2.3-7.5-2.3H23.2v8
		c2.2,0,2.9,0.5,2.9,2.7v16.2c0,2.1-0.5,2.7-2.9,2.7v8.1l17.2,0v-8.1c-2.4,0-2.9-0.6-2.9-2.7v-3.2l2.8,0c3.5,0.1,4.7-0.4,5.9-1.3
		c-0.2,1.4-0.1,4,0,5c0.6,5.1,2.1,6.4,3.6,7.9c2,2,4.8,2.9,7.4,3c7.1,0,8.9-5.5,9.3-6.4c2.4,5.6,7.1,6.4,9.8,6.4
		c5.4,0,7.5-2.6,8.7-4.8v2.8c0,1.9-0.4,2.8-2.8,2.9l0,7H97v-7c-2.2,0-2.7-1.6-2.8-2.7c1.4,1.8,3.9,1.9,4.2,1.9
		c1.1,0.1,3.5-0.2,4.7-2.4v1.8h13v-2.5c1.9,2,4.6,3,7.2,3c4.3,0,10.4-2.3,10.9-11.2H124.7z"/>
	<g>
		<path class="st1" d="M133.2,263c-0.8,0-1.3-0.6-1.3-1.4c0-0.8,0.6-1.4,1.3-1.4c0.7,0,1.3,0.5,1.3,1.4
			C134.5,262.5,133.9,263,133.2,263z M133.2,260.6c-0.6,0-1,0.5-1,1.1c0,0.6,0.4,1.1,1,1.1c0.6,0,1-0.5,1-1.1
			C134.2,261,133.7,260.6,133.2,260.6z M132.9,262.5h-0.2V261h0.6c0.4,0,0.5,0.1,0.5,0.4c0,0.3-0.2,0.4-0.4,0.4l0.4,0.7h-0.3
			l-0.4-0.6h-0.2V262.5z M133.2,261.6c0.2,0,0.3,0,0.3-0.2c0-0.2-0.2-0.2-0.3-0.2h-0.3v0.4H133.2z"/>
	</g>
</g>
</svg>
