<?xml version="1.0" encoding="utf-8"?>
<!-- Generator: Adobe Illustrator 23.0.1, SVG Export Plug-In . SVG Version: 6.00 Build 0)  -->
<svg version="1.1" id="Layer_1" xmlns:sketch="http://www.bohemiancoding.com/sketch/ns"
	 xmlns="http://www.w3.org/2000/svg" xmlns:xlink="http://www.w3.org/1999/xlink" x="0px" y="0px" viewBox="0 0 504 162"
	 style="enable-background:new 0 0 504 162;" xml:space="preserve">
<style type="text/css">
	.st0{fill-rule:evenodd;clip-rule:evenodd;fill:#91928E;}
	.st1{fill:#91928E;}
</style>
<title>Group</title>
<desc>Created with Sketch.</desc>
<g id="Tablet-Portrait" transform="translate(-133.000000, -2386.000000)" sketch:type="MSArtboardGroup">
	<g id="Group" transform="translate(133.000000, 2386.000000)" sketch:type="MSLayerGroup">
		<g id="Imported-Layers-Copy-3" transform="translate(414.758621, 0.000000)" sketch:type="MSShapeGroup">
			<path class="st0" d="M13.8,71.7v3.5H14c0.8,0.1,1.6,0.2,2.5,0.3c0.7,0.1,1.4,0.1,2.1,0c0.7,0,1.3-0.2,2-0.4
				c0.7-0.2,1.4-0.6,2-1.1c0.5-0.5,0.9-1,1.2-1.7c0.4-1.1,0.4-2.3,0-3.5c-0.2-0.6-0.6-1.1-1.1-1.5c-0.4-0.4-1-0.7-1.6-0.9l-2.7-1
				c-0.3-0.1-0.6-0.4-0.7-0.7c-0.1-0.3-0.1-0.5,0-0.8c0-0.1,0.1-0.2,0.2-0.2c0.1-0.1,0.2-0.2,0.3-0.2c0,0,0.1,0,0.1-0.1
				c0.3-0.1,0.6-0.2,0.9-0.3c0.5-0.1,1.1-0.1,1.6,0c0.6,0.1,1.3,0.2,1.9,0.3H23v-3.2L22.8,60c-0.6-0.2-1.3-0.3-1.9-0.3
				c-0.8-0.1-1.7-0.1-2.6,0c-1.1,0.1-2.1,0.5-3,1.2c-0.6,0.4-1,1-1.2,1.7c-0.4,1-0.4,2.2,0,3.3c0.2,0.5,0.5,1,0.9,1.4
				c0.3,0.3,0.7,0.6,1.2,0.8c0.6,0.3,1.2,0.5,1.8,0.7c0.2,0.1,0.4,0.1,0.6,0.2l0.3,0.1h0.1c0.3,0.1,0.6,0.3,0.8,0.5
				c0.2,0.1,0.3,0.3,0.4,0.5c0,0.2,0,0.4,0,0.6c-0.1,0.3-0.3,0.6-0.6,0.7c-0.3,0.2-0.6,0.3-1,0.3c-0.5,0.1-1,0.1-1.5,0.1
				c-0.7-0.1-1.3-0.1-2-0.3c-0.3-0.1-0.7-0.1-1-0.2L13.8,71.7"/>
			<path class="st0" d="M-0.4,75.1V71h-0.1c-0.9,0.4-1.9,0.7-2.9,0.7c-1,0.1-2-0.2-3-0.8c-0.6-0.5-1-1.1-1.2-1.8
				c-0.3-0.8-0.3-1.6-0.1-2.5s0.6-1.5,1.3-2c0.6-0.5,1.3-0.8,2-0.9c1.3-0.1,2.7,0.1,3.9,0.7h0.1v-4.1h-0.2c-1.2-0.4-2.5-0.5-3.7-0.5
				c-1.1,0-2.2,0.3-3.3,0.7c-1,0.5-1.9,1.2-2.7,2c-2.2,2.9-2.3,6.8-0.1,9.8c1,1.3,2.6,2.3,4.3,2.8s3.7,0.4,5.4-0.2L-0.4,75.1"/>
			<path class="st0" d="M4.8,60.2h3.8v15.1H4.8V60.2z"/>
			<path class="st0" d="M65.2,73.5v-0.2h-1.6v0.2h0.7v1.7h0.2v-1.7H65.2"/>
			<path class="st0" d="M65.3,75.3h0.3v-1.6l0,0l0.6,1.6h0.3l0.6-1.6v1.6h0.3v-1.9H67L66.4,75l-0.7-1.6h-0.4L65.3,75.3"/>
			<path class="st0" d="M-19.8,48c0,0.5,0.2,0.9,0.6,1.2c0.3,0.3,0.8,0.5,1.3,0.5s0.9-0.2,1.3-0.5c0.3-0.3,0.6-0.8,0.6-1.2v-4.2
				c0-0.5-0.2-0.9-0.6-1.3c-0.3-0.3-0.8-0.5-1.3-0.5s-0.9,0.2-1.3,0.5c-0.3,0.3-0.5,0.8-0.6,1.3V48"/>
			<path class="st0" d="M-9.4,48c0,0.5,0.2,0.9,0.6,1.2c0.3,0.3,0.8,0.5,1.3,0.5s0.9-0.2,1.3-0.5c0.3-0.3,0.6-0.8,0.6-1.2v-9.4
				c0-0.5-0.2-0.9-0.6-1.3c-0.3-0.3-0.8-0.5-1.3-0.5s-0.9,0.2-1.3,0.5c-0.3,0.3-0.5,0.8-0.6,1.3V48"/>
			<path class="st0" d="M1.1,51.8c0,0.5,0.2,0.9,0.6,1.2C2,53.3,2.5,53.5,3,53.5s0.9-0.2,1.3-0.5c0.3-0.3,0.6-0.8,0.6-1.2V31.5
				c0-0.5-0.2-0.9-0.6-1.3C4,29.8,3.5,29.6,3,29.6s-0.9,0.2-1.3,0.5c-0.3,0.3-0.5,0.8-0.6,1.3V51.8"/>
			<path class="st0" d="M11.5,48c0,0.5,0.2,0.9,0.6,1.2c0.3,0.3,0.8,0.5,1.3,0.5c0.5,0,0.9-0.2,1.3-0.5c0.3-0.3,0.6-0.8,0.6-1.2
				v-9.4c0-0.5-0.2-0.9-0.6-1.3c-0.3-0.3-0.8-0.5-1.3-0.5c-0.5,0-0.9,0.2-1.3,0.5c-0.3,0.3-0.5,0.8-0.6,1.3V48"/>
			<path class="st0" d="M21.9,48c0,0.5,0.2,0.9,0.6,1.2c0.3,0.3,0.8,0.5,1.3,0.5s0.9-0.2,1.3-0.5c0.3-0.3,0.6-0.8,0.6-1.2v-4.2
				c0-0.5-0.2-0.9-0.6-1.3c-0.3-0.3-0.8-0.5-1.3-0.5s-0.9,0.2-1.3,0.5c-0.3,0.3-0.5,0.8-0.6,1.3V48"/>
			<path class="st0" d="M32.3,48c0,0.5,0.2,0.9,0.6,1.2c0.3,0.3,0.8,0.5,1.3,0.5s0.9-0.2,1.3-0.5c0.3-0.3,0.6-0.8,0.6-1.2v-9.4
				c0-0.5-0.2-0.9-0.6-1.3c-0.3-0.3-0.8-0.5-1.3-0.5s-0.9,0.2-1.3,0.5c-0.3,0.3-0.5,0.8-0.6,1.3V48"/>
			<path class="st0" d="M42.7,51.8c0,0.5,0.2,0.9,0.6,1.2c0.3,0.3,0.8,0.5,1.3,0.5s0.9-0.2,1.3-0.5c0.3-0.3,0.6-0.8,0.6-1.2V31.5
				c0-0.5-0.2-0.9-0.6-1.3c-0.3-0.3-0.8-0.5-1.3-0.5c-0.5,0-0.9,0.2-1.3,0.5c-0.3,0.3-0.5,0.8-0.6,1.3L42.7,51.8"/>
			<path class="st0" d="M53.2,48c0,0.5,0.2,0.9,0.6,1.2c0.3,0.3,0.8,0.5,1.3,0.5s0.9-0.2,1.3-0.5c0.3-0.3,0.6-0.8,0.6-1.2v-9.4
				c0-0.5-0.2-0.9-0.6-1.3c-0.3-0.3-0.8-0.5-1.3-0.5s-0.9,0.2-1.3,0.5c-0.3,0.3-0.5,0.8-0.6,1.3V48"/>
			<path class="st0" d="M63.6,48c0,0.5,0.2,0.9,0.6,1.2c0.3,0.3,0.8,0.5,1.3,0.5s0.9-0.2,1.3-0.5c0.3-0.3,0.6-0.8,0.6-1.2v-4.2
				c0-0.5-0.2-0.9-0.6-1.3C66.5,42.2,66,42,65.5,42s-0.9,0.2-1.3,0.5c-0.3,0.3-0.5,0.8-0.6,1.3V48"/>
			<path class="st0" d="M39.5,75.1V71h-0.1c-0.9,0.4-1.9,0.7-2.9,0.7c-1,0.1-2-0.2-3-0.8c-0.6-0.5-1-1.1-1.2-1.8
				c-0.3-0.8-0.3-1.6-0.1-2.5c0.2-0.8,0.6-1.5,1.3-2c0.6-0.5,1.3-0.8,2-0.9c1.3-0.1,2.7,0.1,3.9,0.7h0.1v-4.1h-0.2
				c-1.2-0.4-2.5-0.5-3.7-0.5c-1.1,0-2.2,0.3-3.3,0.7c-1,0.5-1.9,1.2-2.7,2c-2.2,2.9-2.3,6.8-0.1,9.8c1,1.3,2.6,2.3,4.3,2.8
				c1.7,0.4,3.7,0.4,5.4-0.2L39.5,75.1"/>
			<path class="st0" d="M43.4,67.7c0,2.3,1.1,4.6,3.1,6.1c1.8,1.5,4.3,2,6.6,1.5c3.2-0.6,5.6-3.1,6.2-6.2c0.6-3.2-0.9-6.3-3.7-8.1
				c-2.5-1.5-5.5-1.6-8.1-0.2C45.2,62.2,43.6,64.9,43.4,67.7 M49.1,64.7c0.8-0.6,1.8-0.9,3-0.8c1,0.1,2,0.6,2.7,1.4
				c0.6,0.8,0.9,1.8,0.8,3c-0.1,1-0.6,2-1.4,2.7c-0.8,0.6-1.8,0.9-3,0.8c-1-0.1-2-0.6-2.7-1.4s-0.9-1.8-0.8-3
				C47.6,66.3,48.2,65.3,49.1,64.7"/>
		</g>
	</g>
</g>
<g>
	<g>
		<path class="st1" d="M167.8,78.5V67.4h2.9l5.3,6.8h0.1v-6.8h2.9v11.2h-2.9l-5.3-6.8h-0.1v6.8H167.8z M162.5,70.7
			c-0.6-0.6-1.3-0.9-2.2-0.9c-0.8,0-1.6,0.3-2.2,0.9s-0.9,1.3-0.9,2.1c0,0.9,0.3,1.7,0.9,2.4c0.6,0.6,1.3,0.9,2.2,0.9
			c0.9,0,1.6-0.3,2.2-0.9c0.6-0.6,0.9-1.5,0.9-2.4C163.4,72,163.1,71.3,162.5,70.7 M157.3,67.7c0.9-0.5,2-0.7,3-0.7
			c1.1,0,2.1,0.2,3,0.7c0.9,0.5,1.7,1.2,2.3,2.1c0.6,0.9,0.9,1.9,0.9,3c0,1.8-0.6,3.3-1.7,4.4c-1.2,1.2-2.6,1.7-4.4,1.7
			s-3.3-0.6-4.4-1.7c-1.2-1.2-1.7-2.6-1.7-4.4c0-1.1,0.3-2.1,0.9-3C155.7,68.9,156.3,68.2,157.3,67.7 M152.8,78.5h-2.9V67.4h2.9
			V78.5z M146.4,69.8v8.7h-2.9v-8.7h-2.4v-2.5h7.7v2.5H146.4z M137.4,74.4l-1.2-3.6h-0.1l-1.2,3.6H137.4z M138.1,76.6h-4l-0.8,2
			h-3.1l4.3-11.2h3.2l4.2,11.2h-3.1L138.1,76.6z M123.1,69.8v6.3h0.7c0.9,0,1.7-0.3,2.3-0.8c0.6-0.5,0.9-1.3,0.9-2.3
			c0-1-0.3-1.7-0.9-2.3c-0.6-0.6-1.3-0.8-2.3-0.8H123.1z M120.2,78.5V67.4h4.1c1.6,0,2.9,0.6,4,1.6c1.1,1.1,1.7,2.4,1.7,4
			s-0.6,2.9-1.7,4c-1.1,1.1-2.5,1.6-4,1.6H120.2z M107.2,78.5V67.4h2.9l5.3,6.8h0.1v-6.8h2.9v11.2h-2.9l-5.3-6.8h-0.1v6.8H107.2z
			 M102.4,67.4h2.9v6.3c0,0.9-0.1,1.7-0.2,2.3s-0.4,1.2-0.9,1.7c-0.8,0.8-2.1,1.2-3.7,1.2c-1.6,0-2.8-0.4-3.7-1.2
			c-0.5-0.5-0.8-1.1-0.9-1.7c-0.2-0.6-0.2-1.4-0.2-2.3v-6.3h2.9v5.9c0,0.3,0,0.7,0,0.9c0,0.2,0.1,0.5,0.1,0.8
			c0.1,0.3,0.2,0.6,0.3,0.7c0.1,0.2,0.3,0.3,0.6,0.4c0.3,0.1,0.6,0.2,0.9,0.2c0.3,0,0.7-0.1,0.9-0.2c0.3-0.1,0.4-0.3,0.6-0.4
			s0.2-0.4,0.3-0.7c0.1-0.3,0.1-0.6,0.1-0.8c0-0.2,0-0.6,0-0.9v-5.9H102.4z M90.3,70.7c-0.6-0.6-1.3-0.9-2.2-0.9
			c-0.8,0-1.6,0.3-2.2,0.9c-0.6,0.6-0.9,1.3-0.9,2.1c0,0.9,0.3,1.7,0.9,2.4c0.6,0.6,1.3,0.9,2.2,0.9c0.9,0,1.6-0.3,2.2-0.9
			c0.6-0.6,0.9-1.5,0.9-2.4C91.2,72,91,71.3,90.3,70.7 M85.1,67.7c0.9-0.5,2-0.7,3-0.7c1.1,0,2.1,0.2,3,0.7s1.7,1.2,2.3,2.1
			c0.6,0.9,0.9,1.9,0.9,3c0,1.8-0.6,3.3-1.7,4.4c-1.2,1.2-2.6,1.7-4.4,1.7s-3.3-0.6-4.4-1.7C82.6,76,82,74.5,82,72.7
			c0-1.1,0.3-2.1,0.9-3C83.4,68.9,84.1,68.2,85.1,67.7 M80.9,69.8h-3.5v1.8h3.2v2.5h-3.2v4.4h-2.9V67.3h6.4V69.8z M170.6,59.1
			l-1.2-3.6h-0.1l-1.2,3.6H170.6z M171.4,61.3h-4l-0.8,2h-3.1l4.3-11.2h3.2l4.2,11.2h-3.1L171.4,61.3z M151.5,63.3V52.1h2.9l5.3,6.8
			h0.1v-6.8h2.9v11.2h-2.9l-5.3-6.8h-0.1v6.8H151.5z M146.7,52.1h2.9v6.3c0,0.9-0.1,1.7-0.2,2.3s-0.4,1.2-0.9,1.7
			c-0.8,0.8-2.1,1.2-3.7,1.2c-1.6,0-2.8-0.4-3.7-1.2c-0.5-0.5-0.8-1-0.9-1.7c-0.2-0.6-0.2-1.4-0.2-2.3v-6.3h2.9V58
			c0,0.3,0,0.7,0,0.9c0,0.2,0.1,0.5,0.1,0.8c0.1,0.3,0.2,0.6,0.3,0.7c0.1,0.2,0.3,0.3,0.6,0.4c0.3,0.1,0.6,0.2,0.9,0.2
			s0.7-0.1,0.9-0.2c0.3-0.1,0.4-0.3,0.6-0.4c0.1-0.2,0.2-0.4,0.3-0.7c0.1-0.3,0.1-0.6,0.1-0.8c0-0.2,0-0.6,0-0.9v-5.9H146.7z
			 M134.5,59.1l-1.2-3.6h-0.1l-1.2,3.6H134.5z M135.2,61.3h-4l-0.8,2h-3.1l4.3-11.2h3.2l4.2,11.2H136L135.2,61.3z M127.6,54.6h-3.5
			v1.8h3.2v2.5h-3.2v4.4h-2.9V52.1h6.4V54.6z M115.7,59.1l-1.2-3.6h-0.1l-1.2,3.6H115.7z M116.5,61.3h-4l-0.8,2h-3.1l4.3-11.2h3.2
			l4.2,11.2h-3.1L116.5,61.3z M102.5,57h5.8c0,0.9-0.1,1.8-0.2,2.5c-0.2,0.7-0.4,1.3-0.9,2c-1.1,1.5-2.6,2.2-4.6,2.2
			c-1.7,0-3.2-0.6-4.3-1.6c-1.1-1.1-1.7-2.5-1.7-4.2c0-1.8,0.6-3.2,1.7-4.4c1.1-1.1,2.6-1.7,4.4-1.7c1.2,0,2.2,0.3,3,0.8
			c0.8,0.5,1.5,1.3,2,2.3l-2.7,1.2c-0.2-0.6-0.5-1-0.9-1.3c-0.4-0.3-0.9-0.4-1.5-0.4c-0.9,0-1.6,0.3-2.1,1.1
			c-0.5,0.7-0.8,1.5-0.8,2.5s0.3,1.7,0.8,2.5c0.5,0.7,1.2,1.1,2.2,1.1c0.7,0,1.2-0.2,1.6-0.5s0.7-0.8,0.7-1.5h-2.3L102.5,57
			L102.5,57z M95.4,54.6h-3.5v1.8h3.3v2.5h-3.3v1.9h3.5v2.5H89V52.1h6.4L95.4,54.6L95.4,54.6z M73.8,63.3l1.9-11.2h2.8l2.3,6l2.4-6
			h2.9l1.7,11.2h-2.9l-0.8-6.4H84l-2.7,6.4h-1.2l-2.6-6.4h-0.1l-0.9,6.4H73.8z M134.8,39.3h-3.5v1.8h3.3v2.5h-3.3v1.9h3.5V48h-6.4
			V36.8h6.4V39.3z M115.5,48.1V36.9h2.9l5.3,6.8h0.1v-6.8h2.9v11.2h-2.9l-5.4-6.9h-0.1V48L115.5,48.1L115.5,48.1z M113.6,48.1h-2.9
			V36.9h2.9V48.1z M103.5,39.1v2.8h0.3c1.3,0,2-0.4,2-1.4c0-0.9-0.7-1.4-2-1.4H103.5z M106.4,43.5l3.5,4.6h-3.6l-2.7-4.3h-0.1v4.3
			h-2.9V36.9h4.4c1.2,0,2.1,0.3,2.8,0.8c0.7,0.6,1.1,1.5,1.1,2.6c0,0.8-0.2,1.5-0.7,2.1C107.7,43,107.2,43.3,106.4,43.5 M95.1,43.9
			l-1.2-3.6h-0.1l-1.2,3.6H95.1z M95.9,46.1h-4l-0.8,2H88l4.3-11.2h3.2l4.2,11.2h-3.1L95.9,46.1z M73.8,48.1l1.9-11.2h2.8l2.3,6
			l2.4-6h2.9l1.7,11.2h-2.9l-0.8-6.4H84l-2.7,6.4h-1.2l-2.6-6.4h-0.1l-0.9,6.4H73.8z"/>
	</g>
	<g>
		<path class="st1" d="M34.9,28.9c-15.8,0-28.6,12.8-28.6,28.6s12.8,28.6,28.6,28.6s28.6-12.8,28.6-28.6
			C63.5,41.7,50.7,28.9,34.9,28.9z M15.9,47.7c2.5-4.7,6.6-8.4,11.7-10.3c0.7-0.2,1.3-0.7,1.7-1.3c0.1-0.2,0.2-0.3,0.2-0.6l0.1-0.8
			c0-0.3,0.2-0.6,0.4-0.7l0.3-0.2c0.1-0.1,0.2-0.2,0.2-0.3c0,0,1.5-3.2,2-2.7c0.4,0.4-1.2,2.8-0.1,3.4l0.2,0.1
			c0.7,0.3,1.6,0.3,2.3,0.3s1.6,0,2.3-0.3l0.2-0.1c1.1-0.6,1.7-3.7,2.2-3.4s-0.6,2.7-0.1,3.1l0.3,0.2c0.2,0.2,0.3,0.4,0.4,0.7
			l0.1,0.8c0,0.2,0.1,0.4,0.2,0.6c0.2,0.3,0.4,0.6,0.6,0.7c0.2,0.2,0.5,0.3,0.8,0.4c4.3,1.4,8,4.1,10.6,7.7c0.2,0.2-0.1,0.6-0.3,0.4
			c-1.1-0.4-3-1-5.1-1c-12.7,0-14,6.2-15.5,6.6c-0.1,0.2-0.1,0.3-0.2,0.5c-0.1,0.2-0.2,0.4-0.2,0.6c-0.1,0.4-0.2,0.8-0.3,1.3
			c-0.1,0.4-0.2,0.8-0.3,1.3c-0.2,0.8-0.3,1.6-0.4,2.2c-0.1,0.7-0.2,1.2-0.3,1.6c-0.1,0.4-0.1,0.6-0.1,0.6l-0.1,0.1l-0.1-0.1
			c0,0,0-0.2,0.1-0.6c0-0.4,0.1-0.9,0.2-1.6c0.1-0.7,0.2-1.5,0.2-2.3c0.1-0.4,0.1-0.8,0.2-1.3c0.1-0.4,0.2-0.9,0.2-1.3
			c0.1-0.2,0.1-0.4,0.2-0.7c0.1-0.2,0.1-0.3,0.1-0.5c-1.5-0.7-3.1-3.6-7.4-4.2c-3.2-0.4-5.5,0.8-6.6,1.5
			C16,48.2,15.7,47.9,15.9,47.7z M42.5,66c-0.3,0.2-0.2,0.4-0.4,0.5c-0.3,0.1-0.3,0.2-0.5,0.3c-0.2,0.1-0.3,0.2-0.9-0.4
			c-0.5-0.6-0.3-0.8-0.3-2.1c-1.2-0.4-2.3-1.1-3.2-2.1c-1.1-1.2-1.8-3-1.7-4.7c-0.1-0.4-0.2-0.9-0.4-1.2c-0.5-0.8-2,2.5-2.3,2.8
			c-0.4,0.6-1.6-0.9-0.9-2.8c0.7-1.8,2.5-3.4,4.4-1.7c0.1-0.2,0.3-0.6,0.6-0.9l-0.5-1.2c-0.8-0.3-1.3-0.9-1.2-1.4
			c0.2-0.6,0.1-2.1,0.6-2.3c0.5-0.3,1.9,0.4,2.5,0.5c0.4,0.1,0.8,0.9,0.7,1.7l0.8,0.9c0.4-0.1,0.9-0.2,1.1-0.2
			c-0.7-2.4,1.5-3.3,3.5-3.1s2.8,1.9,2.1,2c-0.5,0.1-4.1-0.1-3.6,0.7c0.2,0.3,0.6,0.6,0.9,0.9c1.7,0.7,3,2.1,3.6,3.6
			c0.5,1.2,0.6,2.5,0.5,3.7c1.2,0.6,1.5,0.5,1.8,1.2c0.3,0.8,0.2,0.8,0,0.9c-0.2,0.1-0.3,0.1-0.4,0.3c-0.2,0.3-0.3-0.1-0.7,0.2
			c-0.3,0.2-0.8-0.2-1.2-0.6c-0.4,1.3-1.1,2.1-1.8,2.6c-0.8,0.5-1.8,0.7-3.2,0.5C42.7,65.3,42.8,65.9,42.5,66z M55.2,64.2
			c-2.8,8.5-10.8,14.7-20.4,14.7c-6.8,0-12.7-3.1-16.7-8c0,0-3.1,1-3.2,4.2c0,0.3-0.4,0.4-0.6,0.2c-3.3-5.5,1.3-7.5-0.1-11.7
			c-0.6-2-0.9-4-0.9-6.1c0-1.5,0.2-3,0.4-4.4c0-0.1,0.2-1.1,0.8-2.2c0.2-0.4,0.6-0.7,1-0.8c0.8-0.3,1.7-0.6,3.6-0.7
			c1.5-0.1,2.9,0.1,3.8,0.2c0.6,0.1,1.2,0.4,1.5,0.9c0.9,1.5,2.1,3.9,2.6,7.8s5.4,0.7,7.5,6c0.1,0.3-0.2,0.6-0.4,0.5
			c-2.5-0.7-3.5-0.7-5.1,0.6c0,0,1.7,3.5,5.8,4.1s12.6-1.5,17-7.3c-3.5-8.3,2.7-20,1.4-13.7c-0.9,4.3-0.1,9.5,2.6,11.2
			s5.8,0.1,4.6,1.2C59.5,62.4,55.4,63.5,55.2,64.2z"/>
		<path class="st1" d="M34.9,27.3c-16.7,0-30.2,13.5-30.2,30.2s13.5,30.2,30.2,30.2s30.2-13.5,30.2-30.2S51.5,27.3,34.9,27.3z
			 M34.9,87C18.6,87,5.4,73.8,5.4,57.5c0-16.2,13.2-29.5,29.5-29.5s29.5,13.2,29.5,29.5C64.4,73.8,51.1,87,34.9,87z"/>
	</g>
</g>
<g id="Imported-Layers-Copy" transform="translate(275.000000, 12.000000)" sketch:type="MSShapeGroup">
	<path id="Fill-1" class="st0" d="M115.8,117.5c0.3,0.2,0.8,0.3,1.3,0.3s0.8-0.2,0.8-0.5s-0.2-0.5-0.8-0.7c-0.8-0.3-1.4-0.8-1.4-1.5
		c0-0.9,0.7-1.5,1.9-1.5c0.6,0,1,0.1,1.3,0.3l-0.3,0.9c-0.2-0.1-0.6-0.2-1-0.2c-0.4,0-0.7,0.2-0.7,0.5s0.3,0.5,0.9,0.7
		c0.8,0.2,1.2,0.7,1.2,1.4c0,0.8-0.6,1.6-2,1.6c-0.6,0-1.1-0.2-1.4-0.3L115.8,117.5"/>
	<path id="Fill-2" class="st0" d="M123,117.8c0,0.3,0,0.7,0.1,0.9h-1l-0.2-0.4l0,0c-0.2,0.3-0.6,0.4-1,0.4c-0.7,0-1.2-0.5-1.2-1.1
		c0-0.9,0.8-1.4,2.1-1.4v-0.1c0-0.2-0.1-0.5-0.7-0.5c-0.4,0-0.8,0.1-1,0.3l-0.2-0.6c0.3-0.1,0.8-0.3,1.4-0.3c1.2,0,1.6,0.7,1.6,1.6
		v1.2H123z M121.9,117c-0.6,0-1.1,0.1-1.1,0.6c0,0.3,0.2,0.4,0.4,0.4c0.3,0,0.5-0.2,0.6-0.4c0-0.1,0-0.1,0-0.2V117H121.9z"/>
	<path id="Fill-3" class="st0" d="M124.7,114.9l0.5,1.7c0.1,0.3,0.2,0.6,0.2,0.9l0,0c0.1-0.3,0.1-0.6,0.2-0.9l0.5-1.7h1.2l-1.4,3.7
		h-1.1l-1.3-3.7H124.7"/>
	<path id="Fill-4" class="st0" d="M128.7,117.2c0,0.5,0.5,0.7,1,0.7c0.4,0,0.7-0.1,1-0.1l0.1,0.8c-0.4,0.1-0.8,0.2-1.3,0.2
		c-1.2,0-1.9-0.7-1.9-1.9c0-0.9,0.6-1.9,1.8-1.9s1.6,0.9,1.6,1.8c0,0.2,0,0.4,0,0.4H128.7L128.7,117.2z M130,116.4
		c0-0.3-0.1-0.7-0.6-0.7c-0.5,0-0.7,0.4-0.7,0.7H130L130,116.4z"/>
	<path id="Fill-5" class="st0" d="M133.3,116.2c0-0.5,0-0.8,0-1.2h1l0.1,0.5l0,0c0.2-0.2,0.5-0.6,1.1-0.6c0.5,0,0.8,0.2,1,0.6l0,0
		c0.1-0.2,0.3-0.3,0.5-0.4c0.2-0.1,0.4-0.2,0.7-0.2c0.7,0,1.2,0.5,1.2,1.6v2.1h-1.1v-2c0-0.5-0.2-0.8-0.5-0.8s-0.4,0.2-0.5,0.4
		c0,0.1,0,0.2,0,0.3v2.1h-1.1v-2c0-0.5-0.2-0.8-0.5-0.8s-0.5,0.2-0.5,0.4c0,0.1,0,0.2,0,0.3v2.1h-1.1v-2.5"/>
	<path id="Fill-6" class="st0" d="M143.5,116.8c0,1.3-0.9,1.9-1.9,1.9c-1.1,0-1.9-0.7-1.9-1.9c0-1.2,0.8-1.9,1.9-1.9
		C142.8,114.9,143.5,115.6,143.5,116.8L143.5,116.8z M140.8,116.9c0,0.6,0.3,1.1,0.7,1.1c0.4,0,0.7-0.4,0.7-1.1
		c0-0.5-0.2-1.1-0.7-1.1C141,115.7,140.8,116.3,140.8,116.9L140.8,116.9z"/>
	<path id="Fill-7" class="st0" d="M144.2,116.2c0-0.5,0-0.8,0-1.2h1l0.1,0.5l0,0c0.1-0.2,0.5-0.6,1.1-0.6c0.7,0,1.3,0.5,1.3,1.6v2.2
		h-1.1v-2c0-0.5-0.2-0.8-0.6-0.8c-0.3,0-0.5,0.2-0.6,0.4c0,0.1,0,0.2,0,0.3v2.1h-1.1v-2.6"/>
	<path id="Fill-8" class="st0" d="M149.6,117.2c0,0.5,0.5,0.7,1,0.7c0.4,0,0.7-0.1,1-0.1l0.1,0.8c-0.4,0.1-0.8,0.2-1.3,0.2
		c-1.2,0-1.9-0.7-1.9-1.9c0-0.9,0.6-1.9,1.8-1.9c1.2,0,1.6,0.9,1.6,1.8c0,0.2,0,0.4,0,0.4H149.6L149.6,117.2z M150.9,116.4
		c0-0.3-0.1-0.7-0.6-0.7c-0.5,0-0.7,0.4-0.7,0.7H150.9L150.9,116.4z"/>
	<path id="Fill-9" class="st0" d="M153.5,114.9l0.5,1.8c0.1,0.2,0.1,0.5,0.2,0.7l0,0c0.1-0.2,0.1-0.5,0.2-0.7l0.4-1.8h1.2l-0.8,2.5
		c-0.5,1.4-0.9,2-1.3,2.5c-0.4,0.3-0.8,0.5-1.1,0.5l-0.2-1c0.1,0,0.3-0.1,0.5-0.2c0.2-0.1,0.4-0.3,0.5-0.5c0-0.1,0.1-0.1,0.1-0.2
		c0,0,0-0.1-0.1-0.2l-1.3-3.4h1.2"/>
	<path id="Fill-10" class="st0" d="M157.2,118.8c-0.4,0-0.7-0.3-0.7-0.7s0.3-0.7,0.7-0.7s0.7,0.3,0.7,0.7S157.6,118.8,157.2,118.8
		L157.2,118.8"/>
	<path id="Fill-11" class="st0" d="M160.4,113.6h1.1v4.2h2v1h-3.2V113.6"/>
	<path id="Fill-12" class="st0" d="M165.6,113.9c0,0.3-0.2,0.6-0.6,0.6c-0.4,0-0.6-0.3-0.6-0.6s0.2-0.6,0.6-0.6
		C165.4,113.4,165.6,113.6,165.6,113.9L165.6,113.9z M164.4,114.9h1.1v3.7h-1.1V114.9z"/>
	<path id="Fill-13" class="st0" d="M167.6,114.9l0.5,1.7c0.1,0.3,0.2,0.6,0.2,0.9l0,0c0.1-0.3,0.1-0.6,0.2-0.9l0.5-1.7h1.2l-1.4,3.7
		h-1.1l-1.3-3.7H167.6"/>
	<path id="Fill-14" class="st0" d="M171.5,117.2c0,0.5,0.5,0.7,1,0.7c0.4,0,0.7-0.1,1-0.1l0.1,0.8c-0.4,0.1-0.8,0.2-1.3,0.2
		c-1.2,0-1.9-0.7-1.9-1.9c0-0.9,0.6-1.9,1.8-1.9c1.2,0,1.6,0.9,1.6,1.8c0,0.2,0,0.4,0,0.4H171.5L171.5,117.2z M172.9,116.4
		c0-0.3-0.1-0.7-0.6-0.7c-0.5,0-0.7,0.4-0.7,0.7H172.9L172.9,116.4z"/>
	<path id="Fill-15" class="st0" d="M176.2,113.3h1.1v2.1l0,0c0.2-0.3,0.6-0.5,1.1-0.5c0.9,0,1.5,0.7,1.5,1.8c0,1.3-0.8,2-1.7,2
		c-0.4,0-0.8-0.2-1.1-0.6l0,0v0.5h-1c0-0.2,0-0.7,0-1.1v-4.3H176.2z M177.3,117.1c0,0.1,0,0.1,0,0.2c0.1,0.3,0.3,0.5,0.7,0.5
		c0.5,0,0.8-0.4,0.8-1s-0.3-1-0.8-1c-0.3,0-0.6,0.2-0.7,0.6c0,0.1,0,0.1,0,0.2V117.1L177.3,117.1z"/>
	<path id="Fill-16" class="st0" d="M181.6,117.2c0,0.5,0.5,0.7,1,0.7c0.4,0,0.7-0.1,1-0.1l0.1,0.8c-0.4,0.1-0.8,0.2-1.3,0.2
		c-1.2,0-1.9-0.7-1.9-1.9c0-0.9,0.6-1.9,1.8-1.9c1.2,0,1.6,0.9,1.6,1.8c0,0.2,0,0.4,0,0.4H181.6L181.6,117.2z M183,116.4
		c0-0.3-0.1-0.7-0.6-0.7c-0.5,0-0.7,0.4-0.7,0.7H183L183,116.4z"/>
	<path id="Fill-17" class="st0" d="M186.2,114v1h0.8v0.8h-0.8v1.3c0,0.4,0.1,0.6,0.4,0.6c0.2,0,0.2,0,0.3,0v0.9
		c-0.1,0.1-0.4,0.1-0.7,0.1c-0.4,0-0.7-0.1-0.8-0.3c-0.2-0.2-0.3-0.6-0.3-1.1v-1.5h-0.5V115h0.5v-0.7L186.2,114"/>
	<path id="Fill-18" class="st0" d="M189.1,114v1h0.8v0.8h-0.8v1.3c0,0.4,0.1,0.6,0.4,0.6c0.2,0,0.2,0,0.3,0v0.9
		c-0.1,0.1-0.4,0.1-0.7,0.1c-0.4,0-0.7-0.1-0.8-0.3c-0.2-0.2-0.3-0.6-0.3-1.1v-1.5h-0.5V115h0.5v-0.7L189.1,114"/>
	<path id="Fill-19" class="st0" d="M191.7,117.2c0,0.5,0.5,0.7,1,0.7c0.4,0,0.7-0.1,1-0.1l0.1,0.8c-0.4,0.1-0.8,0.2-1.3,0.2
		c-1.2,0-1.9-0.7-1.9-1.9c0-0.9,0.6-1.9,1.8-1.9c1.2,0,1.6,0.9,1.6,1.8c0,0.2,0,0.4,0,0.4H191.7L191.7,117.2z M193,116.4
		c0-0.3-0.1-0.7-0.6-0.7c-0.5,0-0.7,0.4-0.7,0.7H193L193,116.4z"/>
	<path id="Fill-20" class="st0" d="M195,116.2c0-0.5,0-0.9,0-1.2h1v0.7l0,0c0.2-0.5,0.6-0.8,1-0.8c0.1,0,0.2,0,0.2,0v1.1
		c-0.1,0-0.2,0-0.3,0c-0.4,0-0.7,0.2-0.8,0.6c0,0.1,0,0.2,0,0.3v1.8H195V116.2"/>
	<path id="Fill-21" class="st0" d="M198.4,118.8c-0.4,0-0.7-0.3-0.7-0.7s0.3-0.7,0.7-0.7c0.4,0,0.7,0.3,0.7,0.7
		C199.1,118.5,198.8,118.8,198.4,118.8L198.4,118.8"/>
	<path id="Fill-22" class="st0" d="M214.8,97.5c0.6,0,1.1-0.3,1.2-0.7l0.6-7.1c0-0.7-0.8-1.3-1.8-1.3s-1.8,0.6-1.8,1.3l0.6,7.1
		C213.5,97.1,214.1,97.5,214.8,97.5L214.8,97.5"/>
	<path id="Fill-23" class="st0" d="M210.9,99.7c0.3-0.5,0.3-1.2,0-1.4l-5.9-4.1c-0.6-0.3-1.5,0.1-2,1c-0.5,0.9-0.4,1.9,0.2,2.2
		l6.5,3.1C210,100.5,210.6,100.2,210.9,99.7L210.9,99.7"/>
	<path id="Fill-24" class="st0" d="M218.6,99.7c0.3,0.5,0.9,0.8,1.3,0.7l6.5-3.1c0.6-0.3,0.7-1.3,0.2-2.2c-0.5-0.9-1.4-1.3-2-1
		l-5.9,4.1C218.3,98.5,218.2,99.1,218.6,99.7L218.6,99.7"/>
	<path id="Fill-25" class="st0" d="M214.8,106.4c0.6,0,1.1,0.3,1.2,0.7l0.6,7.1c0,0.7-0.8,1.3-1.8,1.3s-1.8-0.6-1.8-1.3l0.6-7.1
		C213.5,106.8,214.1,106.4,214.8,106.4L214.8,106.4"/>
	<path id="Fill-26" class="st0" d="M218.6,104.1c0.3-0.5,0.9-0.8,1.3-0.7l6.5,3.1c0.6,0.3,0.7,1.3,0.2,2.2c-0.5,0.9-1.4,1.3-2,1
		l-5.9-4.1C218.3,105.3,218.2,104.7,218.6,104.1L218.6,104.1"/>
	<path id="Fill-27" class="st0" d="M210.9,104.1c0.3,0.5,0.3,1.2,0,1.4l-5.9,4.1c-0.6,0.3-1.5-0.1-2-1c-0.5-0.9-0.4-1.9,0.2-2.2
		l6.5-3.1C210,103.3,210.6,103.6,210.9,104.1L210.9,104.1"/>
	<path id="Fill-28" class="st0" d="M180.9,102.8c0-2.7-1.1-5.1-5.1-5.1c-2,0-3.6,0.6-4.5,1l0.6,2.1c0.8-0.5,2-0.9,3.3-0.9
		c1.9,0,2.3,1.1,2.3,1.8v0.2c-4.3,0-7,1.5-7,4.5c0,1.8,1.4,3.6,3.8,3.6c1.5,0,2.8-0.6,3.5-1.5h0.1c0,0,0.5,2,3.2,1.2
		c-0.1-0.8-0.2-1.7-0.2-2.9v-4.1H180.9z M177.6,105.5c0,0.2,0,0.4-0.1,0.6c-0.2,0.8-1.1,1.5-2.1,1.5c-0.9,0-1.6-0.5-1.6-1.5
		c0-1.6,1.8-2,3.9-2V105.5L177.6,105.5z"/>
	<path id="Fill-29" class="st0" d="M113.5,94c0,0,2.9,11.5,3.3,13.5c0.5,2.1,1.4,3,4.2,2.5l1.7-7.1c0.4-1.7,0.7-3.1,1-4.9l0,0
		c0.2,1.8,0.5,3.1,0.8,4.9c0,0,0.7,3.3,1.1,5c0.4,1.7,1.4,2.8,4.1,2.2l4.2-15.9h-3.4l-1.3,6.7c-0.4,2-0.7,3.6-1,5.4l0,0
		c-0.2-1.8-0.5-3.3-0.9-5.2l-1.5-7h-3.6l-1.6,6.8c-0.4,2-0.9,3.8-1.1,5.5l0,0c-0.3-1.6-0.6-3.8-1-5.8c0,0-0.9-4.9-1.3-6.5H113.5"/>
	<path id="Fill-30" class="st0" d="M143.7,102.8c0-2.7-1.1-5.1-5.1-5.1c-2,0-3.6,0.6-4.5,1l0.6,2.1c0.8-0.5,2-0.9,3.3-0.9
		c1.9,0,2.3,1.1,2.3,1.8v0.2c-4.3,0-7,1.5-7,4.5c0,1.8,1.4,3.6,3.8,3.6c1.5,0,2.8-0.6,3.5-1.5h0.1c0,0,0.5,2,3.2,1.2
		c-0.1-0.8-0.2-1.7-0.2-2.9v-4.1H143.7z M140.5,105.5c0,0.2,0,0.4-0.1,0.6c-0.2,0.8-1.1,1.5-2.1,1.5c-0.9,0-1.6-0.5-1.6-1.5
		c0-1.6,1.8-2,3.9-2V105.5L140.5,105.5z"/>
	<path id="Fill-31" class="st0" d="M149.1,106.5V94h-3.3v15.9h3.3V106.5"/>
	<path id="Fill-32" class="st0" d="M191.3,94v11.7c0,1.6,0.3,2.8,0.9,3.5c0.6,0.6,1.5,1,2.7,1c0.9,0,1.9-0.2,2.3-0.3v-2.6
		c-0.3,0.1-0.7,0.1-1.2,0.1c-1.1,0-1.4-0.7-1.4-2.1v-4.5h2.9v-3.1h-2.9V94H191.3"/>
	<path id="Fill-33" class="st0" d="M183,97.9v12h3.4v-6.1c0-0.3,0-0.6,0.1-0.9c0.2-1.3,1.2-2.1,2.7-2.1c0.4,0,0.6,0,0.9,0.1v-3.1
		c-0.2,0-0.4-0.1-0.7-0.1c-1.2,0-2.7,0.8-3.3,2.6H186v-2.2H183"/>
	<path id="Fill-34" class="st0" d="M151.3,97.9v12h3.3v-7c0-0.3,0-0.7,0.1-1c0.3-0.7,0.9-1.5,1.9-1.5c1.3,0,1.9,1.1,1.9,2.7v6.8h3.3
		v-7c0-0.3,0-0.7,0.1-0.9c0.3-0.8,1-1.4,1.9-1.4c1.3,0,1.9,1.1,1.9,3v6.5h3.3v-7c0-3.7-1.8-5.2-4-5.2c-0.9,0-1.6,0.2-2.3,0.6
		c-0.6,0.3-1,0.8-1.5,1.5l0,0c-0.5-1.3-1.7-2.1-3.3-2.1c-2,0-3,1-3.5,1.9l0,0v-1.6H151.3"/>
	<path id="Fill-35" class="st0" d="M227.7,109.1c0.3,0,0.6,0.2,0.6,0.5s-0.2,0.5-0.6,0.5c-0.3,0-0.6-0.2-0.6-0.5
		C227.2,109.4,227.4,109.1,227.7,109.1L227.7,109.1L227.7,109.1z M227.7,109.2c-0.2,0-0.4,0.2-0.4,0.4s0.2,0.4,0.4,0.4
		s0.4-0.2,0.4-0.4C228.2,109.4,228,109.2,227.7,109.2L227.7,109.2L227.7,109.2z M227.7,109.9h-0.1v-0.5c0.1,0,0.1,0,0.2,0
		c0.1,0,0.1,0,0.2,0l0.1,0.1c0,0.1,0,0.1-0.1,0.1l0,0c0.1,0,0.1,0.1,0.1,0.1c0,0.1,0,0.1,0,0.1H228v-0.1c0-0.1,0-0.1-0.1-0.1h-0.1
		v0.3H227.7z M227.7,109.6L227.7,109.6c0.1,0,0.2,0,0.2-0.1c0-0.1,0-0.1-0.1-0.1h-0.1V109.6L227.7,109.6z"/>
</g>
<g id="Imported-Layers-Copy-5" transform="translate(196.000000, 76.000000)" sketch:type="MSShapeGroup">
	<path class="st0" d="M74.9-15.3c0-15.5-12.6-28.1-28.1-28.1h-0.1c-1.9,5.7-4.1,11.3-6,17c1.4,0,2.9,0,4.4,0c1,0,2.1,0.5,2.8,1.4
		c0.7,1,0.6,2.3,0.2,3.6c-1.9,5.5-4,11.1-5.9,16.6c-1.7,0-3.5,0-5.2,0c-0.2,0-0.5,0-0.7-0.1c2.2-6.1,4.4-12.3,6.5-18.4
		c-1,0-2,0-3.2,0c-0.2,0.3-0.3,0.7-0.4,1c-2,5.6-4,11.3-6,17C33-5.2,33-4.9,32.8-4.9c-1.6,0-3.4,0-5,0c-0.3,0-0.6,0-0.9-0.1
		c4.5-12.5,9-25.1,13.5-37.7c-12.5,2.9-21.8,14-21.8,27.4c0,13.1,9,24.1,21,27.2c4.5-12.7,9.1-25.3,13.6-38c0-0.1,0.1-0.3,0.2-0.4
		c2.8,0,5.6,0,8.4,0c0.9,0,1.8-0.1,2.8,0.2c1,0.3,1.9,1,2.2,2c0.2,0.8,0.1,1.7-0.2,2.5c-1.7,5.2-3.7,10.4-5.5,15.5
		c-0.4,1.3-1.8,2.2-3.2,2.2c-2.1,0-4.4,0-6.5,0c-2,5.5-4,11.1-5.9,16.6c0.4,0,0.9,0,1.3,0C62.2,12.8,74.9,0.2,74.9-15.3"/>
	<path class="st0" d="M55.7-7.2c1.8-5.4,3.8-10.7,5.7-16c-0.8,0-1.6,0-2.5,0c-0.2,0-0.5-0.1-0.7,0.1c-1.9,5.3-3.8,10.6-5.7,16
		C53.5-7.1,54.5-7.1,55.7-7.2"/>
</g>
<g id="Imported-Layers-Copy-6" transform="translate(115.000000, 70.000000)" sketch:type="MSShapeGroup">
	<path class="st0" d="M248.1-26.8c1.2,0,1.8-0.1,2.6-0.9c-0.5,0.1-2-0.7-2.9-1.1c-0.9-0.4-2,0.6-2.5,0.5c-0.6-0.2-0.9-0.6-1.9-1.3
		c0.2-0.5,0.8-0.6,1.9-0.9c0.7,0.6,2.6,0.9,3.2,0.6c-1.9-1.1-1.9-2-1.9-2l2.8-0.1c0,0,0-0.2-0.6-0.8c0.6-0.1,2.2-0.8,2.2-0.8
		s-0.7,0-1.7,0c-0.2-0.5,0-0.8,1.4-2c-0.8,0-3.4,0.1-4.7,0c-0.4-1.4-2-0.4-2.1-0.2c-0.2-0.1-0.6,0-2.2-0.5c0.2-0.5,0.5-1.2,0.2-2
		c-1.2,1.8-2.5,2.7-2.9,2.4s-1.2-0.4-2,0.4c-1.3,0.1-2.4-0.4-1.1-1.3c1.4-0.1,3.5-1.4,3.4-2.5c-3.3,1.4-5.2,0.7-7-0.1
		c0.4-1.1,2.5-0.4,4,0c1.4,0.4,1.9-0.5,1.9-0.5s-0.1-0.2-0.7-0.8c1.8,0.2,5-1.7,6.1-2.5c-0.9-0.7-5.1,0.5-5.1,0.5s-0.1-0.1-0.1-0.7
		c-0.6-0.1-2.5,1.3-3.3,1.2c-0.8-0.1-0.9-0.4-0.9-0.4s-0.5,0.2-2.4-0.4c-1.3-1.2-2.6-0.4-2.6-0.4s0.6-0.8,0.5-1.8
		c-0.6,0.5-1.9,0.9-3.2,0.8c-0.2-0.4-0.1-1.1,0.5-1.7c-1.5,0-4.8,2.5-6.5,4c-1.1,0.1-2.5-1.2-2.5-1.2l-1.9,1.5c0,0-0.2,0.4-0.8-0.1
		c0.7-1.1,0.4-1.3-0.1-1.5c-0.5-0.2-0.6-0.9,0-1.7c-0.8,0-3.7,2.1-3.7,2.1l-0.4-0.8c0,0-0.6,0.2-1.5,0.9c-1.5-1.3-1.5-1.1-3.7-2.1
		c-0.4,0.5,0.2,2.2,0.2,2.2l-2.9-0.9c0,0-0.1,1.3-1.3,1.3c-1.2,0-6.8-0.7-9.9-0.9c-1.2,0.2-1.8,1.2-2.2,1.3c-0.5,0-2.5,1.4-1.9,1.8
		c6.2-1.3,7.8,0.8,7.8,0.8l-1.9,0.1c0,0,0,0.2,0.1,1.2c-1.1,0.2-5.9-0.4-6.5,0c-0.6,0.5,2.4,1.2,2,1.4c-0.4,0.2-0.7,0-2.2-0.4
		c-1.4-0.4-2.7,0.5-2.7,0.9s3.2,1.4,3.2,1.4l-1.1,0.6c0,0,2.5,0.4,3.5,0.8c-1.5,1.1-2.7,0.4-4,0c-0.5,0.7-2.4,1.3-2.4,1.3l-0.9,0.5
		c0,0,2.4-0.1,2.8,0.5c-0.1,1.4-3.3,1.3-3.3,1.3s-0.7,0.9-0.1,1.2c0.5,0.4,3.7,0,4.7,0c1.2,0,1.9,0.9,1.1,1.2c-0.8,0.4-2.8,0-2.8,0
		s0,1.2-0.2,1.7c-0.2,0.5-1.2,0.4-3.2,0c0,0.4,2,1.2,2,1.2l-0.5,0.5c0,0,2,0.5,3.3,0.1c0,0.8-1.8,1.8-3.3,2.5
		c0.4,0.2,3.5-0.1,4.5-1.4c0.4,0.8,3.1,0.8,3.1,0.8s0,0-0.5-0.9c0.6-0.4,2.5,0.2,3.2,0.4c-0.7-0.7-0.9-2.4-0.9-2.4l0.9,0.4
		c0,0,0.5-0.1,0.8-0.4c0.7,0.5,3.2,0.9,4.2,1.9c0.7,0,3.2-0.7,4.5-0.6c-0.5,1.1-0.9,1.2-2.4,2c0.9,0.2,2.9,0.1,4.4,0
		c-0.1,0.5-0.4,1.2-0.8,1.8c3.4,0,2.8-1.7,2.8-1.7s0,0,0.5-0.1c0.7,0.8,2.6,4.5,3.3,5.3c0.7,0.7,2.4,3.2,2.6,3.9
		c0.2,0.7,0.4,6.4,0.4,9.5s-0.6,23.8-0.6,23.8s-0.9,0.5-1.8,0.8c-0.5-0.6-0.2-7.1-0.2-7.1s0,0-0.6-1.5c-0.6-1.4,0-5,0-5
		s0.5,0.9,0.8,2.5c0.5,1.4,0.2,3.4,0.2,3.4l0.2,1.8c0,0,0,2.1,0.4,2.8c0.6,0,0.2-3.7,0.2-3.7l-0.4-0.9c0,0,0.1-0.9,0-3.2
		c-0.2-4.1-1.1-6.1-3.8-7.8c-2.4-1.5-4.6-0.5-6.5-2.4c-2.2-2.9-2.6-3.7-5-6.1c-0.2-0.9-0.5-2.7-1.5-4.7c-0.9-2-1.3-4.5-1.8-6.1
		c0.6-0.1,1.3-0.9,1.5-1.7c-0.7-0.2-1.8,0.5-1.8,0.5s-0.4-1.4-0.5-1.8s-0.6-0.6-0.7-0.2s0,1.5,0,1.5s-0.5-1.2-0.6-1.3
		c-0.1-0.2-0.5-0.4-0.5-0.1c0,0.2,0,1.5,0,2c-0.7,0-1.3-0.2-2-0.2c0,0.9,0.9,1.3,1.7,1.5c0.2,0.2,0.1,1.2,0,1.4
		c-0.2,0.2-0.4,0.6-0.4,0.9c0,0.4,0.4,0.7,0.4,0.7l0.6-0.2l0.5-0.5c0,0,0.2-0.4,0.5,0c-0.4,4.5,0.8,11.8,1.2,13.3
		c0.4,1.1,0.7,3.2,0.2,3.9c-0.5,1.7,0.2,3.1,0.8,4.1c1.3,1.7,2,5.7,2,5.7s0,0-0.2,0.2c-1.1,0.4-3.3,0.4-4,0.1
		c-0.5-0.1-1.5-0.8-2.1-0.9c-0.6-0.1-2.8,0-2.8,0s-0.5-0.7-0.8-1.1c-0.1,0-0.2,0.5-0.2,0.9c0,0-1.8,0.8-2,1.1
		c-0.2,0.2-0.2,1.1-0.2,1.1l-0.9,1.4c0,0,0.8,1.3,1.3,1.5c0,0,1.1-0.6,1.9-0.8c0.9,0.2,0.9,1.3,1.4,1.5c0.4-0.4,0.2-1.2,0.4-1.1
		c0,0.1,0.9,0.8,1.2,0.9c0.2,2-0.2,4.8-0.2,4.8s-0.4,0.7-0.9,1.3c0,0-0.4,0-0.8-0.1c-0.5,0.1-0.2,0.7-0.2,0.7h-1.2v35.8h61.2V24.9
		h-0.8c0,0,0-0.5,0-0.7c0.5-1.2,1.1-3.7,0.4-5.5c0.5-1.1,0.1-2.2-0.2-4c0.4,0.5,1.4,0.2,1.4,0.2s0,0,0.2-0.4
		c0.2-0.9-0.4-1.5-0.4-1.5s0-0.5,0.4-0.7c0.6-0.2,0.1-0.7-0.2-0.8c-0.1-0.8-0.8-1.2-1.3-1.8c-0.9-0.7-1.3-0.4-2.4,0.7
		c-0.9,0.4-1.8,1.3-1.8,1.3l-1.2,1.1c0,0-0.1,0.2-1.5,0.6c-1.3,0-3.3-0.4-4.2,0c-3.4,1.2-2.1,4.6-1.4,6.6c-0.9,1.2-1.8,5-1.8,5H232
		c-0.1-1.7,0.4-7,0.6-9.5c0.8-2.2,1.5-4.1,1.4-5.9c1.1-1.8,0.9-7,0.9-7s0.2,0.2,0.9,0.5c0.9,0,0.8-0.6,0.9-1.1
		c0-0.5-0.9-1.8-0.9-1.8s-0.4-0.7-0.4-1.3c1.8-0.6,1.9-2,1.8-2.8c-0.2,0-2,1.1-2.7,1.7c0.2-5.3-0.9-6.2-0.9-6.2s0.2,1.3,0.2,2.1
		c0,0.9-0.2,4.2-0.2,4.2L233.3-2c0,0-2.1-3.7-3.5-5.8c0,0.6,0.9,3.1,2.4,5.8c-0.7-0.7-2.4-1.7-2.4-1.7s0.1,1.4,0.5,2.2
		c0.4,0.7,1.2,0.7,1.8,1.3c0.2,3.1-1.2,5.8-1.2,5.8s-1.2,0.2-2.7,0.4c-2.2-0.6-3.8-0.6-5.2,0.5c-1.5,1.1-1.2,6.4-1.2,6.4
		s0,0.8-0.6,2c-0.4,1.7,0.2,3.2,0.6,2.9c0.1-1.3,0.2-5,0.5-5.9c0,1.9,0.7,4.2,1.1,5.4c0.2,1.2,0,2,0.2,3.2c0.2,1.2,0.2,4.4,0.2,4.4
		h-3.1c0,0-0.8-37.2-0.1-40.7c0.6-2.8,2.5-5.2,2.5-5.2s0.4-0.7,1.4-0.7c1.1-0.1,1.7,0.8,2.5,1.4c0.6-0.1,0.1-1.5,0.2-1.9
		c0.1-0.5,1.7,0.6,2.4,0.7c0.7,0.1,2.6,0.4,3.5,0.6c0-0.5-1.1-2-1.1-2s1.2,0.9,1.8,1.5c0.6-0.1,0.7-1.1,1.5-1.2
		c0.9-0.1,2.4,0.8,3.8,0.7c0.6,0.2,1.7,0.9,1.7,0.2c0-0.6-1.7-1.2-1.3-1.9c0.9-0.4,3.2,0.6,3.8,0.9c0.6,0.2,1.3-0.1,2.1-0.4
		c-0.1-0.7-0.8-0.9-1.7-1.2s-1.4-0.7-1.3-1.7c0.8,0.6,3.4,1.5,3.4,1.5s0.9-0.5,1.9,0.1s1.3,0.4,2.5,0.4c-0.4-1.2-2.4-2.2-2.4-2.2
		S246.9-26.5,248.1-26.8L248.1-26.8z M216.6-26.4c0.6-0.2,2,1.2,2,1.2l1.3,2.1c0,0,0.4,0.2,0,0.9c-0.4,1.1-1.5,2.5-1.5,2.5l-2.6-2.5
		c0,0-0.1-1.4-0.1-2.2C216.1-25.1,216.6-26.4,216.6-26.4L216.6-26.4z M213.7-26.2c0,0,0.9-0.5,1.5-0.5c-0.5,1.9-1.8,3.1-1.8,3.1
		l-2.5-1.5C211.4-25.9,213.7-26.2,213.7-26.2L213.7-26.2z M211.4-20l-2-3.7l0.4-0.1c0,0,1.9,1.4,2.4,1.8c0.6,0.4,2.8,1.7,2.8,1.7
		s0.9,1.8,1.8,2.5c0.2,0.7-0.1,2.4-0.5,2.6C215.9-15.4,211.4-20,211.4-20L211.4-20z M211.9,22.4c0.4-0.1,1.4-0.7,1.4-0.7v3.1h-1.4
		c0,0,0.4-0.9,0.4-1.3C212.1,23.4,211.9,22.4,211.9,22.4L211.9,22.4z M209.6,16.4c0.4,0.5,0.7,1.4,0.7,1.8c0,0.5,0.1,2.6,0.2,3.5
		c-1.3,0-1.9-0.2-2.6-0.9C208.1,19.7,209.6,16.4,209.6,16.4L209.6,16.4z M210.8,22.9c0.1,0.6,0,1.2,0,1.2s-0.6,0.4-0.6,0.9h-3.5
		c0,0,0-0.9,0.1-1.1c0.1-0.2,0.7-1.4,0.8-1.8C208.8,22.7,210.2,23,210.8,22.9L210.8,22.9z M204.9,21.5c-0.2-0.9-1.1-3.5-1.1-3.5
		s0.9,0.9,1.2,1.1c0.2,0.1,1.3,1.9,1.9,2.6c-0.5,0.6-1.5,3.3-1.5,3.3h-0.8c0,0,0-0.2,0.1-0.7C204.8,23.5,205.3,22.4,204.9,21.5
		L204.9,21.5z M199.7,10.1c0,0,1.2,0,1.5-0.1c0.4,0,1.3,0.7,2.2,0.8c0.8,0.1,1.5-0.1,1.9-0.4c0,0,0.1,0,0.5,0.1l1.2,2.7
		c0,0,0.2,1.9,0.5,3.2c0,1.1-0.6,3.4-0.6,3.4s-0.6-0.6-1.3-2.4c-0.7-2.4-1.5-3.2-2.5-3.8c-1.2-0.7-3.7-0.8-3.7-0.8L199.7,10.1
		L199.7,10.1z M200.5,22.4c-0.2-0.4-0.1-1.1,0-1.7c0-0.6,0.5-1.4,0.5-1.4s2.2,2.4,2.9,3.4c0.1,0.7-0.2,1.4-0.2,1.4s-0.4-0.1-0.9-0.1
		c-0.5,0.1-0.4,0.8-0.4,0.8h-3.1C199.5,24.6,200.8,22.9,200.5,22.4L200.5,22.4z M194,22.9l0.1-3.3c0.9,0.1,3.1-0.1,4-0.5
		c0,0.8,0.5,2,0.9,2.7c0.1,0.4,0.1,1.4,0.1,1.4s-0.4,0.4-0.9,0.9c-2-0.5-1.3,0.7-1.3,0.7h-3.5C193.5,24.8,194,22.9,194,22.9
		L194,22.9z M190.2,23.9c0.2-0.5,1.2-2.9,1.2-3.4h0.5c0,0,0.6,1.3,0.7,1.9c0.1,0.6-0.1,2-0.1,2c-0.2-0.2-1.2-0.5-1.3,0.6h-1.4
		C189.6,24.9,190,24.2,190.2,23.9L190.2,23.9z M188.2,38.8h56.7v19.8h-56.7V38.8z M242.9,18c0.4,0.5,0.1,1.1,0.4,2.4
		c0.1,1.2,0.4,2.4,1.3,3.7c-0.1,0.4-0.6,0.7-0.5,0.9h-2.1c0,0-0.5-1.1-1.8-1.3c0-1.1-0.1-2.6-0.4-3.1c-0.2-0.5-0.1-0.9-0.2-0.9
		C239.7,19.6,242.3,18.4,242.9,18L242.9,18z M236,22.2c0.1-0.4,0.6-1.2,0.6-1.2s0.2,0.1,0.2,0.2c0,0.1,0.4,1.5,0.8,2.2
		c0.2,0.4,0.6,1.5,0.6,1.5H237c0-0.8-1.5-1.1-1.5-1.1S235.6,22.9,236,22.2L236,22.2z M231.1,15.2v9.7h-0.8c0,0,0.1-8.6-0.1-9.5
		L231.1,15.2L231.1,15.2z M226.1,23.1c0-0.5,0.1-2,0.1-2.2c0.2-0.4,0.2-1.1,0.2-2.5c0.2-1.7,0.5-2.9,0.5-2.9s0.7,0.1,1.5,0
		c0.1,0.7,0.5,2.4,0.8,3.1c0.2,1.8,0.2,2.2,0.4,2.5c0,1.4,0,3.5,0,3.9h-3.5C226,24.9,226,23.6,226.1,23.1L226.1,23.1z M224.5,14.8
		c0,0,0.5,0.5,1.1,0.6c0,1.2,0,3.7,0,3.7s-0.4,0.6,0,1.5c0,0.7-0.2,1.3-0.2,1.4c0,0.2,0,2.9,0,2.9h-0.6c0,0-0.2-3.4-0.2-3.9
		C224.5,20.6,224.5,15.5,224.5,14.8L224.5,14.8z M188.2,26.9h56.7v10h-56.7V26.9z M222-24.4l-1.2-1.3l1.9-1.8c0,0,0.1-0.5,0.8-0.5
		c0.7,0,1.7,0.5,1.7,0.5L222-24.4L222-24.4z"/>
	<path class="st0" d="M193.7,33.5c0-0.2,0-0.4-0.1-0.6c-0.1-0.1-0.2-0.2-0.5-0.5c-0.1-0.1-0.4-0.2-0.6-0.4c-0.2-0.1-0.4-0.4-0.6-0.5
		c-0.1-0.2-0.4-0.4-0.5-0.7c-0.1-0.2-0.1-0.6-0.1-0.9c0-0.4,0-0.6,0.1-0.8c0.1-0.2,0.2-0.5,0.4-0.6c0.1-0.1,0.4-0.2,0.6-0.4
		c0.2-0.1,0.5-0.1,0.7-0.1c0.4,0,0.6,0,0.8,0.1c0.2,0.1,0.5,0.1,0.7,0.2l-0.4,1.1c-0.1-0.1-0.2-0.1-0.5-0.2
		c-0.2-0.1-0.5-0.1-0.6-0.1c-0.2,0-0.5,0-0.6,0.1s-0.2,0.2-0.2,0.5c0,0.2,0,0.4,0.1,0.5c0.1,0.1,0.2,0.2,0.5,0.5
		c0.1,0.1,0.4,0.2,0.6,0.5c0.2,0.1,0.4,0.4,0.6,0.5c0.1,0.2,0.4,0.5,0.5,0.7c0.1,0.2,0.1,0.6,0.1,0.9s0,0.7-0.1,0.9
		c-0.1,0.2-0.2,0.5-0.4,0.6s-0.4,0.4-0.6,0.4c-0.2,0.1-0.5,0.1-0.8,0.1c-0.4,0-0.7,0-0.9-0.1c-0.2-0.1-0.5-0.1-0.6-0.2l0.4-1.2
		c0.1,0.1,0.2,0.1,0.5,0.2c0.2,0.1,0.5,0.1,0.7,0.1C193.4,34.3,193.7,34,193.7,33.5"/>
	<path class="st0" d="M198,33.8h-1.4l-0.4,1.7h-1.1l1.8-7.1h0.8l1.8,7.1h-1.2L198,33.8L198,33.8z M196.7,32.7h1.1l-0.4-1.7l-0.1-1.1
		l0,0L197,31L196.7,32.7L196.7,32.7z"/>
	<path class="st0" d="M201.3,31.9l-0.4-1.2l0,0l0.1,1.2v3.4H200v-7.1h0.8l1.8,3.5l0.4,1.2l0,0l-0.1-1.2v-3.5h1.1v7.1H203L201.3,31.9
		"/>
	<path class="st0" d="M206.6,28.3h3.1v1.2h-2v1.8h1.9v1.2h-1.9v2.8h-1.2v-7"/>
	<path class="st0" d="M210.2,28.3c0.2-0.1,0.5-0.1,0.8-0.1c0.2,0,0.5,0,0.7,0s0.5,0,0.7,0.1c0.2,0,0.5,0.1,0.6,0.4
		c0.2,0.1,0.4,0.4,0.5,0.6c0.1,0.2,0.1,0.6,0.1,0.9c0,0.6-0.1,1.1-0.2,1.4c-0.2,0.4-0.5,0.6-0.8,0.7l0.4,0.4l1.2,2.7h-1.3l-1.1-2.8
		l-0.5-0.1v2.9h-1.2v-7.1H210.2z M211.4,31.5h0.4c0.2,0,0.5-0.1,0.6-0.2c0.1-0.2,0.2-0.5,0.2-0.9c0-0.4-0.1-0.6-0.2-0.7
		c-0.1-0.2-0.4-0.2-0.6-0.2c-0.1,0-0.2,0-0.2,0c-0.1,0-0.1,0-0.2,0v2.1H211.4z"/>
	<path class="st0" d="M217,33.8h-1.4l-0.4,1.7h-1.1l1.8-7.1h0.8l1.8,7.1h-1.2L217,33.8L217,33.8z M215.8,32.7h1.1l-0.4-1.7l-0.1-1.1
		l0,0l-0.2,1.1L215.8,32.7L215.8,32.7z"/>
	<path class="st0" d="M220.3,31.9l-0.4-1.2l0,0l0.1,1.2v3.4H219v-7.1h0.8l1.8,3.5l0.4,1.2l0,0l-0.1-1.2v-3.5h1.1v7.1H222L220.3,31.9
		"/>
	<path class="st0" d="M227.3,35c-0.1,0.1-0.4,0.2-0.6,0.4c-0.2,0.1-0.5,0.1-0.8,0.1c-0.4,0-0.6-0.1-0.9-0.2
		c-0.2-0.1-0.5-0.4-0.7-0.6c-0.2-0.2-0.4-0.7-0.5-1.2s-0.2-1.1-0.2-1.8c0-0.7,0.1-1.3,0.2-1.8s0.4-0.8,0.5-1.1
		c0.2-0.2,0.5-0.5,0.7-0.6c0.2-0.1,0.6-0.1,0.8-0.1c0.2,0,0.6,0,0.7,0.1c0.2,0,0.4,0.1,0.5,0.2l-0.2,1.1c-0.1-0.1-0.2-0.1-0.4-0.1
		s-0.4,0-0.6,0c-0.4,0-0.7,0.2-0.9,0.6c-0.2,0.4-0.4,1.1-0.4,1.9c0,0.4,0,0.7,0.1,1.1c0,0.4,0.1,0.6,0.2,0.8
		c0.1,0.2,0.2,0.4,0.5,0.5c0.1,0.1,0.4,0.2,0.6,0.2s0.4,0,0.6-0.1c0.1-0.1,0.2-0.1,0.4-0.2L227.3,35"/>
	<path class="st0" d="M227.9,28.3h1.2v7.1h-1.2V28.3z"/>
	<path class="st0" d="M232.2,33.5c0-0.2,0-0.4-0.1-0.6c-0.1-0.1-0.2-0.2-0.5-0.5c-0.1-0.1-0.4-0.2-0.6-0.4c-0.2-0.1-0.4-0.4-0.6-0.5
		c-0.1-0.2-0.4-0.4-0.5-0.7c-0.1-0.2-0.1-0.6-0.1-0.9c0-0.4,0-0.6,0.1-0.8c0.1-0.2,0.2-0.5,0.4-0.6c0.1-0.1,0.4-0.2,0.6-0.4
		c0.2-0.1,0.5-0.1,0.7-0.1c0.4,0,0.6,0,0.8,0.1c0.2,0.1,0.5,0.1,0.7,0.2l-0.4,1.1c-0.1-0.1-0.2-0.1-0.5-0.2
		c-0.2-0.1-0.5-0.1-0.6-0.1c-0.2,0-0.4,0-0.6,0.1c-0.1,0.1-0.2,0.2-0.2,0.5c0,0.2,0,0.4,0.1,0.5c0.1,0.1,0.2,0.2,0.5,0.5
		c0.1,0.1,0.4,0.2,0.6,0.5c0.2,0.1,0.4,0.4,0.6,0.5c0.1,0.2,0.4,0.5,0.5,0.7c0.1,0.2,0.1,0.6,0.1,0.9s0,0.7-0.1,0.9
		c-0.1,0.2-0.2,0.5-0.4,0.6s-0.4,0.4-0.6,0.4c-0.2,0.1-0.5,0.1-0.8,0.1c-0.4,0-0.7,0-0.9-0.1c-0.2-0.1-0.5-0.1-0.6-0.2l0.4-1.2
		c0.1,0.1,0.2,0.1,0.5,0.2c0.2,0.1,0.5,0.1,0.7,0.1C231.8,34.3,232.2,34,232.2,33.5"/>
	<path class="st0" d="M237.3,35c-0.1,0.1-0.4,0.2-0.6,0.4c-0.2,0.1-0.5,0.1-0.8,0.1c-0.4,0-0.6-0.1-0.9-0.2
		c-0.2-0.1-0.5-0.4-0.7-0.6s-0.4-0.7-0.5-1.2s-0.2-1.1-0.2-1.8c0-0.7,0.1-1.3,0.2-1.8c0.1-0.5,0.4-0.8,0.5-1.1
		c0.2-0.2,0.5-0.5,0.7-0.6c0.2-0.1,0.6-0.1,0.8-0.1s0.6,0,0.7,0.1c0.2,0,0.4,0.1,0.5,0.2l-0.2,1.1c-0.1-0.1-0.2-0.1-0.4-0.1
		s-0.4,0-0.6,0c-0.4,0-0.7,0.2-0.9,0.6c-0.2,0.4-0.4,1.1-0.4,1.9c0,0.4,0,0.7,0.1,1.1c0,0.4,0.1,0.6,0.2,0.8
		c0.1,0.2,0.2,0.4,0.5,0.5c0.1,0.1,0.4,0.2,0.6,0.2c0.2,0,0.4,0,0.6-0.1c0.1-0.1,0.2-0.1,0.4-0.2L237.3,35"/>
	<path class="st0" d="M237.6,31.9c0-1.2,0.2-2.1,0.6-2.7s0.9-0.9,1.7-0.9c0.4,0,0.7,0.1,0.9,0.2c0.2,0.1,0.5,0.5,0.7,0.7
		c0.2,0.4,0.4,0.7,0.4,1.2c0.1,0.5,0.1,0.9,0.1,1.5c0,1.2-0.2,2.1-0.6,2.7c-0.4,0.6-0.9,0.9-1.7,0.9c-0.4,0-0.7-0.1-0.9-0.2
		c-0.2-0.1-0.5-0.5-0.7-0.7c-0.2-0.4-0.4-0.7-0.4-1.2C237.6,32.8,237.6,32.3,237.6,31.9L237.6,31.9z M238.8,31.9c0,0.4,0,0.7,0,0.9
		c0,0.4,0.1,0.6,0.1,0.8c0.1,0.2,0.2,0.4,0.4,0.5s0.2,0.2,0.5,0.2c0.4,0,0.6-0.2,0.8-0.6c0.1-0.4,0.2-1.1,0.2-1.9c0-0.4,0-0.7,0-0.9
		c0-0.4-0.1-0.6-0.1-0.8c-0.1-0.2-0.2-0.4-0.4-0.6c-0.1-0.1-0.2-0.2-0.5-0.2C239,29.3,238.8,30.1,238.8,31.9L238.8,31.9z"/>
	<path class="st0" d="M233.2,56.7c-5.2,0-9-3.7-9-8.6c0-5,3.8-8.6,9-8.6c5.3,0,9.1,3.5,9.1,8.6S238.5,56.7,233.2,56.7L233.2,56.7z
		 M239.8,48.1c0-3.8-2.7-6.4-6.5-6.4s-6.5,2.7-6.5,6.4c0,3.5,2.8,6.2,6.5,6.2C237.1,54.5,239.8,51.9,239.8,48.1L239.8,48.1z"/>
	<path class="st0" d="M212.9,56.7c-5.2,0-9-3.5-9-8.6c0-5,3.8-8.6,8.8-8.6c5.3,0,9.1,3.5,9.1,8.6C222,53.2,218.3,56.7,212.9,56.7
		L212.9,56.7z M213.1,54.5c3.8,0,6.5-2.7,6.5-6.4s-2.8-6.4-6.6-6.4c-3.7,0-6.4,2.7-6.4,6.2C206.6,51.8,209.3,54.5,213.1,54.5
		L213.1,54.5z"/>
	<path class="st0" d="M203.8,54.6v1.9H189c1.9-2.5,3.7-4.8,5.4-7.2c1.8-2.4,3.5-4.7,5.7-7.4h-4h-5.4V40h13.6
		c-3.7,4.8-7.3,9.5-11.1,14.6H203.8"/>
</g>
<g id="Imported-Layers-Copy-7" transform="translate(1.000000, 83.189189)" sketch:type="MSShapeGroup">
	<path class="st0" d="M25.4,44.3l-2.2-0.8c-0.6-0.3-0.9-0.7-0.8-1.4l0.9-22c0-0.8-0.4-0.4-0.7,0L1.3,42.9c-0.3,0.3-0.4,0.4-0.9,0.7
		l-1,0.5c-0.7,0.5-0.4,0.5,0.4,0.5h8.3c1.2,0,1.3-0.1-0.1-0.4l-3-0.5c-0.8-0.2-1.3-0.5-0.7-1.3l5.8-7.1c1.1-1.3,1.3-1.2,3-1.2
		c2.5,0.1,3,0,5.5,0.3c1,0.1,1.3,0,1.2,1.2l-0.5,6.7c-0.1,0.8-0.3,0.9-0.8,1.1l-3.1,0.8c-0.9,0.3-1.1,0.4-0.2,0.4h9.7
		C26.3,44.7,26.2,44.6,25.4,44.3L25.4,44.3z M20.2,25.5L20,32.4c0,0.5-0.1,1-1.2,1l-5.6-0.2c-0.6,0-1.1-0.4-0.4-1.1l6.2-6.7
		C20.2,24,20.3,24.8,20.2,25.5L20.2,25.5z"/>
	<path class="st0" d="M35.8,22.7l-4.7,19.2c-0.3,0.9-0.4,1.4-0.9,1.5l-2.5,0.7c-0.3,0.1-1.7,0.4,0,0.4h8.7c1.9,0,1.1-0.3,0.3-0.5
		l-1.9-0.5c-0.5-0.2-0.9-0.4-0.6-1.4l4.7-19.7c0.3-1,0.4-1.2,1.1-1.5l1.7-0.5c0.4-0.1,0.4-0.2-0.5-0.2h-7.7c-1.5,0-1.1,0.2-0.1,0.4
		c0,0,0.7,0.2,1.5,0.4C34.9,21,36.2,21.2,35.8,22.7"/>
	<path class="st0" d="M64.3,21.2c-6.3-1.3-13.7,0.7-17.1,8.6C42.8,40,51.4,45.5,58.4,43.9c0.7-0.2,1-0.1,1.3-0.9l0.9-3.8
		c0.1-0.4,0.3-1-0.5-1.2l-3.7-1c-0.8-0.2-1.6-0.4-0.4-0.4h7.8c0.8,0,0.8,0.2,0.7,0.8l-1.4,4.6c-0.2,0.9-0.3,1-0.9,1.3
		c-11.3,4.3-18.9,0.3-19.6-7.4c-0.7-6.7,7.6-18.9,24-15.3c0.9,0.2,1,0.4,0.7,1.2l-1.8,5.5c-0.4,1.3-0.5,1-0.4-0.4l0.2-4.4
		C65.3,21.4,64.8,21.3,64.3,21.2"/>
	<path class="st0" d="M90.4,44.3l-2.2-0.8c-0.6-0.3-0.9-0.7-0.8-1.4l0.9-22c0-0.8-0.4-0.4-0.7,0L66.3,42.9c-0.3,0.3-0.4,0.4-0.9,0.7
		l-1,0.5c-0.7,0.5-0.4,0.5,0.5,0.5h8.3c1.2,0,1.3-0.1-0.1-0.4l-3-0.5c-0.8-0.2-1.3-0.5-0.7-1.3l5.8-7.1c1.1-1.3,1.3-1.2,3-1.2
		c2.5,0.1,3,0,5.5,0.3c1,0.1,1.3,0,1.2,1.2l-0.5,6.7c-0.1,0.8-0.3,0.9-0.8,1.1l-3.1,0.8c-0.9,0.3-1.1,0.4-0.2,0.4H90
		C91.2,44.7,91.2,44.6,90.4,44.3L90.4,44.3z M85.3,25.5L85,32.4c0,0.5-0.1,1-1.2,1l-5.6-0.2c-0.6,0-1.1-0.4-0.4-1.1l6.2-6.7
		C85.2,24,85.4,24.8,85.3,25.5L85.3,25.5z"/>
</g>
<g id="Imported-Layers-Copy-2" transform="translate(0.000000, 7.000000)" sketch:type="MSShapeGroup">
	<path class="st0" d="M135.2,118L135.2,118c-1.4,1.5-3.1,2.2-4.7,2.2c-3.4,0-5.9-2.6-5.9-6.1c0-3.6,2.5-6.1,5.9-6.1
		c1.6,0,3.3,0.7,4.6,2.1l0.1,0.1l2.1-2.7l-0.1-0.1c-1.8-2.1-4-3.2-6.7-3.2c-2.7,0-5.2,0.9-6.9,2.6c-1.9,1.7-3,4.3-3,7.3
		c0,3,1,5.5,3,7.3c1.7,1.6,4.3,2.6,6.9,2.6c2.7,0,4.9-1,6.7-3.2l0.1-0.1L135.2,118"/>
	<path class="st0" d="M139.6,123.5h3.9v-18.9h-3.9V123.5z"/>
	<path class="st0" d="M158.7,119.4c-1,0.6-2,0.9-2.9,0.9c-1.2,0-1.8-0.6-1.8-2.1v-10h4v-3.6h-4v-5.8l-3.8,2v3.9h-3.3v3.6h3.3V119
		c0,2.9,1.7,4.9,4.3,4.9c1.7,0,2.8-0.5,3.5-0.9l0,0l0.9-3.7L158.7,119.4"/>
	<path class="st0" d="M161.8,123.5h3.9v-18.9h-3.9V123.5z"/>
	<path class="st0" d="M168,101.3c-3.6-5-9.4-8-15.4-8s-11.8,3-15.4,8l-0.2,0.3h4.5v-0.1c3.1-3.2,7-4.8,11-4.8c4.1,0,8.1,1.6,11,4.8
		l0.1,0.1h4.5L168,101.3"/>
	<path class="st0" d="M173.2,109.1L173.2,109.1l-0.1,9.9v0.1c1.2,1.8,3.2,3.1,5.3,3.1c3.3,0,4.9-2.8,4.9-8.2c0-4.9-1.8-7.7-5-7.7
		C176.3,106.2,174.6,107.2,173.2,109.1L173.2,109.1z M238.3,123.5L238.3,123.5l-2.3,0.1c-0.1-0.3-4.9-10.4-4.9-10.4l-3.6,5v5.4h-2.2
		V98.7c0.2-0.1,1.7-0.9,2.2-1.2v18.1l1.2-1.8c0,0,5.4-7.9,6.1-8.9h2.5c-0.5,0.7-4.8,6.5-4.8,6.5S237.8,122.4,238.3,123.5
		L238.3,123.5z M194.3,123.9h-0.9c-1.9-0.1-5.3-1-5.3-5.9c0-4.4,3.6-5.9,6.9-5.9c1.7,0,3.4,0.4,4.6,1.1l0.4,0.2v-2.7
		c0-3-1.4-4.5-4.4-4.5c-1.7,0-3.4,0.4-5,1.3c-0.1-0.3-0.6-1.4-0.8-1.7c1.7-0.9,3.9-1.4,6-1.4c4.3,0,6.4,1.9,6.4,6v13.2H200v-2.8
		l-0.4,0.5C198,123,196.3,123.8,194.3,123.9L194.3,123.9z M179.1,123.9h-0.9c-1.8-0.1-3.4-0.9-4.7-2.5l-0.4-0.5v2.6h-2.2V98.7
		c0.2-0.1,1.7-0.9,2.2-1.2v10.1l0.4-0.5c1.6-1.8,3.5-2.7,5.5-2.7c4.2,0,6.5,3.5,6.5,9.5C185.5,119.8,183,123.7,179.1,123.9
		L179.1,123.9z M190.1,117.9c0,2.9,1.4,4.4,4.1,4.4c2.2,0,4.3-1,5.6-3v-0.1v-4.1l-0.1-0.1c-1.4-0.8-2.9-1.1-5-1.1
		C191.9,113.8,190.1,115.3,190.1,117.9L190.1,117.9z M209.3,107c1.1-1.7,3-2.7,5-2.7c4.2,0,6.4,2.7,6.4,7.7v11.5h-2.2v-11
		c0-4.3-1.5-6.2-4.7-6.2c-3.1,0-4.9,2.3-4.9,6.2v11h-2.2v-18.8h2.2v3L209.3,107L209.3,107z"/>
</g>
</svg>
