<?xml version="1.0" encoding="UTF-8" standalone="no"?><!DOCTYPE svg PUBLIC "-//W3C//DTD SVG 1.1//EN" "http://www.w3.org/Graphics/SVG/1.1/DTD/svg11.dtd"><svg width="100%" height="100%" viewBox="0 0 14 2" version="1.1" xmlns="http://www.w3.org/2000/svg" xmlns:xlink="http://www.w3.org/1999/xlink" xml:space="preserve" style="fill-rule:evenodd;clip-rule:evenodd;stroke-linejoin:round;stroke-miterlimit:1.41421;"><g><path d="M0,0.676c0,0.374 0.301,0.672 0.676,0.672c0.166,0 0.327,-0.058 0.455,-0.181c0.013,-0.014 0.015,-0.038 0.002,-0.051l-0.146,-0.155c-0.012,-0.014 -0.036,-0.014 -0.049,-0.002c-0.067,0.058 -0.148,0.09 -0.251,0.09c-0.212,0 -0.369,-0.173 -0.369,-0.381c0,-0.209 0.156,-0.385 0.367,-0.385c0.092,0 0.176,0.028 0.253,0.095c0.013,0.013 0.034,0.013 0.047,0l0.146,-0.152c0.015,-0.015 0.015,-0.037 -0.002,-0.052c-0.127,-0.116 -0.266,-0.174 -0.453,-0.174c-0.375,0 -0.676,0.301 -0.676,0.676Z" style="fill:#dbdad9;fill-rule:nonzero;"/><path d="M1.324,1.329l0.206,0c0.037,0 0.058,-0.022 0.067,-0.045l0.068,-0.149l0.509,0l0.067,0.147c0.017,0.036 0.032,0.047 0.066,0.047l0.208,0c0.028,0 0.043,-0.024 0.032,-0.048l-0.587,-1.26c-0.005,-0.012 -0.018,-0.021 -0.031,-0.021l-0.019,0c-0.013,0 -0.026,0.009 -0.032,0.021l-0.586,1.26c-0.011,0.024 0.004,0.048 0.032,0.048Zm0.453,-0.449l0.14,-0.309l0.002,0l0.143,0.309l-0.285,0Z" style="fill:#dbdad9;fill-rule:nonzero;"/><path d="M3.161,1.348c0.275,0 0.442,-0.195 0.442,-0.387c0,-0.255 -0.214,-0.347 -0.379,-0.427c-0.131,-0.064 -0.204,-0.113 -0.204,-0.175c0,-0.054 0.036,-0.103 0.115,-0.103c0.099,0 0.209,0.071 0.252,0.101c0.038,0.023 0.07,0.008 0.083,-0.013l0.095,-0.144c0.008,-0.013 0.011,-0.047 -0.011,-0.06c-0.056,-0.041 -0.206,-0.14 -0.401,-0.14c-0.288,0 -0.432,0.187 -0.432,0.372c0,0.225 0.181,0.326 0.363,0.414c0.124,0.06 0.193,0.111 0.193,0.19c0,0.065 -0.054,0.112 -0.129,0.112c-0.118,0 -0.214,-0.067 -0.266,-0.103c-0.019,-0.013 -0.049,-0.013 -0.064,0.011l-0.086,0.152c-0.013,0.024 -0.007,0.041 0.008,0.056c0.043,0.043 0.177,0.144 0.421,0.144Z" style="fill:#dbdad9;fill-rule:nonzero;"/><path d="M3.917,1.294c0,0.018 0.015,0.035 0.036,0.035l0.775,0c0.021,0 0.036,-0.017 0.036,-0.035l0,-0.204c0,-0.019 -0.015,-0.036 -0.036,-0.036l-0.519,0l0,-0.253l0.427,0c0.019,0 0.036,-0.015 0.036,-0.035l0,-0.204c0,-0.019 -0.017,-0.036 -0.036,-0.036l-0.427,0l0,-0.232l0.519,0c0.021,0 0.036,-0.017 0.036,-0.036l0,-0.204c0,-0.018 -0.015,-0.035 -0.036,-0.035l-0.775,0c-0.021,0 -0.036,0.017 -0.036,0.035l0,1.24Z" style="fill:#dbdad9;fill-rule:nonzero;"/><path d="M6.009,1.348c0.275,0 0.442,-0.195 0.442,-0.387c0,-0.255 -0.214,-0.347 -0.378,-0.427c-0.132,-0.064 -0.205,-0.113 -0.205,-0.175c0,-0.054 0.036,-0.103 0.115,-0.103c0.099,0 0.209,0.071 0.253,0.101c0.037,0.023 0.069,0.008 0.082,-0.013l0.095,-0.144c0.008,-0.013 0.012,-0.047 -0.011,-0.06c-0.056,-0.041 -0.206,-0.14 -0.401,-0.14c-0.288,0 -0.432,0.187 -0.432,0.372c0,0.225 0.181,0.326 0.363,0.414c0.124,0.06 0.193,0.111 0.193,0.19c0,0.065 -0.054,0.112 -0.129,0.112c-0.118,0 -0.214,-0.067 -0.266,-0.103c-0.019,-0.013 -0.049,-0.013 -0.064,0.011l-0.086,0.152c-0.013,0.024 -0.007,0.041 0.008,0.056c0.043,0.043 0.177,0.144 0.421,0.144Z" style="fill:#dbdad9;fill-rule:nonzero;"/><path d="M6.97,1.294c0,0.018 0.016,0.035 0.035,0.035l0.225,0c0.018,0 0.035,-0.017 0.035,-0.035l0,-1l0.268,0c0.021,0 0.036,-0.017 0.036,-0.036l0,-0.204c0,-0.018 -0.015,-0.035 -0.036,-0.035l-0.831,0c-0.021,0 -0.036,0.017 -0.036,0.035l0,0.204c0,0.019 0.015,0.036 0.036,0.036l0.268,0l0,1Z" style="fill:#dbdad9;fill-rule:nonzero;"/><path d="M7.846,0.85c0,0.285 0.238,0.498 0.532,0.498c0.296,0 0.535,-0.213 0.535,-0.498l0,-0.796c0,-0.018 -0.017,-0.035 -0.035,-0.035l-0.231,0c-0.02,0 -0.035,0.017 -0.035,0.035l0,0.781c0,0.137 -0.099,0.214 -0.234,0.214c-0.133,0 -0.231,-0.077 -0.231,-0.214l0,-0.781c0,-0.018 -0.015,-0.035 -0.035,-0.035l-0.23,0c-0.019,0 -0.036,0.017 -0.036,0.035l0,0.796Z" style="fill:#dbdad9;fill-rule:nonzero;"/><path d="M9.29,1.294c0,0.018 0.015,0.035 0.033,0.035l0.457,0c0.362,0 0.657,-0.293 0.657,-0.657c0,-0.36 -0.295,-0.653 -0.657,-0.653l-0.457,0c-0.018,0 -0.033,0.017 -0.033,0.035l0,1.24Zm0.292,-0.242l0,-0.758l0.196,0c0.212,0 0.349,0.166 0.349,0.378c0,0.214 -0.137,0.38 -0.349,0.38l-0.196,0Z" style="fill:#dbdad9;fill-rule:nonzero;"/><path d="M10.754,1.294c0,0.018 0.017,0.035 0.036,0.035l0.224,0c0.019,0 0.036,-0.017 0.036,-0.035l0,-1.24c0,-0.018 -0.017,-0.035 -0.036,-0.035l-0.224,0c-0.019,0 -0.036,0.017 -0.036,0.035l0,1.24Z" style="fill:#dbdad9;fill-rule:nonzero;"/><path d="M11.439,1.294c0,0.018 0.015,0.035 0.036,0.035l0.775,0c0.021,0 0.036,-0.017 0.036,-0.035l0,-0.204c0,-0.019 -0.015,-0.036 -0.036,-0.036l-0.519,0l0,-0.253l0.427,0c0.019,0 0.036,-0.015 0.036,-0.035l0,-0.204c0,-0.019 -0.017,-0.036 -0.036,-0.036l-0.427,0l0,-0.232l0.519,0c0.021,0 0.036,-0.017 0.036,-0.036l0,-0.204c0,-0.018 -0.015,-0.035 -0.036,-0.035l-0.775,0c-0.021,0 -0.036,0.017 -0.036,0.035l0,1.24Z" style="fill:#dbdad9;fill-rule:nonzero;"/><path d="M12.988,1.348c0.275,0 0.442,-0.195 0.442,-0.387c0,-0.255 -0.214,-0.347 -0.378,-0.427c-0.132,-0.064 -0.205,-0.113 -0.205,-0.175c0,-0.054 0.036,-0.103 0.115,-0.103c0.099,0 0.209,0.071 0.253,0.101c0.037,0.023 0.069,0.008 0.082,-0.013l0.095,-0.144c0.008,-0.013 0.012,-0.047 -0.011,-0.06c-0.056,-0.041 -0.206,-0.14 -0.401,-0.14c-0.288,0 -0.432,0.187 -0.432,0.372c0,0.225 0.181,0.326 0.363,0.414c0.124,0.06 0.193,0.111 0.193,0.19c0,0.065 -0.054,0.112 -0.129,0.112c-0.118,0 -0.214,-0.067 -0.266,-0.103c-0.019,-0.013 -0.049,-0.013 -0.064,0.011l-0.086,0.152c-0.013,0.024 -0.007,0.041 0.008,0.056c0.043,0.043 0.177,0.144 0.421,0.144Z" style="fill:#dbdad9;fill-rule:nonzero;"/></g></svg>