<?xml version="1.0" encoding="UTF-8" standalone="no"?><!DOCTYPE svg PUBLIC "-//W3C//DTD SVG 1.1//EN" "http://www.w3.org/Graphics/SVG/1.1/DTD/svg11.dtd"><svg width="100%" height="100%" viewBox="0 0 13 2" version="1.1" xmlns="http://www.w3.org/2000/svg" xmlns:xlink="http://www.w3.org/1999/xlink" xml:space="preserve" style="fill-rule:evenodd;clip-rule:evenodd;stroke-linejoin:round;stroke-miterlimit:1.41421;"><g><path d="M0,1.602c0,0.024 0.019,0.044 0.044,0.044l0.274,0c0.023,0 0.044,-0.02 0.044,-0.044l0,-0.563l0.528,0c0.024,0 0.044,-0.021 0.044,-0.044l0,-0.253c0,-0.023 -0.02,-0.044 -0.044,-0.044l-0.528,0l0,-0.334l0.642,0c0.026,0 0.044,-0.021 0.044,-0.044l0,-0.253c0,-0.023 -0.018,-0.044 -0.044,-0.044l-0.96,0c-0.025,0 -0.044,0.021 -0.044,0.044l0,1.535Z" style="fill:#fff;fill-rule:nonzero;"/><path d="M1.29,1.602c0,0.024 0.02,0.044 0.044,0.044l0.278,0c0.023,0 0.044,-0.02 0.044,-0.044l0,-1.535c0,-0.023 -0.021,-0.044 -0.044,-0.044l-0.278,0c-0.024,0 -0.044,0.021 -0.044,0.044l0,1.535Z" style="fill:#fff;fill-rule:nonzero;"/><path d="M2.023,1.602c0,0.024 0.02,0.044 0.044,0.044l0.275,0c0.026,0 0.044,-0.02 0.044,-0.044l0,-0.865l0.003,0l0.902,0.907c0.019,0.019 0.035,0.026 0.058,0.026l0.023,0c0.023,0 0.044,-0.014 0.044,-0.042l0,-1.561c0,-0.023 -0.021,-0.044 -0.044,-0.044l-0.278,0c-0.025,0 -0.044,0.021 -0.044,0.044l0,0.824l-0.002,0l-0.891,-0.856c-0.019,-0.019 -0.035,-0.035 -0.058,-0.035l-0.035,0c-0.023,0 -0.044,0.019 -0.044,0.042l0.003,1.56Z" style="fill:#fff;fill-rule:nonzero;"/><path d="M3.783,1.602c0,0.024 0.019,0.044 0.042,0.044l0.565,0c0.448,0 0.814,-0.363 0.814,-0.813c0,-0.446 -0.366,-0.81 -0.814,-0.81l-0.565,0c-0.023,0 -0.042,0.021 -0.042,0.044l0,1.535Zm0.362,-0.298l0,-0.94l0.243,0c0.262,0 0.432,0.206 0.432,0.469c0,0.264 -0.17,0.471 -0.432,0.471l-0.243,0Z" style="fill:#fff;fill-rule:nonzero;"/><path d="M5.951,1.595c-0.004,0.031 0.017,0.051 0.045,0.051l0.273,0c0.023,0 0.042,-0.018 0.044,-0.037l0.102,-0.716l0.005,0l0.392,0.751c0.007,0.014 0.026,0.026 0.039,0.026l0.042,0c0.012,0 0.033,-0.012 0.04,-0.026l0.389,-0.751l0.005,0l0.104,0.716c0.003,0.019 0.023,0.037 0.044,0.037l0.274,0c0.028,0 0.049,-0.02 0.044,-0.051l-0.262,-1.558c-0.002,-0.021 -0.023,-0.037 -0.042,-0.037l-0.037,0c-0.011,0 -0.032,0.009 -0.039,0.023l-0.538,1.002l-0.005,0l-0.538,-1.002c-0.007,-0.014 -0.028,-0.023 -0.04,-0.023l-0.037,0c-0.018,0 -0.039,0.016 -0.041,0.037l-0.263,1.558Z" style="fill:#fff;fill-rule:nonzero;"/><path d="M7.967,0.837c0,0.464 0.369,0.833 0.833,0.833c0.464,0 0.835,-0.369 0.835,-0.833c0,-0.464 -0.371,-0.837 -0.835,-0.837c-0.464,0 -0.833,0.373 -0.833,0.837Zm0.371,0c0,-0.255 0.209,-0.466 0.462,-0.466c0.255,0 0.464,0.211 0.464,0.466c0,0.253 -0.209,0.462 -0.464,0.462c-0.253,0 -0.462,-0.209 -0.462,-0.462Z" style="fill:#fff;fill-rule:nonzero;"/><path d="M9.909,1.602c0,0.024 0.018,0.044 0.044,0.044l0.275,0c0.024,0 0.044,-0.02 0.044,-0.044l0,-0.591l0.161,0l0.308,0.615c0.005,0.009 0.019,0.02 0.037,0.02l0.309,0c0.039,0 0.055,-0.037 0.039,-0.067l-0.318,-0.589c0.216,-0.081 0.343,-0.252 0.343,-0.466c0,-0.276 -0.21,-0.501 -0.505,-0.501l-0.693,0c-0.026,0 -0.044,0.021 -0.044,0.044l0,1.535Zm0.363,-0.885l0,-0.362l0.344,0c0.095,0 0.176,0.067 0.176,0.176c0,0.109 -0.081,0.186 -0.176,0.186l-0.344,0Z" style="fill:#fff;fill-rule:nonzero;"/><path d="M11.444,1.602c0,0.024 0.019,0.044 0.044,0.044l0.96,0c0.026,0 0.044,-0.02 0.044,-0.044l0,-0.252c0,-0.023 -0.018,-0.044 -0.044,-0.044l-0.642,0l0,-0.314l0.528,0c0.024,0 0.044,-0.018 0.044,-0.044l0,-0.252c0,-0.023 -0.02,-0.044 -0.044,-0.044l-0.528,0l0,-0.288l0.642,0c0.026,0 0.044,-0.021 0.044,-0.044l0,-0.253c0,-0.023 -0.018,-0.044 -0.044,-0.044l-0.96,0c-0.025,0 -0.044,0.021 -0.044,0.044l0,1.535Z" style="fill:#fff;fill-rule:nonzero;"/></g></svg>