<?xml version="1.0" encoding="UTF-8" standalone="no"?><!DOCTYPE svg PUBLIC "-//W3C//DTD SVG 1.1//EN" "http://www.w3.org/Graphics/SVG/1.1/DTD/svg11.dtd"><svg width="100%" height="100%" viewBox="0 0 161 132" version="1.1" xmlns="http://www.w3.org/2000/svg" xmlns:xlink="http://www.w3.org/1999/xlink" xml:space="preserve" style="fill-rule:evenodd;clip-rule:evenodd;stroke-linejoin:round;stroke-miterlimit:1.41421;"><path d="M117.9,24.3l-48.7,-22.3l0,64.6l14,-6.3l0,-37.2l34.8,15.6l-0.1,-14.4Z" style="fill:#db208e;fill-rule:nonzero;"/><path d="M83.2,36.1l19.9,9.2l14.9,-6.6l-34.8,-15.6l0,13Z" style="fill:#8bc53f;fill-rule:nonzero;"/><path d="M102.5,51.8l-33.3,14.6l0,-64.4l-12.4,5.1l0,82.1l45.7,-20.5l0,-16.9Z" style="fill:#5cc5cf;fill-rule:nonzero;"/><path d="M102.5,51.6l0,17.3l15.4,6.6l-0.1,-16.9l-15.3,-7Z" style="fill:#8bc53f;fill-rule:nonzero;"/><path d="M102.5,68.8l-45.7,20.5l13.9,6.3l47.3,-20.1l-15.5,-6.7Z" style="fill:#db208e;fill-rule:nonzero;"/><path d="M129.65,106.301l-81.252,0l-6.322,8.183l0,14.462l80.425,0l7.149,-8.664l0,-13.981Z" style="fill:#db208e;"/><g><path d="M59.414,119.494c0.189,0.149 0.378,0.266 0.564,0.349c0.187,0.083 0.39,0.125 0.608,0.125c0.23,0 0.399,-0.048 0.509,-0.142c0.109,-0.095 0.163,-0.217 0.163,-0.367c0,-0.086 -0.025,-0.162 -0.077,-0.228c-0.052,-0.066 -0.121,-0.125 -0.207,-0.177c-0.086,-0.052 -0.184,-0.099 -0.293,-0.142c-0.109,-0.043 -0.218,-0.088 -0.328,-0.134c-0.138,-0.051 -0.278,-0.112 -0.422,-0.181c-0.144,-0.069 -0.272,-0.152 -0.384,-0.25c-0.112,-0.097 -0.204,-0.211 -0.275,-0.34c-0.072,-0.129 -0.108,-0.283 -0.108,-0.461c0,-0.374 0.138,-0.678 0.414,-0.914c0.275,-0.236 0.652,-0.353 1.129,-0.353c0.293,0 0.557,0.051 0.793,0.155c0.235,0.103 0.439,0.221 0.612,0.353l-0.457,0.604c-0.149,-0.11 -0.3,-0.197 -0.453,-0.263c-0.152,-0.066 -0.311,-0.099 -0.478,-0.099c-0.213,0 -0.369,0.044 -0.47,0.133c-0.1,0.089 -0.151,0.2 -0.151,0.332c0,0.086 0.025,0.159 0.074,0.22c0.049,0.06 0.113,0.113 0.194,0.159c0.08,0.046 0.173,0.089 0.28,0.13c0.106,0.04 0.217,0.08 0.332,0.12c0.143,0.052 0.287,0.111 0.431,0.177c0.143,0.066 0.274,0.148 0.392,0.246c0.118,0.097 0.212,0.217 0.284,0.357c0.072,0.141 0.108,0.309 0.108,0.505c0,0.183 -0.036,0.354 -0.108,0.512c-0.072,0.158 -0.176,0.296 -0.314,0.414c-0.138,0.118 -0.311,0.211 -0.518,0.28c-0.206,0.069 -0.442,0.104 -0.706,0.104c-0.293,0 -0.582,-0.056 -0.867,-0.168c-0.284,-0.112 -0.53,-0.252 -0.737,-0.418l0.466,-0.638Z" style="fill:#fff;fill-rule:nonzero;"/><path d="M62.81,118.502c0,-0.344 0.055,-0.655 0.164,-0.93c0.109,-0.276 0.254,-0.509 0.435,-0.699c0.181,-0.189 0.389,-0.336 0.625,-0.439c0.236,-0.104 0.477,-0.155 0.724,-0.155c0.287,0 0.54,0.048 0.759,0.146c0.218,0.098 0.4,0.236 0.547,0.414c0.146,0.178 0.257,0.391 0.332,0.638c0.075,0.247 0.112,0.517 0.112,0.81c0,0.195 -0.015,0.351 -0.043,0.465l-2.69,0c0.046,0.385 0.18,0.681 0.401,0.888c0.221,0.207 0.504,0.311 0.849,0.311c0.184,0 0.355,-0.028 0.513,-0.082c0.158,-0.055 0.315,-0.131 0.47,-0.229l0.336,0.621c-0.201,0.132 -0.425,0.241 -0.672,0.327c-0.247,0.087 -0.506,0.13 -0.776,0.13c-0.293,0 -0.566,-0.051 -0.819,-0.151c-0.253,-0.101 -0.474,-0.246 -0.664,-0.435c-0.189,-0.19 -0.337,-0.421 -0.444,-0.694c-0.106,-0.273 -0.159,-0.585 -0.159,-0.936Zm2.836,-0.379c0,-0.339 -0.071,-0.603 -0.211,-0.793c-0.141,-0.189 -0.358,-0.284 -0.651,-0.284c-0.253,0 -0.474,0.09 -0.664,0.271c-0.189,0.181 -0.307,0.45 -0.353,0.806l1.879,0Z" style="fill:#fff;fill-rule:nonzero;"/><path d="M67.18,118.502c0,-0.344 0.055,-0.655 0.164,-0.93c0.109,-0.276 0.254,-0.509 0.435,-0.699c0.181,-0.189 0.39,-0.336 0.625,-0.439c0.236,-0.104 0.477,-0.155 0.724,-0.155c0.288,0 0.54,0.048 0.759,0.146c0.218,0.098 0.401,0.236 0.547,0.414c0.147,0.178 0.257,0.391 0.332,0.638c0.075,0.247 0.112,0.517 0.112,0.81c0,0.195 -0.014,0.351 -0.043,0.465l-2.689,0c0.046,0.385 0.179,0.681 0.4,0.888c0.222,0.207 0.505,0.311 0.849,0.311c0.184,0 0.355,-0.028 0.513,-0.082c0.158,-0.055 0.315,-0.131 0.47,-0.229l0.336,0.621c-0.201,0.132 -0.425,0.241 -0.672,0.327c-0.247,0.087 -0.506,0.13 -0.776,0.13c-0.293,0 -0.566,-0.051 -0.819,-0.151c-0.253,-0.101 -0.474,-0.246 -0.663,-0.435c-0.19,-0.19 -0.338,-0.421 -0.444,-0.694c-0.107,-0.273 -0.16,-0.585 -0.16,-0.936Zm2.836,-0.379c0,-0.339 -0.07,-0.603 -0.211,-0.793c-0.141,-0.189 -0.358,-0.284 -0.651,-0.284c-0.253,0 -0.474,0.09 -0.664,0.271c-0.189,0.181 -0.307,0.45 -0.353,0.806l1.879,0Z" style="fill:#fff;fill-rule:nonzero;"/><path d="M73.593,116.382l0.819,0l0.069,0.578l0.035,0c0.178,-0.19 0.372,-0.351 0.581,-0.483c0.21,-0.132 0.447,-0.198 0.712,-0.198c0.31,0 0.558,0.066 0.745,0.198c0.187,0.132 0.329,0.319 0.427,0.56c0.201,-0.218 0.411,-0.399 0.629,-0.543c0.218,-0.144 0.463,-0.215 0.733,-0.215c0.448,0 0.778,0.145 0.991,0.435c0.213,0.29 0.319,0.705 0.319,1.245l0,2.655l-1,0l0,-2.525c0,-0.351 -0.053,-0.598 -0.159,-0.742c-0.107,-0.143 -0.269,-0.215 -0.487,-0.215c-0.265,0 -0.561,0.175 -0.888,0.526l0,2.956l-0.992,0l0,-2.525c0,-0.351 -0.053,-0.598 -0.159,-0.742c-0.106,-0.143 -0.272,-0.215 -0.496,-0.215c-0.264,0 -0.56,0.175 -0.887,0.526l0,2.956l-0.992,0l0,-4.232Z" style="fill:#fff;fill-rule:nonzero;"/><path d="M80.584,118.502c0,-0.35 0.054,-0.663 0.164,-0.939c0.109,-0.276 0.257,-0.509 0.444,-0.698c0.186,-0.19 0.4,-0.335 0.642,-0.436c0.241,-0.1 0.494,-0.15 0.758,-0.15c0.265,0 0.519,0.05 0.763,0.15c0.244,0.101 0.458,0.246 0.642,0.436c0.184,0.189 0.332,0.422 0.444,0.698c0.112,0.276 0.168,0.589 0.168,0.939c0,0.351 -0.056,0.664 -0.168,0.94c-0.112,0.276 -0.26,0.509 -0.444,0.698c-0.184,0.19 -0.398,0.334 -0.642,0.431c-0.244,0.098 -0.498,0.147 -0.763,0.147c-0.264,0 -0.517,-0.049 -0.758,-0.147c-0.242,-0.097 -0.456,-0.241 -0.642,-0.431c-0.187,-0.189 -0.335,-0.422 -0.444,-0.698c-0.11,-0.276 -0.164,-0.589 -0.164,-0.94Zm1.017,0c0,0.426 0.088,0.766 0.263,1.022c0.175,0.256 0.418,0.384 0.728,0.384c0.311,0 0.555,-0.128 0.733,-0.384c0.178,-0.256 0.267,-0.596 0.267,-1.022c0,-0.43 -0.089,-0.774 -0.267,-1.03c-0.178,-0.255 -0.422,-0.383 -0.733,-0.383c-0.31,0 -0.553,0.128 -0.728,0.383c-0.175,0.256 -0.263,0.6 -0.263,1.03Z" style="fill:#fff;fill-rule:nonzero;"/><path d="M85.592,116.382l0.819,0l0.069,0.75l0.034,0c0.15,-0.276 0.331,-0.487 0.543,-0.634c0.213,-0.146 0.431,-0.219 0.655,-0.219c0.202,0 0.362,0.028 0.483,0.086l-0.172,0.862c-0.075,-0.023 -0.144,-0.04 -0.207,-0.052c-0.063,-0.011 -0.141,-0.017 -0.233,-0.017c-0.167,0 -0.342,0.064 -0.526,0.194c-0.184,0.129 -0.342,0.355 -0.474,0.676l0,2.586l-0.991,0l0,-4.232Z" style="fill:#fff;fill-rule:nonzero;"/><path d="M88.445,118.502c0,-0.344 0.055,-0.655 0.164,-0.93c0.109,-0.276 0.254,-0.509 0.435,-0.699c0.181,-0.189 0.389,-0.336 0.625,-0.439c0.236,-0.104 0.477,-0.155 0.724,-0.155c0.287,0 0.54,0.048 0.759,0.146c0.218,0.098 0.4,0.236 0.547,0.414c0.147,0.178 0.257,0.391 0.332,0.638c0.075,0.247 0.112,0.517 0.112,0.81c0,0.195 -0.014,0.351 -0.043,0.465l-2.69,0c0.046,0.385 0.18,0.681 0.401,0.888c0.222,0.207 0.505,0.311 0.849,0.311c0.184,0 0.355,-0.028 0.513,-0.082c0.158,-0.055 0.315,-0.131 0.47,-0.229l0.336,0.621c-0.201,0.132 -0.425,0.241 -0.672,0.327c-0.247,0.087 -0.506,0.13 -0.776,0.13c-0.293,0 -0.566,-0.051 -0.819,-0.151c-0.253,-0.101 -0.474,-0.246 -0.664,-0.435c-0.189,-0.19 -0.337,-0.421 -0.443,-0.694c-0.107,-0.273 -0.16,-0.585 -0.16,-0.936Zm2.836,-0.379c0,-0.339 -0.07,-0.603 -0.211,-0.793c-0.141,-0.189 -0.358,-0.284 -0.651,-0.284c-0.253,0 -0.474,0.09 -0.664,0.271c-0.189,0.181 -0.307,0.45 -0.353,0.806l1.879,0Z" style="fill:#fff;fill-rule:nonzero;"/><path d="M94.436,116.382l1,0l0.508,2.198c0.046,0.201 0.085,0.402 0.117,0.603c0.031,0.202 0.067,0.406 0.107,0.612l0.035,0c0.04,-0.206 0.082,-0.41 0.125,-0.612c0.043,-0.201 0.09,-0.402 0.142,-0.603l0.552,-2.198l0.905,0l0.56,2.198c0.052,0.201 0.101,0.402 0.147,0.603c0.046,0.202 0.092,0.406 0.137,0.612l0.035,0c0.04,-0.206 0.078,-0.41 0.112,-0.612c0.035,-0.201 0.072,-0.402 0.112,-0.603l0.509,-2.198l0.931,0l-1.078,4.232l-1.181,0l-0.491,-1.974c-0.046,-0.201 -0.089,-0.4 -0.129,-0.599c-0.041,-0.198 -0.084,-0.409 -0.13,-0.633l-0.034,0c-0.04,0.224 -0.081,0.437 -0.121,0.638c-0.04,0.201 -0.083,0.402 -0.129,0.603l-0.483,1.965l-1.138,0l-1.12,-4.232Z" style="fill:#fff;fill-rule:nonzero;"/><path d="M100.978,118.502c0,-0.35 0.055,-0.663 0.164,-0.939c0.109,-0.276 0.257,-0.509 0.444,-0.698c0.187,-0.19 0.401,-0.335 0.642,-0.436c0.241,-0.1 0.494,-0.15 0.759,-0.15c0.264,0 0.518,0.05 0.762,0.15c0.245,0.101 0.459,0.246 0.643,0.436c0.183,0.189 0.331,0.422 0.443,0.698c0.113,0.276 0.169,0.589 0.169,0.939c0,0.351 -0.056,0.664 -0.169,0.94c-0.112,0.276 -0.26,0.509 -0.443,0.698c-0.184,0.19 -0.398,0.334 -0.643,0.431c-0.244,0.098 -0.498,0.147 -0.762,0.147c-0.265,0 -0.518,-0.049 -0.759,-0.147c-0.241,-0.097 -0.455,-0.241 -0.642,-0.431c-0.187,-0.189 -0.335,-0.422 -0.444,-0.698c-0.109,-0.276 -0.164,-0.589 -0.164,-0.94Zm1.017,0c0,0.426 0.088,0.766 0.263,1.022c0.175,0.256 0.418,0.384 0.729,0.384c0.31,0 0.554,-0.128 0.732,-0.384c0.178,-0.256 0.267,-0.596 0.267,-1.022c0,-0.43 -0.089,-0.774 -0.267,-1.03c-0.178,-0.255 -0.422,-0.383 -0.732,-0.383c-0.311,0 -0.554,0.128 -0.729,0.383c-0.175,0.256 -0.263,0.6 -0.263,1.03Z" style="fill:#fff;fill-rule:nonzero;"/><path d="M105.986,116.382l0.819,0l0.069,0.75l0.035,0c0.149,-0.276 0.33,-0.487 0.543,-0.634c0.212,-0.146 0.431,-0.219 0.655,-0.219c0.201,0 0.362,0.028 0.482,0.086l-0.172,0.862c-0.075,-0.023 -0.144,-0.04 -0.207,-0.052c-0.063,-0.011 -0.141,-0.017 -0.233,-0.017c-0.166,0 -0.342,0.064 -0.525,0.194c-0.184,0.129 -0.342,0.355 -0.475,0.676l0,2.586l-0.991,0l0,-4.232Z" style="fill:#fff;fill-rule:nonzero;"/><path d="M109.201,114.529l0.974,0l0,3.801l0.026,0l1.569,-1.948l1.086,0l-1.448,1.724l1.595,2.508l-1.078,0l-1.086,-1.836l-0.664,0.759l0,1.077l-0.974,0l0,-6.085Z" style="fill:#fff;fill-rule:nonzero;"/></g></svg>