<?xml version="1.0" encoding="UTF-8" standalone="no"?><!DOCTYPE svg PUBLIC "-//W3C//DTD SVG 1.1//EN" "http://www.w3.org/Graphics/SVG/1.1/DTD/svg11.dtd"><svg width="155" height="32" viewBox="0 0 155 32" version="1.1" xmlns="http://www.w3.org/2000/svg" xmlns:xlink="http://www.w3.org/1999/xlink" xml:space="preserve" style="fill-rule:evenodd;clip-rule:evenodd;stroke-linejoin:round;stroke-miterlimit:1.41421;"><g id="logo.-white.-copy.-2.-.2b..-logo.-white.-copy.-3"><g id="logo.-white.-copy.-2"><path id="Shape" d="M20.141,7.615l-16.053,-7.351l0,21.295l4.615,-2.077l0,-12.263l11.471,5.143l-0.033,-4.747Z" style="fill:#db208e;"/><path id="Shape1" d="M8.703,11.505l6.56,3.032l4.911,-2.175l-11.471,-5.143l0,4.286Z" style="fill:#8bc53f;"/><path id="Shape2" d="M4.088,21.493l0,-21.229l-4.088,1.681l0,27.064l15.065,-6.758l0,-5.571l-10.977,4.813Z" style="fill:#5cc5cf;"/><path id="Shape3" d="M15.065,16.614l0,5.703l5.076,2.176l-0.033,-5.571l-5.043,-2.308Z" style="fill:#8bc53f;"/><path id="Shape4" d="M15.065,22.284l-15.065,6.758l4.582,2.076l15.592,-6.625l-5.109,-2.209Z" style="fill:#db208e;"/></g><path id="Shape5" d="M86.75,25.171c-1.763,0 -3.45,-0.383 -4.907,-1.457c-0.23,-0.153 -0.383,-0.23 -0.46,-0.46c-0.153,-0.23 -0.23,-0.46 -0.153,-0.613c0.306,-0.69 0.69,-1.303 1.15,-1.993c0.23,-0.384 0.46,-0.384 0.997,-0.154c0.843,0.46 1.763,0.844 2.683,1.227c0.23,0.077 0.46,0.077 0.767,0.077c0.613,-0.077 1.227,-0.23 1.457,-0.844c0.23,-0.613 0.153,-1.226 -0.307,-1.687c-0.46,-0.46 -1.15,-0.843 -1.764,-1.226c-1.15,-0.614 -2.223,-0.997 -3.22,-1.84c-1.533,-1.227 -2.223,-2.914 -1.687,-4.907c0.46,-1.917 1.764,-3.067 3.604,-3.451c2.607,-0.613 4.907,0.077 7.054,1.61c0.307,0.231 0.383,0.461 0.23,0.844c-0.384,0.613 -0.844,1.227 -1.227,1.917c-0.23,0.383 -0.613,0.46 -1.073,0.153c-0.997,-0.613 -1.917,-1.227 -3.067,-1.227c-0.23,0 -0.46,0 -0.767,0.077c-0.997,0.307 -1.227,1.457 -0.46,2.147c0.613,0.613 1.457,0.996 2.3,1.303c1.15,0.46 2.3,0.997 3.22,1.917c2.684,2.453 2.071,6.517 -1.226,8.127c-1.15,0.307 -1.994,0.46 -3.144,0.46Zm12.114,-3.833l5.597,0c0.69,0 0.767,0.076 0.767,0.766l0,2.224c0,0.46 -0.23,0.613 -0.613,0.613l-8.894,0c-0.46,0 -0.614,-0.23 -0.614,-0.613l0,-15.948c0,-0.46 0.23,-0.613 0.614,-0.613l2.377,0c0.69,0 0.766,0.076 0.766,0.766l0,12.805Zm15.181,3.68c-4.907,0 -8.817,-3.834 -8.817,-8.894c0,-4.907 3.91,-8.817 8.894,-8.817c4.907,0 8.817,3.91 8.817,8.817c-0.076,5.06 -3.987,8.894 -8.894,8.894Zm4.831,-8.511c0.23,-2.53 -1.917,-4.907 -4.524,-5.137c-2.607,-0.23 -4.984,1.84 -5.214,4.371c-0.23,2.76 1.764,5.213 4.447,5.367c2.837,0.23 5.291,-1.917 5.291,-4.601Zm25.685,-1.917l1.61,-1.916l3.603,-4.524c0.23,-0.307 0.46,-0.46 0.844,-0.46l2.53,0c0.23,0 0.613,0.153 0.69,0.307c0.077,0.23 0,0.613 -0.23,0.766c-1.687,2.147 -3.45,4.294 -5.137,6.364c-0.383,0.46 -0.383,0.69 0,1.227c1.917,2.377 3.757,4.83 5.597,7.284c0.23,0.23 0.307,0.613 0.23,0.843c-0.077,0.384 -0.46,0.384 -0.843,0.384l-2.761,0c-0.383,0 -0.69,-0.154 -0.996,-0.461l-4.984,-6.823c-0.153,-0.23 -0.23,-0.307 -0.46,-0.614l0,7.054c0,0.69 -0.23,0.844 -0.843,0.844l-2.071,0c-0.996,0 -1.073,-0.077 -1.073,-1.151l0,-15.181c0,-0.69 0.23,-0.843 0.843,-0.843l2.377,0c0.614,0 0.767,0.23 0.767,0.767l0,6.133c0.23,-0.076 0.23,0 0.307,0Zm-20.625,1.611c0,-4.294 3.22,-8.051 7.437,-8.664c2.684,-0.384 5.06,0.153 7.131,1.916c0.46,0.461 0.46,0.614 0.076,0.997l-1.61,1.61c-0.307,0.384 -0.613,0.307 -0.997,0.077c-1.686,-1.38 -4.063,-1.457 -5.75,-0.23c-1.763,1.227 -2.607,3.68 -1.917,5.75c0.69,2.147 2.53,3.451 4.754,3.451c1.073,-0.077 1.993,-0.384 2.913,-0.997c0.46,-0.383 0.614,-0.307 1.074,0.153l1.533,1.61c0.46,0.46 0.384,0.614 -0.076,1.074c-3.757,3.373 -9.814,2.683 -12.881,-1.304c-1.074,-1.61 -1.687,-3.45 -1.687,-5.443Zm-80.505,-8.664c-0.844,0.23 -1.841,0.23 -2.684,0.613c-4.907,1.61 -7.284,6.671 -5.597,11.501c1.994,5.674 9.661,7.59 14.031,3.45c0.307,-0.307 0.383,-0.613 0.077,-0.997c-0.46,-0.46 -0.997,-1.073 -1.534,-1.61c-0.46,-0.46 -0.613,-0.46 -1.15,-0.153c-0.843,0.613 -1.763,0.997 -2.837,0.997c-3.22,0.153 -5.673,-2.914 -4.907,-6.057c0.844,-3.757 4.907,-5.137 7.821,-2.761c0.307,0.23 0.613,0.307 0.843,0c0.46,-0.613 1.074,-1.15 1.61,-1.686c0.46,-0.46 0.384,-0.614 -0.076,-0.997c-1.457,-1.534 -3.451,-2.3 -5.597,-2.3Zm22.924,16.637l-7.437,-16.101c-0.153,-0.23 -0.383,-0.383 -0.613,-0.46c-0.383,-0.153 -0.46,0.23 -0.69,0.46l-1.38,2.761l-6.134,13.264c-0.307,0.613 -0.153,0.843 0.613,0.843l2.301,0c0.46,0 0.843,-0.23 1.073,-0.69l0.613,-1.533c0.154,-0.307 0.307,-0.384 0.614,-0.384c1.61,0 3.373,0.077 4.983,0c0.997,-0.076 1.38,0.23 1.764,1.15c0.613,1.611 0.46,1.457 2.223,1.457l1.534,0c0.613,0 0.766,-0.307 0.536,-0.767Zm-9.967,-5.137c0.614,-1.303 1.227,-2.683 1.84,-4.063l1.84,4.063l-3.68,0Zm23.308,-6.057c-0.23,-2.913 -2.53,-5.137 -5.443,-5.137l-5.751,0c-0.613,0 -0.69,0.077 -0.69,0.69l0,15.718c0,0.69 0.077,0.767 0.767,0.767l2.223,0c0.69,0 0.767,-0.153 0.767,-0.844l0,-5.443l0.383,0c0.997,0 1.994,0.076 3.067,-0.154c2.837,-0.383 4.831,-2.99 4.677,-5.597Zm-5.597,2.224c-0.613,0.077 -1.226,0 -1.763,0l-0.614,0l0,-3.757c0.844,0 1.764,-0.077 2.607,0c0.997,0.153 1.687,0.843 1.61,1.84c-0.076,0.92 -0.843,1.84 -1.84,1.917Z" style="fill:#fff;"/></g></svg>
