<svg version="1.1" baseProfile="tiny" id="Layer_1" xmlns="http://www.w3.org/2000/svg" xmlns:xlink="http://www.w3.org/1999/xlink"
	 x="0px" y="0px" viewBox="-6.8 168.8 161 132" xml:space="preserve" width="100%" height="100%">
<path fill="#FFFFFF" d="M63.8,297.7c-2.3,0-4.5-0.5-6.4-1.9c-0.3-0.2-0.5-0.3-0.6-0.6c-0.2-0.3-0.3-0.6-0.2-0.8
	c0.4-0.9,0.9-1.7,1.5-2.6c0.3-0.5,0.6-0.5,1.3-0.2c1.1,0.6,2.3,1.1,3.5,1.6c0.3,0.1,0.6,0.1,1,0.1c0.8-0.1,1.6-0.3,1.9-1.1
	c0.3-0.8,0.2-1.6-0.4-2.2s-1.5-1.1-2.3-1.6c-1.5-0.8-2.9-1.3-4.2-2.4c-2-1.6-2.9-3.8-2.2-6.4c0.6-2.5,2.3-4,4.7-4.5
	c3.4-0.8,6.4,0.1,9.2,2.1c0.4,0.3,0.5,0.6,0.3,1.1c-0.5,0.8-1.1,1.6-1.6,2.5c-0.3,0.5-0.8,0.6-1.4,0.2c-1.3-0.8-2.5-1.6-4-1.6
	c-0.3,0-0.6,0-1,0.1c-1.3,0.4-1.6,1.9-0.6,2.8c0.8,0.8,1.9,1.3,3,1.7c1.5,0.6,3,1.3,4.2,2.5c3.5,3.2,2.7,8.5-1.6,10.6
	C66.4,297.5,65.3,297.7,63.8,297.7L63.8,297.7z M79.6,292.7h7.3c0.9,0,1,0.1,1,1v2.9c0,0.6-0.3,0.8-0.8,0.8H75.5
	c-0.6,0-0.8-0.3-0.8-0.8v-20.8c0-0.6,0.3-0.8,0.8-0.8h3.1c0.9,0,1,0.1,1,1V292.7L79.6,292.7z M99.4,297.5c-6.4,0-11.5-5-11.5-11.6
	c0-6.4,5.1-11.5,11.6-11.5c6.4,0,11.5,5.1,11.5,11.5C110.9,292.5,105.8,297.5,99.4,297.5z M105.7,286.4c0.3-3.3-2.5-6.4-5.9-6.7
	s-6.5,2.4-6.8,5.7c-0.3,3.6,2.3,6.8,5.8,7C102.5,292.7,105.7,289.9,105.7,286.4z M139.2,283.9l2.1-2.5l4.7-5.9
	c0.3-0.4,0.6-0.6,1.1-0.6h3.3c0.3,0,0.8,0.2,0.9,0.4c0.1,0.3,0,0.8-0.3,1c-2.2,2.8-4.5,5.6-6.7,8.3c-0.5,0.6-0.5,0.9,0,1.6
	c2.5,3.1,4.9,6.3,7.3,9.5c0.3,0.3,0.4,0.8,0.3,1.1c-0.1,0.5-0.6,0.5-1.1,0.5h-3.6c-0.5,0-0.9-0.2-1.3-0.6l-6.5-8.9
	c-0.2-0.3-0.3-0.4-0.6-0.8v9.2c0,0.9-0.3,1.1-1.1,1.1H135c-1.3,0-1.4-0.1-1.4-1.5V276c0-0.9,0.3-1.1,1.1-1.1h3.1c0.8,0,1,0.3,1,1v8
	C139.1,283.8,139.1,283.9,139.2,283.9z M112.3,286c0-5.6,4.2-10.5,9.7-11.3c3.5-0.5,6.6,0.2,9.3,2.5c0.6,0.6,0.6,0.8,0.1,1.3
	l-2.1,2.1c-0.4,0.5-0.8,0.4-1.3,0.1c-2.2-1.8-5.3-1.9-7.5-0.3c-2.3,1.6-3.4,4.8-2.5,7.5c0.9,2.8,3.3,4.5,6.2,4.5
	c1.4-0.1,2.6-0.5,3.8-1.3c0.6-0.5,0.8-0.4,1.4,0.2l2,2.1c0.6,0.6,0.5,0.8-0.1,1.4c-4.9,4.4-12.8,3.5-16.8-1.7
	C113.1,291,112.3,288.6,112.3,286L112.3,286z M7.3,274.7c-1.1,0.3-2.4,0.3-3.5,0.8c-6.4,2.1-9.5,8.7-7.3,15
	c2.6,7.4,12.6,9.9,18.3,4.5c0.4-0.4,0.5-0.8,0.1-1.3c-0.6-0.6-1.3-1.4-2-2.1c-0.6-0.6-0.8-0.6-1.5-0.2c-1.1,0.8-2.3,1.3-3.7,1.3
	c-4.2,0.2-7.4-3.8-6.4-7.9c1.1-4.9,6.4-6.7,10.2-3.6c0.4,0.3,0.8,0.4,1.1,0c0.6-0.8,1.4-1.5,2.1-2.2c0.6-0.6,0.5-0.8-0.1-1.3
	C12.7,275.7,10.1,274.7,7.3,274.7z M37.2,296.4l-9.7-21c-0.2-0.3-0.5-0.5-0.8-0.6c-0.5-0.2-0.6,0.3-0.9,0.6L24,279l-8,17.3
	c-0.4,0.8-0.2,1.1,0.8,1.1h3c0.6,0,1.1-0.3,1.4-0.9l0.8-2c0.2-0.4,0.4-0.5,0.8-0.5c2.1,0,4.4,0.1,6.5,0c1.3-0.1,1.8,0.3,2.3,1.5
	c0.8,2.1,0.6,1.9,2.9,1.9h2C37.3,297.4,37.5,297,37.2,296.4L37.2,296.4z M24.2,289.7c0.8-1.7,1.6-3.5,2.4-5.3l2.4,5.3H24.2z
	 M54.6,281.8c-0.3-3.8-3.3-6.7-7.1-6.7H40c-0.8,0-0.9,0.1-0.9,0.9v20.5c0,0.9,0.1,1,1,1H43c0.9,0,1-0.2,1-1.1v-7.1h0.5
	c1.3,0,2.6,0.1,4-0.2C52.2,288.6,54.8,285.2,54.6,281.8L54.6,281.8z M47.3,284.7c-0.8,0.1-1.6,0-2.3,0h-0.8v-4.9
	c1.1,0,2.3-0.1,3.4,0c1.3,0.2,2.2,1.1,2.1,2.4C49.6,283.4,48.6,284.6,47.3,284.7z"/>
<path fill="#DB208E" d="M111.1,193.1l-48.7-22.3v64.6l14-6.3v-37.2l34.8,15.6L111.1,193.1z"/>
<path fill="#8BC53F" d="M76.4,204.9l19.9,9.2l14.9-6.6l-34.8-15.6L76.4,204.9L76.4,204.9z"/>
<path fill="#5CC5CF" d="M95.7,220.6l-33.3,14.6v-64.4L50,175.9V258l45.7-20.5V220.6z"/>
<path fill="#8BC53F" d="M95.7,220.4v17.3l15.4,6.6l-0.1-16.9L95.7,220.4L95.7,220.4z"/>
<path fill="#DB208E" d="M95.7,237.6L50,258.1l13.9,6.3l47.3-20.1L95.7,237.6z"/>
</svg>
