<?xml version="1.0" encoding="UTF-8" standalone="no"?><!DOCTYPE svg PUBLIC "-//W3C//DTD SVG 1.1//EN" "http://www.w3.org/Graphics/SVG/1.1/DTD/svg11.dtd"><svg width="100%" height="100%" viewBox="0 0 11 2" version="1.1" xmlns="http://www.w3.org/2000/svg" xmlns:xlink="http://www.w3.org/1999/xlink" xml:space="preserve" style="fill-rule:evenodd;clip-rule:evenodd;stroke-linejoin:round;stroke-miterlimit:1.41421;"><g><path d="M0.437,1.339c0.274,0 0.439,-0.193 0.439,-0.385c0,-0.253 -0.212,-0.344 -0.376,-0.424c-0.13,-0.063 -0.203,-0.112 -0.203,-0.173c0,-0.054 0.036,-0.102 0.114,-0.102c0.099,0 0.208,0.07 0.251,0.1c0.037,0.022 0.069,0.008 0.082,-0.013l0.095,-0.143c0.007,-0.013 0.011,-0.047 -0.011,-0.06c-0.056,-0.04 -0.205,-0.139 -0.398,-0.139c-0.287,0 -0.43,0.186 -0.43,0.37c0,0.223 0.18,0.324 0.361,0.411c0.123,0.06 0.191,0.11 0.191,0.188c0,0.065 -0.053,0.112 -0.128,0.112c-0.117,0 -0.212,-0.067 -0.264,-0.103c-0.019,-0.013 -0.048,-0.013 -0.063,0.012l-0.086,0.15c-0.013,0.024 -0.007,0.041 0.008,0.056c0.042,0.043 0.176,0.143 0.418,0.143Z" style="fill:#dbdad9;fill-rule:nonzero;"/><path d="M1.062,1.321l0.205,0c0.037,0 0.057,-0.023 0.067,-0.045l0.067,-0.149l0.506,0l0.067,0.147c0.016,0.035 0.031,0.047 0.065,0.047l0.206,0c0.028,0 0.043,-0.025 0.032,-0.049l-0.582,-1.252c-0.006,-0.011 -0.019,-0.02 -0.032,-0.02l-0.019,0c-0.013,0 -0.026,0.009 -0.031,0.02l-0.583,1.252c-0.011,0.024 0.004,0.049 0.032,0.049Zm0.45,-0.447l0.14,-0.307l0.002,0l0.141,0.307l-0.283,0Z" style="fill:#dbdad9;fill-rule:nonzero;"/><path d="M2.649,1.285c0,0.019 0.015,0.036 0.035,0.036l0.222,0c0.018,0 0.035,-0.017 0.035,-0.036l0,-0.593l0.417,-0.619c0.014,-0.025 0,-0.054 -0.03,-0.054l-0.242,0c-0.017,0 -0.024,0.009 -0.03,0.016l-0.258,0.382l-0.259,-0.382c-0.005,-0.007 -0.015,-0.016 -0.03,-0.016l-0.241,0c-0.03,0 -0.045,0.029 -0.03,0.054l0.411,0.621l0,0.591Z" style="fill:#dbdad9;fill-rule:nonzero;"/><path d="M4.067,1.285c0,0.019 0.016,0.036 0.035,0.036l0.221,0c0.02,0 0.035,-0.017 0.035,-0.036l0,-0.489l0.533,0l0,0.489c0,0.019 0.015,0.036 0.035,0.036l0.221,0c0.019,0 0.035,-0.017 0.035,-0.036l0,-1.231c0,-0.019 -0.016,-0.035 -0.035,-0.035l-0.221,0c-0.02,0 -0.035,0.016 -0.035,0.035l0,0.469l-0.533,0l0,-0.469c0,-0.019 -0.015,-0.035 -0.035,-0.035l-0.221,0c-0.019,0 -0.035,0.016 -0.035,0.035l0,1.231Z" style="fill:#dbdad9;fill-rule:nonzero;"/><path d="M5.57,1.285c0,0.019 0.014,0.036 0.035,0.036l0.77,0c0.02,0 0.035,-0.017 0.035,-0.036l0,-0.202c0,-0.019 -0.015,-0.036 -0.035,-0.036l-0.515,0l0,-0.251l0.424,0c0.018,0 0.035,-0.015 0.035,-0.035l0,-0.203c0,-0.019 -0.017,-0.035 -0.035,-0.035l-0.424,0l0,-0.231l0.515,0c0.02,0 0.035,-0.017 0.035,-0.035l0,-0.203c0,-0.019 -0.015,-0.035 -0.035,-0.035l-0.77,0c-0.021,0 -0.035,0.016 -0.035,0.035l0,1.231Z" style="fill:#dbdad9;fill-rule:nonzero;"/><path d="M6.738,1.285c0,0.019 0.015,0.036 0.035,0.036l0.699,0c0.021,0 0.036,-0.017 0.036,-0.036l0,-0.202c0,-0.019 -0.015,-0.036 -0.036,-0.036l-0.442,0l0,-0.993c0,-0.019 -0.017,-0.035 -0.036,-0.035l-0.221,0c-0.02,0 -0.035,0.016 -0.035,0.035l0,1.231Z" style="fill:#dbdad9;fill-rule:nonzero;"/><path d="M7.78,1.285c0,0.019 0.014,0.036 0.035,0.036l0.699,0c0.021,0 0.036,-0.017 0.036,-0.036l0,-0.202c0,-0.019 -0.015,-0.036 -0.036,-0.036l-0.443,0l0,-0.993c0,-0.019 -0.016,-0.035 -0.035,-0.035l-0.221,0c-0.021,0 -0.035,0.016 -0.035,0.035l0,1.231Z" style="fill:#dbdad9;fill-rule:nonzero;"/><path d="M8.721,0.671c0,0.373 0.295,0.668 0.668,0.668c0.372,0 0.669,-0.295 0.669,-0.668c0,-0.372 -0.297,-0.671 -0.669,-0.671c-0.373,0 -0.668,0.299 -0.668,0.671Zm0.297,0c0,-0.204 0.168,-0.374 0.371,-0.374c0.204,0 0.372,0.17 0.372,0.374c0,0.203 -0.168,0.371 -0.372,0.371c-0.203,0 -0.371,-0.168 -0.371,-0.371Z" style="fill:#dbdad9;fill-rule:nonzero;"/></g></svg>