<?xml version="1.0" encoding="UTF-8" standalone="no"?><!DOCTYPE svg PUBLIC "-//W3C//DTD SVG 1.1//EN" "http://www.w3.org/Graphics/SVG/1.1/DTD/svg11.dtd"><svg width="100%" height="100%" viewBox="0 0 7 20" version="1.1" xmlns="http://www.w3.org/2000/svg" xmlns:xlink="http://www.w3.org/1999/xlink" xml:space="preserve" style="fill-rule:evenodd;clip-rule:evenodd;stroke-linejoin:round;stroke-miterlimit:1.41421;"><path d="M4.921,0.002c0.078,0.008 0.098,0.008 0.175,0.024c0.086,0.019 0.17,0.047 0.25,0.084c0.106,0.05 0.205,0.115 0.292,0.194c0.197,0.178 0.33,0.421 0.373,0.683c0.014,0.087 0.018,0.175 0.013,0.263c-0.005,0.078 -0.01,0.097 -0.024,0.174l-3.671,17.111c-0.008,0.028 -0.014,0.057 -0.022,0.085c-0.017,0.057 -0.037,0.112 -0.062,0.165c-0.087,0.186 -0.223,0.349 -0.392,0.467c-0.12,0.084 -0.256,0.146 -0.399,0.18c-0.257,0.063 -0.533,0.035 -0.774,-0.077c-0.106,-0.049 -0.205,-0.115 -0.292,-0.194c-0.087,-0.078 -0.162,-0.17 -0.223,-0.271c-0.06,-0.101 -0.104,-0.211 -0.132,-0.325c-0.028,-0.114 -0.038,-0.233 -0.031,-0.35c0.005,-0.078 0.011,-0.097 0.024,-0.174l3.672,-17.111c0.007,-0.028 0.013,-0.057 0.021,-0.085c0.025,-0.085 0.059,-0.166 0.102,-0.243c0.145,-0.257 0.385,-0.455 0.666,-0.545c0.084,-0.027 0.171,-0.045 0.258,-0.053c0.03,-0.002 0.059,-0.003 0.088,-0.004c0.03,0.001 0.059,0.001 0.088,0.002Z" style="fill:#f3f6f6;fill-rule:nonzero;"/></svg>